<svg width="128" height="21" viewBox="0 0 128 21" fill="none" xmlns="http://www.w3.org/2000/svg">
<path fill-rule="evenodd" clip-rule="evenodd" d="M122.93 12.4535C123.8 11.5835 124.279 10.4268 124.279 9.19756C124.279 7.96837 123.8 6.81269 122.93 5.94273C122.061 5.07277 120.905 4.59379 119.675 4.59379C118.446 4.59379 117.289 5.07277 116.42 5.94273C115.55 6.81269 115.071 7.96892 115.071 9.19812C115.071 10.4273 115.549 11.5835 116.42 12.4541C117.29 13.324 118.445 13.8019 119.675 13.8019C120.906 13.8019 122.062 13.3229 122.93 12.4535ZM112.296 18.1539L115.701 14.7482C116.853 15.578 118.228 16.0308 119.675 16.0308C121.5 16.0308 123.216 15.319 124.506 14.0291C125.796 12.7381 126.506 11.0227 126.506 9.19812C126.506 7.37354 125.796 5.65757 124.506 4.36822C123.216 3.07665 121.5 2.36653 119.675 2.36653C117.85 2.36653 116.134 3.07832 114.845 4.36822C113.553 5.65868 112.843 7.3741 112.843 9.19812C112.843 10.6462 113.298 12.0219 114.126 13.1731L110.721 16.5789C110.286 17.0138 110.286 17.7184 110.721 18.1539C110.938 18.3717 111.222 18.4803 111.508 18.4803C111.793 18.4803 112.077 18.3717 112.296 18.1539ZM109.663 19.2087C110.173 19.7194 110.843 19.9739 111.508 19.9739C112.175 19.9739 112.842 19.7182 113.351 19.2114L113.352 19.21L115.93 16.6314C117.077 17.2133 118.352 17.5244 119.675 17.5244C121.897 17.5244 123.992 16.6549 125.562 15.0853L125.562 15.085C127.133 13.5139 128 11.4187 128 9.19812C128 6.97779 127.132 4.88193 125.562 3.31232C123.992 1.74005 121.896 0.872925 119.675 0.872925C117.454 0.872925 115.358 1.74208 113.789 3.31208C112.217 4.88283 111.35 6.97824 111.35 9.19812C111.35 10.522 111.662 11.7976 112.243 12.9436L109.665 15.5227C109.665 15.5228 109.664 15.5228 109.664 15.5228C108.646 16.5412 108.647 18.1904 109.663 19.2087ZM121.874 11.3974L121.873 11.398C121.286 11.9865 120.51 12.3083 119.675 12.3083C118.841 12.3083 118.066 11.9874 117.476 11.3979C116.886 10.8076 116.565 10.0313 116.565 9.19812C116.565 8.36529 116.886 7.58889 117.476 6.99887L117.476 6.99853C118.066 6.40896 118.842 6.08739 119.675 6.08739C120.509 6.08739 121.284 6.40882 121.874 6.99853L121.874 6.99887C122.464 7.5887 122.785 8.36446 122.785 9.19756C122.785 10.031 122.464 10.8078 121.874 11.3974Z" fill="#353F58"/>
<path d="M52.8167 10.5418C54.0534 10.7927 55.0571 11.2587 55.8278 11.9398C56.5985 12.6029 56.9839 13.5977 56.9839 14.924C56.9839 16.9852 56.2311 18.428 54.7256 19.2525C53.2379 20.059 51.123 20.4623 48.3807 20.4623H41.8208V1.75041L47.6548 1.75041C50.4329 1.75041 52.5479 2.12679 53.9997 2.87957C55.4694 3.61443 56.2042 4.85113 56.2042 6.58969C56.2042 7.70093 55.8816 8.57917 55.2364 9.22441C54.5911 9.85172 53.7846 10.2908 52.8167 10.5418ZM47.3591 5.54118V8.98245H48.3001C49.1425 8.98245 49.7339 8.84802 50.0745 8.57917C50.415 8.2924 50.5853 7.81743 50.5853 7.15427C50.5853 6.59865 50.3971 6.19538 50.0207 5.94445C49.6622 5.6756 49.0439 5.54118 48.1656 5.54118H47.3591ZM48.4345 16.564C49.3665 16.564 50.0745 16.4206 50.5584 16.1338C51.0423 15.8471 51.2843 15.3183 51.2843 14.5476C51.2843 13.8307 51.0602 13.3109 50.6122 12.9883C50.182 12.6478 49.5278 12.4775 48.6496 12.4775H47.3591V16.564H48.4345Z" fill="#353F58"/>
<path d="M68.2268 20.4623L67.5009 16.8328H63.0649L62.3659 20.4623H56.5857L62.0433 1.75041L68.657 1.75041L74.0877 20.4623H68.2268ZM63.8446 12.9614H66.7213L65.2695 5.62183L63.8446 12.9614Z" fill="#353F58"/>
<path d="M81.4431 1.21271C84.2929 1.21271 86.596 2.06406 88.3525 3.76677L85.9059 6.64346C84.6513 5.63975 83.316 5.1379 81.9001 5.1379C81.2369 5.1379 80.7351 5.2544 80.3945 5.48741C80.054 5.72041 79.8837 6.05199 79.8837 6.48215C79.8837 6.80477 79.9733 7.07362 80.1526 7.2887C80.3497 7.48585 80.6634 7.67405 81.0936 7.85328C81.5416 8.03251 82.2586 8.28344 83.2443 8.60606C85.2159 9.23337 86.6318 10.022 87.4922 10.9719C88.3704 11.9219 88.8095 13.2213 88.8095 14.8702C88.8095 16.0711 88.4869 17.1375 87.8417 18.0695C87.2143 18.9836 86.3092 19.7006 85.1263 20.2203C83.9434 20.7401 82.5453 21 80.9322 21C79.2833 21 77.8315 20.7401 76.5769 20.2203C75.3223 19.7006 74.2648 19.0195 73.4045 18.1771L76.1198 15.1929C77.5358 16.4116 79.0682 17.021 80.7172 17.021C81.4879 17.021 82.0704 16.8687 82.4647 16.564C82.859 16.2414 83.0561 15.8291 83.0561 15.3273C83.0561 14.9509 82.9665 14.6372 82.7873 14.3863C82.626 14.1354 82.3303 13.9024 81.9001 13.6873C81.4699 13.4722 80.8426 13.2392 80.0182 12.9883C77.8494 12.3072 76.3349 11.4917 75.4746 10.5418C74.6143 9.57391 74.1841 8.37305 74.1841 6.93919C74.1841 5.77418 74.4978 4.76151 75.1251 3.9012C75.7524 3.04088 76.6127 2.37772 77.7061 1.91171C78.8173 1.44571 80.063 1.21271 81.4431 1.21271Z" fill="#353F58"/>
<path d="M102.652 1.75041L102.088 5.59495L95.9042 5.59495V9.08999L101.335 9.08999V12.827H95.9042V16.5909H102.518V20.4623L90.3659 20.4623V1.75041L102.652 1.75041Z" fill="#353F58"/>
<path d="M5.99533 1.75037C9.00644 1.75037 11.4171 2.42249 13.2274 3.76673C15.0376 5.09306 15.9427 7.5127 15.9427 11.0257C15.9427 14.4848 15.0735 16.9224 13.3349 18.3383C11.5964 19.7543 9.25737 20.4623 6.31795 20.4623H0L0 1.75037L5.99533 1.75037ZM5.53829 5.64868L5.53829 16.5639H6.64057C7.50089 16.5639 8.19094 16.3937 8.71071 16.0531C9.23048 15.7126 9.61584 15.148 9.86676 14.3594C10.1177 13.5528 10.2431 12.4416 10.2431 11.0257C10.2431 9.62764 10.1087 8.54328 9.83988 7.77258C9.58895 6.98396 9.2036 6.4373 8.68383 6.1326C8.16405 5.80999 7.49193 5.64868 6.66746 5.64868H5.53829Z" fill="#417BBF"/>
<path d="M29.9296 1.75037L29.365 5.59491L23.1815 5.59491V9.08994H28.6123L28.6123 12.8269L23.1815 12.8269V16.5908L29.7952 16.5908V20.4623H17.6432L17.6432 1.75037L29.9296 1.75037Z" fill="#417BBF"/>
<path d="M46.6932 1.75037L41.9615 20.4623H34.8101L29.7826 1.75037L35.6166 1.75037L38.4664 16.6177L41.0205 1.75037L46.6932 1.75037Z" fill="#417BBF"/>
</svg>
