<svg width="15" height="22" viewBox="0 0 15 22" fill="none" xmlns="http://www.w3.org/2000/svg">
<path d="M14.5525 13.2665L10.7194 11.9474L10.1449 11.0972C10.0989 11.0328 10.0254 10.9914 9.94727 10.9869C9.91969 10.9869 9.88752 10.996 9.85994 11.0052V9.96654C10.2092 9.41502 10.3931 8.81294 10.4804 8.26142C10.5585 8.25223 10.6459 8.23844 10.7424 8.18789C11.0089 8.0546 11.202 7.77425 11.3261 7.34682C11.441 6.93777 11.4088 6.63444 11.225 6.43221C11.1698 6.37247 11.1101 6.3357 11.0503 6.30353C11.2893 5.8715 11.4685 5.28781 11.4593 4.50649C11.4456 3.64704 11.1928 2.98981 10.7102 2.55319C10.1817 2.07521 9.53362 2.00627 9.24408 2.00167C9.04185 1.7351 8.48574 1.12843 7.50219 1.01813C6.13718 0.861861 4.54237 1.71672 2.77291 3.55512C2.70397 3.62406 2.68558 3.72977 2.72235 3.81709C2.75912 3.90901 2.84185 3.96876 2.93836 3.97795C3.02569 3.98255 3.78862 4.06527 3.76105 5.00745C3.74726 5.55897 3.83458 5.97261 3.95868 6.28514C3.88514 6.31731 3.80701 6.35868 3.74266 6.43221C3.55882 6.62984 3.52665 6.93777 3.64155 7.34222C3.76105 7.76505 3.95868 8.05001 4.22524 8.18329C4.34014 8.24304 4.45045 8.25683 4.54237 8.26142C4.62969 8.84052 4.82272 9.47477 5.20419 10.0401V11.0144C5.16742 10.9914 5.12146 10.9777 5.06631 10.9777C4.98818 10.9823 4.91464 11.019 4.86868 11.088L4.28499 11.9474L0.451927 13.2665C0.350815 13.3032 0.281876 13.3952 0.281876 13.5009V20.8499C0.281876 20.9877 0.39218 21.1026 0.53006 21.1026H14.4651C14.603 21.1026 14.7179 20.9923 14.7179 20.8499V13.5055C14.7225 13.3952 14.6536 13.3032 14.5525 13.2665ZM10.292 12.2094L9.84156 14.3511C9.46009 13.5238 8.82125 13.0183 8.31569 12.7287C8.94534 12.4989 9.4509 12.0853 9.76802 11.7774C9.77721 11.7728 9.78181 11.7636 9.78641 11.759C9.82317 11.7222 9.87373 11.6808 9.9059 11.6441L10.292 12.2094ZM6.28425 20.6017L6.19693 20.1283L6.77602 15.4542H8.22377L8.62362 20.188L8.53629 20.6017H6.28425ZM8.30649 14.9532H6.69789L6.08662 13.9007C6.62895 13.294 7.28159 12.9953 7.50679 12.908C7.73199 12.9861 8.39841 13.2573 8.93155 13.8685L8.30649 14.9532ZM5.76031 14.3327L6.29344 15.2565L5.889 18.5105L5.32369 15.5047C5.39722 15.0451 5.55808 14.6591 5.76031 14.3327ZM8.98211 18.4737L8.71094 15.2519L9.25787 14.3098C9.43251 14.6085 9.5658 14.9624 9.63014 15.3852L8.98211 18.4737ZM8.25134 6.34029H9.38196V6.94237H8.25134V6.34029ZM9.63014 5.83933H7.99856C7.86068 5.83933 7.75038 5.94963 7.75038 6.09211V6.14726H7.2586V6.09211C7.2586 5.95423 7.1483 5.83933 7.01042 5.83933H5.37884C5.24096 5.83933 5.13066 5.94963 5.13066 6.09211V6.24378H4.8503C4.89166 5.94504 4.99737 5.56817 5.25934 5.26023C5.58566 4.87417 6.09582 4.66275 6.77602 4.63518C8.34326 4.57083 8.96372 4.21235 9.20731 3.94578C9.51064 4.13421 10.0943 4.63518 10.1219 5.68766V6.25297H9.88292V6.09211C9.88292 5.95423 9.76802 5.83933 9.63014 5.83933ZM5.62702 6.34029H6.75764V6.94237H5.62702V6.34029ZM3.43014 3.60567C4.93762 2.12117 6.31642 1.39959 7.42866 1.52369C8.42139 1.63399 8.8764 2.36475 8.89478 2.39233C8.94534 2.47506 9.03726 2.52102 9.12918 2.51183C9.13837 2.51183 9.83696 2.45667 10.3655 2.93006C10.7424 3.27017 10.94 3.8079 10.9492 4.52028C10.9584 5.11776 10.8481 5.62791 10.6229 6.04615V5.67847C10.5723 3.93199 9.26246 3.40345 9.20731 3.38047C9.17054 3.36668 9.13377 3.35749 9.09701 3.35749C9.06024 3.35749 9.02806 3.36668 8.99589 3.38507C8.93155 3.42183 8.88559 3.47239 8.8764 3.54593C8.8764 3.55052 8.65579 4.05608 6.75304 4.13421C5.93036 4.16639 5.29611 4.43755 4.87328 4.93851C4.58373 5.28321 4.44126 5.67847 4.37232 6.01857C4.29418 5.77499 4.23903 5.45327 4.25282 5.03503C4.2758 4.20775 3.84837 3.78951 3.43014 3.60567ZM4.71702 7.67313C4.64348 7.67773 4.58373 7.71909 4.54237 7.76965C4.51479 7.76965 4.47802 7.76505 4.44126 7.74207C4.31257 7.67773 4.19767 7.48929 4.11494 7.21353C4.0414 6.96075 4.05979 6.82287 4.10115 6.77691C4.11954 6.75853 4.15171 6.74474 4.18848 6.74015C4.26661 6.85045 4.34474 6.93318 4.41368 6.99752C4.45964 7.03889 4.51939 7.06187 4.58373 7.06187C4.6251 7.06187 4.66186 7.05267 4.69863 7.03429C4.79055 6.98373 4.8457 6.88722 4.83192 6.78151C4.83192 6.78151 4.83192 6.76313 4.82732 6.74015H5.12606V7.19055C5.12606 7.32843 5.23636 7.44333 5.37424 7.44333H7.00582C7.1437 7.44333 7.25401 7.33303 7.25401 7.19055V6.63903H7.74578V7.19055C7.74578 7.32843 7.85609 7.44333 7.99397 7.44333H9.62555C9.76343 7.44333 9.87833 7.33303 9.87833 7.19055V6.74015H10.1173V6.78151C10.1173 6.85045 10.1449 6.91479 10.1909 6.96075C10.2874 7.05727 10.4436 7.06187 10.5447 6.96535C10.6137 6.90101 10.678 6.82287 10.747 6.74015C10.7837 6.74474 10.8251 6.75393 10.8481 6.77691C10.8894 6.82287 10.9078 6.96075 10.8343 7.21353C10.7562 7.4801 10.6459 7.66854 10.5172 7.73748C10.4712 7.76505 10.4298 7.76965 10.3977 7.76965C10.3655 7.74667 10.3287 7.73288 10.2874 7.72829C10.1633 7.7145 10.0254 7.81101 10.0116 7.94889C9.90131 8.92784 9.48767 10.2193 8.12265 10.8214C7.74118 10.9914 7.29537 10.9914 6.93229 10.8444C5.48455 10.2469 5.0755 8.91405 4.98358 7.89834C4.97439 7.76505 4.85949 7.66394 4.71702 7.67313ZM6.74385 11.3086C6.98284 11.4051 7.23562 11.4556 7.50679 11.4556C7.79174 11.4556 8.0675 11.3959 8.32947 11.281C8.74311 11.0972 9.07862 10.8628 9.35438 10.5916V11.4786C8.94993 11.8509 8.26972 12.3565 7.4976 12.384C6.75764 12.3565 6.10041 11.8877 5.69137 11.52V10.6422C5.97632 10.9041 6.32562 11.1339 6.74385 11.3086ZM5.09389 11.6441C5.39722 11.9566 5.98092 12.4851 6.71628 12.7425C6.20152 13.0505 5.52591 13.5882 5.12606 14.443L4.70782 12.214L5.09389 11.6441ZM0.78284 13.6847L4.24822 12.4897L5.7695 20.6017H0.78284V13.6847ZM14.2169 20.6017H9.05105L10.747 12.4851L14.2169 13.6801V20.6017Z" fill="url(#paint0_linear)" stroke="url(#paint1_linear)" stroke-width="0.1"/>
<defs>
<linearGradient id="paint0_linear" x1="0.281876" y1="21.1026" x2="15.412" y2="20.5661" gradientUnits="userSpaceOnUse">
<stop stop-color="#9242AE"/>
<stop offset="1" stop-color="#1976E3"/>
</linearGradient>
<linearGradient id="paint1_linear" x1="0.281876" y1="21.1026" x2="15.412" y2="20.5661" gradientUnits="userSpaceOnUse">
<stop stop-color="#9242AE"/>
<stop offset="1" stop-color="#1976E3"/>
</linearGradient>
</defs>
</svg>
