<svg width="20" height="20" viewBox="0 0 20 20" fill="none" xmlns="http://www.w3.org/2000/svg">
<path d="M13.3978 7.52148C13.3984 7.09608 13.5737 6.68827 13.8853 6.38746C14.197 6.08666 14.6194 5.9174 15.0601 5.91681H16.1343C16.575 5.9174 16.9975 6.08666 17.3091 6.38746C17.6207 6.68827 17.796 7.09608 17.7966 7.52148C17.7966 7.58075 17.7722 7.6376 17.7288 7.67951C17.6854 7.72143 17.6265 7.74497 17.5651 7.74497C17.5037 7.74497 17.4448 7.72143 17.4014 7.67951C17.358 7.6376 17.3336 7.58075 17.3336 7.52148C17.333 7.21462 17.2064 6.92051 16.9817 6.70353C16.7569 6.48655 16.4522 6.36439 16.1343 6.36379H15.0601C14.7422 6.36439 14.4375 6.48655 14.2128 6.70353C13.988 6.92051 13.8614 7.21462 13.8608 7.52148C13.8608 7.58075 13.8364 7.6376 13.793 7.67951C13.7496 7.72143 13.6907 7.74497 13.6293 7.74497C13.5679 7.74497 13.509 7.72143 13.4656 7.67951C13.4222 7.6376 13.3978 7.58075 13.3978 7.52148ZM14.5322 4.87534L14.479 4.37472C14.4638 4.23084 14.48 4.08547 14.5266 3.948C14.5731 3.81054 14.649 3.68402 14.7494 3.57663C14.8497 3.46923 14.9723 3.38333 15.1092 3.32447C15.246 3.26561 15.3941 3.2351 15.544 3.23491H15.6505C15.8007 3.23476 15.9493 3.26509 16.0866 3.32395C16.2239 3.3828 16.3469 3.46886 16.4475 3.57654C16.5481 3.68423 16.6242 3.81113 16.6708 3.94902C16.7173 4.08691 16.7333 4.23271 16.7178 4.37696L16.6645 4.87758C16.6397 5.13427 16.5165 5.37278 16.3191 5.5464C16.1217 5.72003 15.8643 5.81627 15.5972 5.81627C15.3301 5.81627 15.0727 5.72003 14.8753 5.5464C14.6779 5.37278 14.5547 5.13427 14.5299 4.87758L14.5322 4.87534ZM14.9397 4.33002L14.9953 4.83064C15.0085 4.97711 15.0782 5.11346 15.1905 5.21279C15.3028 5.31212 15.4495 5.36722 15.6018 5.36722C15.7541 5.36722 15.9009 5.31212 16.0132 5.21279C16.1255 5.11346 16.1951 4.97711 16.2084 4.83064L16.2617 4.33226C16.2708 4.24979 16.2618 4.16638 16.2352 4.08753C16.2085 4.00867 16.1649 3.93614 16.1072 3.87472C16.0495 3.81329 15.9789 3.76435 15.9002 3.73112C15.8215 3.69788 15.7364 3.68111 15.6505 3.6819H15.544C15.4587 3.68178 15.3743 3.69896 15.2963 3.73234C15.2183 3.76571 15.1484 3.81454 15.0912 3.87564C15.0341 3.93675 14.9908 4.00877 14.9643 4.08705C14.9378 4.16533 14.9286 4.24811 14.9374 4.33002H14.9397ZM6.66062 5.91681H11.754C11.8154 5.91681 11.8743 5.89327 11.9177 5.85135C11.9611 5.80944 11.9855 5.75259 11.9855 5.69332C11.9855 5.63405 11.9611 5.5772 11.9177 5.53529C11.8743 5.49337 11.8154 5.46983 11.754 5.46983H6.66062C6.59921 5.46983 6.54033 5.49337 6.49691 5.53529C6.45349 5.5772 6.4291 5.63405 6.4291 5.69332C6.4291 5.75259 6.45349 5.80944 6.49691 5.85135C6.54033 5.89327 6.59921 5.91681 6.66062 5.91681ZM6.66062 4.57586H11.754C11.8154 4.57586 11.8743 4.55232 11.9177 4.5104C11.9611 4.46849 11.9855 4.41165 11.9855 4.35237C11.9855 4.2931 11.9611 4.23625 11.9177 4.19434C11.8743 4.15243 11.8154 4.12888 11.754 4.12888H6.66062C6.59921 4.12888 6.54033 4.15243 6.49691 4.19434C6.45349 4.23625 6.4291 4.2931 6.4291 4.35237C6.4291 4.41165 6.45349 4.46849 6.49691 4.5104C6.54033 4.55232 6.59921 4.57586 6.66062 4.57586ZM11.754 6.81078H8.04972C7.98832 6.81078 7.92943 6.83432 7.88602 6.87624C7.8426 6.91815 7.81821 6.975 7.81821 7.03427C7.81821 7.09354 7.8426 7.15039 7.88602 7.1923C7.92943 7.23421 7.98832 7.25776 8.04972 7.25776H11.754C11.8154 7.25776 11.8743 7.23421 11.9177 7.1923C11.9611 7.15039 11.9855 7.09354 11.9855 7.03427C11.9855 6.975 11.9611 6.91815 11.9177 6.87624C11.8743 6.83432 11.8154 6.81078 11.754 6.81078ZM19.8571 1.22349V10.1631C19.8571 10.2224 19.8328 10.2793 19.7893 10.3212C19.7459 10.3631 19.687 10.3866 19.6256 10.3866H8.46646C8.46765 10.3993 8.46765 10.412 8.46646 10.4246L8.35764 13.1065C8.35617 13.1564 8.33742 13.2044 8.30439 13.2429L6.61431 15.1805L6.68377 18.705C6.68377 18.7643 6.65938 18.8211 6.61596 18.863C6.57254 18.9049 6.51365 18.9285 6.45225 18.9285C6.39085 18.9285 6.33196 18.9049 6.28854 18.863C6.24512 18.8211 6.22073 18.7643 6.22073 18.705L6.15128 15.0978C6.15072 15.0438 6.17046 14.9914 6.20684 14.9503L7.90155 13.0082L8.00805 10.3978C8.00771 10.3911 8.00771 10.3844 8.00805 10.3777H7.27877L7.02641 10.7845C7.01666 10.7999 7.005 10.8142 6.99169 10.8269L6.0934 11.6941L6.39669 13.2093C6.40711 13.2613 6.39808 13.3152 6.37122 13.3613L5.59332 14.7023C5.58335 14.7202 5.57088 14.7367 5.55627 14.7514L4.46119 15.8085C4.4169 15.8452 4.35993 15.8643 4.30167 15.8621C4.2434 15.8599 4.18813 15.8366 4.14689 15.7968C4.10566 15.757 4.08151 15.7037 4.07926 15.6474C4.07701 15.5912 4.09683 15.5362 4.13475 15.4934L5.209 14.4564L5.92902 13.225L5.61878 11.6717C5.61134 11.6358 5.61314 11.5987 5.62404 11.5636C5.63494 11.5285 5.6546 11.4966 5.68129 11.4706L6.64672 10.5386L6.89213 10.1296C6.9013 10.0728 6.93281 10.0216 6.98011 9.98659L7.36212 9.36975L7.07735 8.16737L6.83425 8.15173L3.47724 11.3924C3.43119 11.4341 3.36983 11.4566 3.30666 11.4547C3.24348 11.4528 3.18367 11.4268 3.14038 11.3823C3.0971 11.3378 3.07387 11.2786 3.07583 11.2176C3.07778 11.1566 3.10475 11.0989 3.1508 11.0571L4.11392 10.1386V7.92823L1.86819 10.0961L1.46304 18.7765C1.46304 18.8358 1.43864 18.8926 1.39523 18.9345C1.35181 18.9765 1.29292 19 1.23152 19C1.17012 19 1.11123 18.9765 1.06781 18.9345C1.02439 18.8926 1 18.8358 1 18.7765L1.40979 10.0067C1.41239 9.95119 1.43633 9.8986 1.47693 9.8592L4.11392 7.29352V1.22349C4.11392 1.16422 4.13831 1.10737 4.18173 1.06546C4.22515 1.02355 4.28403 1 4.34544 1H19.6256C19.687 1 19.7459 1.02355 19.7893 1.06546C19.8328 1.10737 19.8571 1.16422 19.8571 1.22349ZM19.3941 1.44698H4.57695V9.69158L6.58421 7.75391C6.60851 7.73032 6.63795 7.71225 6.67039 7.70104C6.70283 7.68983 6.73746 7.68575 6.77174 7.6891L7.29729 7.7405C7.34566 7.74492 7.39137 7.76392 7.42793 7.7948C7.4645 7.82569 7.49007 7.8669 7.50103 7.91259L7.84367 9.36081C7.85698 9.41733 7.84702 9.47663 7.81589 9.5262L7.55659 9.93966H19.3941V1.44698Z" fill="url(#paint0_linear)" stroke="url(#paint1_linear)" stroke-width="0.2"/>
<defs>
<linearGradient id="paint0_linear" x1="1" y1="19" x2="20.7355" y2="17.979" gradientUnits="userSpaceOnUse">
<stop stop-color="#9242AE"/>
<stop offset="1" stop-color="#1976E3"/>
</linearGradient>
<linearGradient id="paint1_linear" x1="1" y1="19" x2="20.7355" y2="17.979" gradientUnits="userSpaceOnUse">
<stop stop-color="#9242AE"/>
<stop offset="1" stop-color="#1976E3"/>
</linearGradient>
</defs>
</svg>
