<svg width="18" height="18" viewBox="0 0 18 18" fill="none" xmlns="http://www.w3.org/2000/svg">
<path d="M3.02201 17.8109H2.65971C2.51964 17.8109 2.4061 17.6973 2.4061 17.5572V17.5209C2.4061 17.4448 2.44026 17.3728 2.49917 17.3246C2.55808 17.2764 2.63558 17.2573 2.7101 17.2724C2.81235 17.2931 2.91727 17.3036 3.02201 17.3036C3.16208 17.3036 3.27562 17.4172 3.27562 17.5572C3.27562 17.6973 3.16208 17.8109 3.02201 17.8109Z" fill="url(#paint0_linear)" stroke="url(#paint1_linear)" stroke-width="0.1"/>
<path d="M12.8042 17.8107H3.02201C2.88195 17.8107 2.7684 17.6972 2.7684 17.5571C2.7684 17.417 2.88195 17.3035 3.02201 17.3035C3.88103 17.3035 4.57991 16.6046 4.57991 15.7456V3.78962C4.57991 3.64956 4.69346 3.53601 4.83352 3.53601H12.8042C12.9442 3.53601 13.0578 3.64956 13.0578 3.78962V17.5571C13.0578 17.6972 12.9442 17.8107 12.8042 17.8107ZM4.37623 17.3035H12.5506V4.04323H5.08713V15.7456C5.08713 16.3667 4.81153 16.9246 4.37623 17.3035Z" fill="url(#paint2_linear)" stroke="url(#paint3_linear)" stroke-width="0.1"/>
<path d="M4.83352 15.9993C4.69346 15.9993 4.57991 15.8858 4.57991 15.7457C4.57991 14.8867 3.88103 14.1878 3.02202 14.1878C2.163 14.1878 1.46412 14.8867 1.46412 15.7457C1.46412 15.8858 1.35057 15.9993 1.21051 15.9993C1.07044 15.9993 0.956894 15.8858 0.956894 15.7457V3.42743C0.956894 2.28871 1.8833 1.3623 3.02202 1.3623C4.16073 1.3623 5.08714 2.28871 5.08714 3.42743V15.7457C5.08714 15.8858 4.97359 15.9993 4.83352 15.9993ZM3.02202 13.6806C3.64307 13.6806 4.20102 13.9562 4.57991 14.3915V3.42743C4.57991 2.56841 3.88103 1.86953 3.02202 1.86953C2.163 1.86953 1.46412 2.56841 1.46412 3.42743V14.3915C1.84301 13.9562 2.40096 13.6806 3.02202 13.6806Z" fill="url(#paint4_linear)" stroke="url(#paint5_linear)" stroke-width="0.1"/>
<path d="M3.02202 17.8108C1.8833 17.8108 0.956894 16.8844 0.956894 15.7457C0.956894 14.6069 1.8833 13.6805 3.02202 13.6805C4.16073 13.6805 5.08714 14.6069 5.08714 15.7457C5.08714 16.8844 4.16073 17.8108 3.02202 17.8108ZM3.02202 14.1878C2.163 14.1878 1.46412 14.8866 1.46412 15.7457C1.46412 16.6047 2.163 17.3036 3.02202 17.3036C3.88103 17.3036 4.57991 16.6047 4.57991 15.7457C4.57991 14.8866 3.88103 14.1878 3.02202 14.1878Z" fill="url(#paint6_linear)" stroke="url(#paint7_linear)" stroke-width="0.1"/>
<path d="M3.02202 16.7239C2.48262 16.7239 2.0438 16.2851 2.0438 15.7457C2.0438 15.6056 2.15735 15.4921 2.29741 15.4921C2.43748 15.4921 2.55102 15.6056 2.55102 15.7457C2.55102 16.0054 2.76232 16.2167 3.02202 16.2167C3.16208 16.2167 3.27563 16.3302 3.27563 16.4703C3.27563 16.6103 3.16208 16.7239 3.02202 16.7239Z" fill="url(#paint8_linear)" stroke="url(#paint9_linear)" stroke-width="0.1"/>
<path d="M9.90575 17.8107C9.76568 17.8107 9.65214 17.6972 9.65214 17.5571V3.78962C9.65214 3.64956 9.76568 3.53601 9.90575 3.53601C10.0458 3.53601 10.1594 3.64956 10.1594 3.78962V17.5571C10.1594 17.6972 10.0458 17.8107 9.90575 17.8107Z" fill="url(#paint10_linear)" stroke="url(#paint11_linear)" stroke-width="0.1"/>
<path d="M11.355 17.8107C11.2149 17.8107 11.1013 17.6972 11.1013 17.5571V3.78962C11.1013 3.64956 11.2149 3.53601 11.355 3.53601C11.495 3.53601 11.6086 3.64956 11.6086 3.78962V17.5571C11.6086 17.6972 11.495 17.8107 11.355 17.8107Z" fill="url(#paint12_linear)" stroke="url(#paint13_linear)" stroke-width="0.1"/>
<path d="M14.6157 15.9993H12.8042C12.6641 15.9993 12.5506 15.8857 12.5506 15.7457C12.5506 15.6056 12.6641 15.4921 12.8042 15.4921H14.6157C14.7557 15.4921 14.8693 15.6056 14.8693 15.7457C14.8693 15.8857 14.7557 15.9993 14.6157 15.9993Z" fill="url(#paint14_linear)" stroke="url(#paint15_linear)" stroke-width="0.1"/>
<path d="M14.6157 17.4485H12.8042C12.6641 17.4485 12.5506 17.335 12.5506 17.1949C12.5506 17.0548 12.6641 16.9413 12.8042 16.9413H14.6157C14.7557 16.9413 14.8693 17.0548 14.8693 17.1949C14.8693 17.335 14.7557 17.4485 14.6157 17.4485Z" fill="url(#paint16_linear)" stroke="url(#paint17_linear)" stroke-width="0.1"/>
<path d="M14.6157 14.5501H12.8042C12.6641 14.5501 12.5506 14.4365 12.5506 14.2965C12.5506 14.1564 12.6641 14.0428 12.8042 14.0428H14.6157C14.7557 14.0428 14.8693 14.1564 14.8693 14.2965C14.8693 14.4365 14.7557 14.5501 14.6157 14.5501Z" fill="url(#paint18_linear)" stroke="url(#paint19_linear)" stroke-width="0.1"/>
<path d="M14.6157 13.101H12.8042C12.6641 13.101 12.5506 12.9874 12.5506 12.8474C12.5506 12.7073 12.6641 12.5938 12.8042 12.5938H14.6157C14.7557 12.5938 14.8693 12.7073 14.8693 12.8474C14.8693 12.9874 14.7557 13.101 14.6157 13.101Z" fill="url(#paint20_linear)" stroke="url(#paint21_linear)" stroke-width="0.1"/>
<path d="M14.6157 11.6516H12.8042C12.6641 11.6516 12.5506 11.5381 12.5506 11.398C12.5506 11.258 12.6641 11.1444 12.8042 11.1444H14.6157C14.7557 11.1444 14.8693 11.258 14.8693 11.398C14.8693 11.5381 14.7557 11.6516 14.6157 11.6516Z" fill="url(#paint22_linear)" stroke="url(#paint23_linear)" stroke-width="0.1"/>
<path d="M14.6157 10.2025H12.8042C12.6641 10.2025 12.5506 10.089 12.5506 9.94892C12.5506 9.80886 12.6641 9.69531 12.8042 9.69531H14.6157C14.7557 9.69531 14.8693 9.80886 14.8693 9.94892C14.8693 10.089 14.7557 10.2025 14.6157 10.2025Z" fill="url(#paint24_linear)" stroke="url(#paint25_linear)" stroke-width="0.1"/>
<path d="M14.6157 8.75332H12.8042C12.6641 8.75332 12.5506 8.63977 12.5506 8.49971C12.5506 8.35964 12.6641 8.24609 12.8042 8.24609H14.6157C14.7557 8.24609 14.8693 8.35964 14.8693 8.49971C14.8693 8.63977 14.7557 8.75332 14.6157 8.75332Z" fill="url(#paint26_linear)" stroke="url(#paint27_linear)" stroke-width="0.1"/>
<path d="M14.6157 7.30398H12.8042C12.6641 7.30398 12.5506 7.19043 12.5506 7.05036C12.5506 6.9103 12.6641 6.79675 12.8042 6.79675H14.6157C14.7557 6.79675 14.8693 6.9103 14.8693 7.05036C14.8693 7.19043 14.7557 7.30398 14.6157 7.30398Z" fill="url(#paint28_linear)" stroke="url(#paint29_linear)" stroke-width="0.1"/>
<path d="M14.6157 5.85488H12.8042C12.6641 5.85488 12.5506 5.74133 12.5506 5.60127C12.5506 5.4612 12.6641 5.34766 12.8042 5.34766H14.6157C14.7557 5.34766 14.8693 5.4612 14.8693 5.60127C14.8693 5.74133 14.7557 5.85488 14.6157 5.85488Z" fill="url(#paint30_linear)" stroke="url(#paint31_linear)" stroke-width="0.1"/>
<path d="M14.6157 4.40566H12.8042C12.6641 4.40566 12.5506 4.29211 12.5506 4.15205C12.5506 4.01198 12.6641 3.89844 12.8042 3.89844H14.6157C14.7557 3.89844 14.8693 4.01198 14.8693 4.15205C14.8693 4.29211 14.7557 4.40566 14.6157 4.40566Z" fill="url(#paint32_linear)" stroke="url(#paint33_linear)" stroke-width="0.1"/>
<path d="M2.65971 7.30406C2.51964 7.30406 2.4061 7.19051 2.4061 7.05045V1.97822C2.4061 1.83815 2.51964 1.72461 2.65971 1.72461C2.79977 1.72461 2.91332 1.83815 2.91332 1.97822V7.05045C2.91332 7.19051 2.79977 7.30406 2.65971 7.30406Z" fill="url(#paint34_linear)" stroke="url(#paint35_linear)" stroke-width="0.1"/>
<path d="M7.06784 15.9993H4.83353C4.69346 15.9993 4.57991 15.8858 4.57991 15.7457V5.60127C4.57991 5.4612 4.69346 5.34766 4.83353 5.34766H7.06784C7.20791 5.34766 7.32145 5.4612 7.32145 5.60127C7.32145 6.02737 7.66814 6.37406 8.09424 6.37406C8.23431 6.37406 8.34785 6.4876 8.34785 6.62767V14.7193C8.34785 14.8594 8.23431 14.9729 8.09424 14.9729C7.66814 14.9729 7.32145 15.3196 7.32145 15.7457C7.32145 15.8858 7.20791 15.9993 7.06784 15.9993ZM5.08714 15.4921H6.83945C6.94089 14.9894 7.33787 14.5924 7.84063 14.4909V6.85606C7.3379 6.75462 6.94093 6.35765 6.83945 5.85488H5.08714V15.4921Z" fill="url(#paint36_linear)" stroke="url(#paint37_linear)" stroke-width="0.1"/>
<path d="M6.64504 14.55H4.83353C4.69346 14.55 4.57991 14.4365 4.57991 14.2964V7.05036C4.57991 6.9103 4.69346 6.79675 4.83353 6.79675H6.64504C6.7851 6.79675 6.89865 6.9103 6.89865 7.05036V14.2964C6.89865 14.4365 6.7851 14.55 6.64504 14.55ZM5.08714 14.0428H6.39142V7.30398H5.08714V14.0428Z" fill="url(#paint38_linear)" stroke="url(#paint39_linear)" stroke-width="0.1"/>
<path d="M2.65971 8.75319C2.51964 8.75319 2.4061 8.63965 2.4061 8.49958V8.13728C2.4061 7.99721 2.51964 7.88367 2.65971 7.88367C2.79977 7.88367 2.91332 7.99721 2.91332 8.13728V8.49958C2.91332 8.63965 2.79977 8.75319 2.65971 8.75319Z" fill="url(#paint40_linear)" stroke="url(#paint41_linear)" stroke-width="0.1"/>
<path d="M16.7895 2.59414H8.45655C8.31648 2.59414 8.20293 2.48059 8.20293 2.34053C8.20293 2.20046 8.31648 2.08691 8.45655 2.08691H16.7895C16.9296 2.08691 17.0431 2.20046 17.0431 2.34053C17.0431 2.48059 16.9296 2.59414 16.7895 2.59414Z" fill="url(#paint42_linear)" stroke="url(#paint43_linear)" stroke-width="0.1"/>
<path d="M9.90575 1.50722H7.00734C6.86727 1.50722 6.75373 1.39368 6.75373 1.25361C6.75373 1.11355 6.86727 1 7.00734 1H9.90575C10.0458 1 10.1594 1.11355 10.1594 1.25361C10.1594 1.39368 10.0458 1.50722 9.90575 1.50722Z" fill="url(#paint44_linear)" stroke="url(#paint45_linear)" stroke-width="0.1"/>
<defs>
<linearGradient id="paint0_linear" x1="2.4061" y1="17.8109" x2="3.3129" y2="17.7392" gradientUnits="userSpaceOnUse">
<stop stop-color="#9242AE"/>
<stop offset="1" stop-color="#1976E3"/>
</linearGradient>
<linearGradient id="paint1_linear" x1="2.4061" y1="17.8109" x2="3.3129" y2="17.7392" gradientUnits="userSpaceOnUse">
<stop stop-color="#9242AE"/>
<stop offset="1" stop-color="#1976E3"/>
</linearGradient>
<linearGradient id="paint2_linear" x1="2.7684" y1="17.8107" x2="13.5522" y2="17.4268" gradientUnits="userSpaceOnUse">
<stop stop-color="#9242AE"/>
<stop offset="1" stop-color="#1976E3"/>
</linearGradient>
<linearGradient id="paint3_linear" x1="2.7684" y1="17.8107" x2="13.5522" y2="17.4268" gradientUnits="userSpaceOnUse">
<stop stop-color="#9242AE"/>
<stop offset="1" stop-color="#1976E3"/>
</linearGradient>
<linearGradient id="paint4_linear" x1="0.956894" y1="15.9993" x2="5.29026" y2="15.9389" gradientUnits="userSpaceOnUse">
<stop stop-color="#9242AE"/>
<stop offset="1" stop-color="#1976E3"/>
</linearGradient>
<linearGradient id="paint5_linear" x1="0.956894" y1="15.9993" x2="5.29026" y2="15.9389" gradientUnits="userSpaceOnUse">
<stop stop-color="#9242AE"/>
<stop offset="1" stop-color="#1976E3"/>
</linearGradient>
<linearGradient id="paint6_linear" x1="0.956894" y1="17.8108" x2="5.28055" y2="17.5973" gradientUnits="userSpaceOnUse">
<stop stop-color="#9242AE"/>
<stop offset="1" stop-color="#1976E3"/>
</linearGradient>
<linearGradient id="paint7_linear" x1="0.956894" y1="17.8108" x2="5.28055" y2="17.5973" gradientUnits="userSpaceOnUse">
<stop stop-color="#9242AE"/>
<stop offset="1" stop-color="#1976E3"/>
</linearGradient>
<linearGradient id="paint8_linear" x1="2.0438" y1="16.7239" x2="3.33331" y2="16.6602" gradientUnits="userSpaceOnUse">
<stop stop-color="#9242AE"/>
<stop offset="1" stop-color="#1976E3"/>
</linearGradient>
<linearGradient id="paint9_linear" x1="2.0438" y1="16.7239" x2="3.33331" y2="16.6602" gradientUnits="userSpaceOnUse">
<stop stop-color="#9242AE"/>
<stop offset="1" stop-color="#1976E3"/>
</linearGradient>
<linearGradient id="paint10_linear" x1="9.65214" y1="17.8107" x2="10.1844" y2="17.8098" gradientUnits="userSpaceOnUse">
<stop stop-color="#9242AE"/>
<stop offset="1" stop-color="#1976E3"/>
</linearGradient>
<linearGradient id="paint11_linear" x1="9.65214" y1="17.8107" x2="10.1844" y2="17.8098" gradientUnits="userSpaceOnUse">
<stop stop-color="#9242AE"/>
<stop offset="1" stop-color="#1976E3"/>
</linearGradient>
<linearGradient id="paint12_linear" x1="11.1013" y1="17.8107" x2="11.6336" y2="17.8098" gradientUnits="userSpaceOnUse">
<stop stop-color="#9242AE"/>
<stop offset="1" stop-color="#1976E3"/>
</linearGradient>
<linearGradient id="paint13_linear" x1="11.1013" y1="17.8107" x2="11.6336" y2="17.8098" gradientUnits="userSpaceOnUse">
<stop stop-color="#9242AE"/>
<stop offset="1" stop-color="#1976E3"/>
</linearGradient>
<linearGradient id="paint14_linear" x1="12.5506" y1="15.9993" x2="14.8658" y2="15.4766" gradientUnits="userSpaceOnUse">
<stop stop-color="#9242AE"/>
<stop offset="1" stop-color="#1976E3"/>
</linearGradient>
<linearGradient id="paint15_linear" x1="12.5506" y1="15.9993" x2="14.8658" y2="15.4766" gradientUnits="userSpaceOnUse">
<stop stop-color="#9242AE"/>
<stop offset="1" stop-color="#1976E3"/>
</linearGradient>
<linearGradient id="paint16_linear" x1="12.5506" y1="17.4485" x2="14.8658" y2="16.9258" gradientUnits="userSpaceOnUse">
<stop stop-color="#9242AE"/>
<stop offset="1" stop-color="#1976E3"/>
</linearGradient>
<linearGradient id="paint17_linear" x1="12.5506" y1="17.4485" x2="14.8658" y2="16.9258" gradientUnits="userSpaceOnUse">
<stop stop-color="#9242AE"/>
<stop offset="1" stop-color="#1976E3"/>
</linearGradient>
<linearGradient id="paint18_linear" x1="12.5506" y1="14.5501" x2="14.8658" y2="14.0274" gradientUnits="userSpaceOnUse">
<stop stop-color="#9242AE"/>
<stop offset="1" stop-color="#1976E3"/>
</linearGradient>
<linearGradient id="paint19_linear" x1="12.5506" y1="14.5501" x2="14.8658" y2="14.0274" gradientUnits="userSpaceOnUse">
<stop stop-color="#9242AE"/>
<stop offset="1" stop-color="#1976E3"/>
</linearGradient>
<linearGradient id="paint20_linear" x1="12.5506" y1="13.101" x2="14.8658" y2="12.5783" gradientUnits="userSpaceOnUse">
<stop stop-color="#9242AE"/>
<stop offset="1" stop-color="#1976E3"/>
</linearGradient>
<linearGradient id="paint21_linear" x1="12.5506" y1="13.101" x2="14.8658" y2="12.5783" gradientUnits="userSpaceOnUse">
<stop stop-color="#9242AE"/>
<stop offset="1" stop-color="#1976E3"/>
</linearGradient>
<linearGradient id="paint22_linear" x1="12.5506" y1="11.6516" x2="14.8658" y2="11.129" gradientUnits="userSpaceOnUse">
<stop stop-color="#9242AE"/>
<stop offset="1" stop-color="#1976E3"/>
</linearGradient>
<linearGradient id="paint23_linear" x1="12.5506" y1="11.6516" x2="14.8658" y2="11.129" gradientUnits="userSpaceOnUse">
<stop stop-color="#9242AE"/>
<stop offset="1" stop-color="#1976E3"/>
</linearGradient>
<linearGradient id="paint24_linear" x1="12.5506" y1="10.2025" x2="14.8658" y2="9.67987" gradientUnits="userSpaceOnUse">
<stop stop-color="#9242AE"/>
<stop offset="1" stop-color="#1976E3"/>
</linearGradient>
<linearGradient id="paint25_linear" x1="12.5506" y1="10.2025" x2="14.8658" y2="9.67987" gradientUnits="userSpaceOnUse">
<stop stop-color="#9242AE"/>
<stop offset="1" stop-color="#1976E3"/>
</linearGradient>
<linearGradient id="paint26_linear" x1="12.5506" y1="8.75332" x2="14.8658" y2="8.23065" gradientUnits="userSpaceOnUse">
<stop stop-color="#9242AE"/>
<stop offset="1" stop-color="#1976E3"/>
</linearGradient>
<linearGradient id="paint27_linear" x1="12.5506" y1="8.75332" x2="14.8658" y2="8.23065" gradientUnits="userSpaceOnUse">
<stop stop-color="#9242AE"/>
<stop offset="1" stop-color="#1976E3"/>
</linearGradient>
<linearGradient id="paint28_linear" x1="12.5506" y1="7.30398" x2="14.8658" y2="6.78131" gradientUnits="userSpaceOnUse">
<stop stop-color="#9242AE"/>
<stop offset="1" stop-color="#1976E3"/>
</linearGradient>
<linearGradient id="paint29_linear" x1="12.5506" y1="7.30398" x2="14.8658" y2="6.78131" gradientUnits="userSpaceOnUse">
<stop stop-color="#9242AE"/>
<stop offset="1" stop-color="#1976E3"/>
</linearGradient>
<linearGradient id="paint30_linear" x1="12.5506" y1="5.85488" x2="14.8658" y2="5.33221" gradientUnits="userSpaceOnUse">
<stop stop-color="#9242AE"/>
<stop offset="1" stop-color="#1976E3"/>
</linearGradient>
<linearGradient id="paint31_linear" x1="12.5506" y1="5.85488" x2="14.8658" y2="5.33221" gradientUnits="userSpaceOnUse">
<stop stop-color="#9242AE"/>
<stop offset="1" stop-color="#1976E3"/>
</linearGradient>
<linearGradient id="paint32_linear" x1="12.5506" y1="4.40566" x2="14.8658" y2="3.88299" gradientUnits="userSpaceOnUse">
<stop stop-color="#9242AE"/>
<stop offset="1" stop-color="#1976E3"/>
</linearGradient>
<linearGradient id="paint33_linear" x1="12.5506" y1="4.40566" x2="14.8658" y2="3.88299" gradientUnits="userSpaceOnUse">
<stop stop-color="#9242AE"/>
<stop offset="1" stop-color="#1976E3"/>
</linearGradient>
<linearGradient id="paint34_linear" x1="2.4061" y1="7.30406" x2="2.93836" y2="7.30167" gradientUnits="userSpaceOnUse">
<stop stop-color="#9242AE"/>
<stop offset="1" stop-color="#1976E3"/>
</linearGradient>
<linearGradient id="paint35_linear" x1="2.4061" y1="7.30406" x2="2.93836" y2="7.30167" gradientUnits="userSpaceOnUse">
<stop stop-color="#9242AE"/>
<stop offset="1" stop-color="#1976E3"/>
</linearGradient>
<linearGradient id="paint36_linear" x1="4.57991" y1="15.9993" x2="8.53272" y2="15.9303" gradientUnits="userSpaceOnUse">
<stop stop-color="#9242AE"/>
<stop offset="1" stop-color="#1976E3"/>
</linearGradient>
<linearGradient id="paint37_linear" x1="4.57991" y1="15.9993" x2="8.53272" y2="15.9303" gradientUnits="userSpaceOnUse">
<stop stop-color="#9242AE"/>
<stop offset="1" stop-color="#1976E3"/>
</linearGradient>
<linearGradient id="paint38_linear" x1="4.57991" y1="14.55" x2="7.01262" y2="14.5141" gradientUnits="userSpaceOnUse">
<stop stop-color="#9242AE"/>
<stop offset="1" stop-color="#1976E3"/>
</linearGradient>
<linearGradient id="paint39_linear" x1="4.57991" y1="14.55" x2="7.01262" y2="14.5141" gradientUnits="userSpaceOnUse">
<stop stop-color="#9242AE"/>
<stop offset="1" stop-color="#1976E3"/>
</linearGradient>
<linearGradient id="paint40_linear" x1="2.4061" y1="8.75319" x2="2.93793" y2="8.73787" gradientUnits="userSpaceOnUse">
<stop stop-color="#9242AE"/>
<stop offset="1" stop-color="#1976E3"/>
</linearGradient>
<linearGradient id="paint41_linear" x1="2.4061" y1="8.75319" x2="2.93793" y2="8.73787" gradientUnits="userSpaceOnUse">
<stop stop-color="#9242AE"/>
<stop offset="1" stop-color="#1976E3"/>
</linearGradient>
<linearGradient id="paint42_linear" x1="8.20293" y1="2.59414" x2="13.5321" y2="-1.9925" gradientUnits="userSpaceOnUse">
<stop stop-color="#9242AE"/>
<stop offset="1" stop-color="#1976E3"/>
</linearGradient>
<linearGradient id="paint43_linear" x1="8.20293" y1="2.59414" x2="13.5321" y2="-1.9925" gradientUnits="userSpaceOnUse">
<stop stop-color="#9242AE"/>
<stop offset="1" stop-color="#1976E3"/>
</linearGradient>
<linearGradient id="paint44_linear" x1="6.75373" y1="1.50722" x2="9.97356" y2="0.439623" gradientUnits="userSpaceOnUse">
<stop stop-color="#9242AE"/>
<stop offset="1" stop-color="#1976E3"/>
</linearGradient>
<linearGradient id="paint45_linear" x1="6.75373" y1="1.50722" x2="9.97356" y2="0.439623" gradientUnits="userSpaceOnUse">
<stop stop-color="#9242AE"/>
<stop offset="1" stop-color="#1976E3"/>
</linearGradient>
</defs>
</svg>
