<svg width="17" height="18" viewBox="0 0 17 18" fill="none" xmlns="http://www.w3.org/2000/svg">
<path d="M0.281095 17.9878H1.38158C1.39001 17.9887 1.39732 17.9929 1.40604 17.9929C1.41475 17.9929 1.42206 17.9887 1.43049 17.9878H3.35037C3.3588 17.9887 3.36611 17.9929 3.37482 17.9929C3.38354 17.9929 3.39085 17.9887 3.39928 17.9878H5.03413C5.04256 17.9887 5.04987 17.9929 5.05858 17.9929H12.3687C12.3774 17.9929 12.3848 17.9887 12.3932 17.9878H16.5857C16.7412 17.9878 16.8668 17.8622 16.8668 17.7067C16.8668 17.5513 16.7412 17.4256 16.5857 17.4256H12.6498V14.8778C14.8435 14.7316 16.5846 12.9056 16.5846 10.6757V9.55469C16.5846 9.39925 16.4589 9.2736 16.3035 9.2736H16.2748C16.1441 8.63298 15.5766 8.1495 14.898 8.1495H8.71337C8.03509 8.1495 7.46728 8.63298 7.33713 9.2736H7.02793V0.838224C7.02793 0.836257 7.02681 0.834851 7.02681 0.832884C7.02118 0.372732 6.6462 0 6.18465 0H4.49751C4.03258 0 3.65423 0.378353 3.65423 0.843284V4.52253C2.70216 4.65971 1.96766 5.47825 1.96766 6.46771V9.28034C1.96766 9.48751 1.85382 9.66685 1.68657 9.76467V9.56144C1.68657 9.40599 1.56092 9.28034 1.40547 9.28034H0.562189V0.283343C0.562189 0.128179 0.43654 0.00224876 0.281095 0.00224876C0.125649 0.00224876 0 0.128179 0 0.283343V17.7067C0 17.8622 0.125649 17.9878 0.281095 17.9878ZM8.71337 8.71141H14.898C15.264 8.71141 15.5729 8.94696 15.6893 9.27331H7.92265C8.03875 8.94696 8.34767 8.71141 8.71337 8.71141ZM7.02793 9.8355H16.0224V10.3943H7.02793V9.8355ZM7.02793 10.9568H16.0081C15.8636 12.8396 14.2897 14.3285 12.371 14.3296C12.3701 14.3296 12.3696 14.3294 12.3687 14.3294H10.1205C9.96509 14.3294 9.83944 14.455 9.83944 14.6105C9.83944 14.7659 9.96509 14.8916 10.1205 14.8916H12.0876V17.4259H7.02793V10.9568ZM4.78086 17.4256H3.65592V16.8626C3.65592 16.5525 3.90806 16.3004 4.21811 16.3004H4.78086V17.4256ZM4.78086 15.7382H4.21811C3.59801 15.7382 3.09373 16.2425 3.09373 16.8626V17.4256H1.68713V16.8707C1.68713 16.8677 1.68882 16.8654 1.68882 16.8626C1.68882 15.4675 2.8236 14.3327 4.21867 14.3327C4.21979 14.3327 4.22036 14.3322 4.22148 14.3322H4.78086V15.7382ZM6.46574 10.6512C6.4649 10.6597 6.46068 10.667 6.46068 10.6757C6.46068 10.6844 6.4649 10.6914 6.46574 10.7002V17.4259H5.34305V9.8355H6.46574V10.6512ZM4.21642 0.843284C4.21642 0.688401 4.34235 0.562189 4.49751 0.562189H6.18465C6.33981 0.562189 6.46574 0.688401 6.46574 0.843284V1.13028H4.21642V0.843284ZM4.21642 1.69247H6.46574V9.2736H4.49976C4.49808 9.2736 4.49667 9.27444 4.49499 9.27444C4.34095 9.27163 4.21642 9.14654 4.21642 8.99222V1.69247ZM1.68657 10.3651C2.17033 10.2394 2.52985 9.80262 2.52985 9.28034V6.46771C2.52985 5.78886 3.01362 5.22133 3.65423 5.09062V5.38324C3.17047 5.50889 2.81095 5.94543 2.81095 6.46771V9.28034C2.81095 9.95947 2.32718 10.5276 1.68657 10.658V10.3651ZM0.562189 9.84253H1.12438V11.2491H0.562189V9.84253ZM0.562189 11.8113H1.40547C1.56092 11.8113 1.68657 11.6857 1.68657 11.5302V11.2264C2.63864 11.0892 3.37314 10.2701 3.37314 9.28034V6.46771C3.37314 6.26054 3.48698 6.0812 3.65423 5.98366V8.99194C3.65423 9.45799 4.03371 9.83747 4.49976 9.83747C4.50314 9.83747 4.50567 9.8355 4.50932 9.8355H4.78086V13.77H4.21811C4.2167 13.77 4.21558 13.7708 4.21417 13.7708C2.51495 13.7734 1.13309 15.1533 1.12719 16.8516C1.12691 16.8556 1.12494 16.8589 1.12494 16.8626V17.4256H0.562189V11.8113Z" fill="url(#paint0_linear)"/>
<defs>
<linearGradient id="paint0_linear" x1="-6.28337e-08" y1="17.9929" x2="17.6619" y2="17.1753" gradientUnits="userSpaceOnUse">
<stop stop-color="#9242AE"/>
<stop offset="1" stop-color="#1976E3"/>
</linearGradient>
</defs>
</svg>
