<svg width="18" height="23" viewBox="0 0 18 23" fill="none" xmlns="http://www.w3.org/2000/svg">
<path d="M14.035 5.72292C16.1772 6.06443 16.1657 8.50893 16.1527 11.1343C16.1488 11.924 16.1446 12.7305 16.2014 13.5023C16.2827 14.6084 16.4331 15.0081 16.7369 15.8168C16.7798 15.9309 16.8258 16.054 16.8918 16.2329C16.9912 16.503 17.0107 16.763 16.9689 17.0051C16.9144 17.3214 16.7564 17.6047 16.5343 17.8376C16.3168 18.0658 16.0368 18.2454 15.7338 18.3595C15.4626 18.4616 15.1723 18.5113 14.8904 18.4961C15.1309 19.8913 14.8578 20.4835 14.8183 20.5661C14.6353 21.106 14.363 21.4913 14.035 21.7517C13.6802 22.0335 13.2637 22.1674 12.8252 22.1922C12.396 22.2166 11.9469 22.1359 11.5165 21.9877C10.6711 21.6966 9.89019 21.1401 9.47671 20.6073C9.13725 20.1699 9.14262 19.9639 9.15298 19.5315C9.15413 19.4803 9.15566 19.426 9.15643 19.3724L9.25155 12.3156C9.25577 11.8732 9.23775 11.4552 9.22048 11.0598C9.15528 9.5614 9.10426 8.3797 10.2983 7.11534C10.5453 6.85378 10.7835 6.57126 10.9312 6.27399C10.9692 6.19754 11.0014 6.11953 11.0259 6.04075L9.31446 4.82529C9.27112 4.79463 9.26076 4.73409 9.29106 4.69024C9.32136 4.64639 9.3812 4.63591 9.42454 4.66657L11.072 5.83662C11.09 5.70429 11.085 5.56924 11.0509 5.43147L9.28185 4.17487C9.21281 4.12559 9.19594 4.02895 9.24465 3.9591C9.29336 3.88925 9.38887 3.87217 9.45791 3.92146L11.2714 5.20949V5.20988C11.2983 5.22889 11.3194 5.25722 11.3297 5.29137C11.4498 5.68993 11.3777 6.06404 11.2047 6.41214C11.0394 6.74512 10.7835 7.05015 10.52 7.32879C9.43912 8.47284 9.46251 9.57382 9.52197 10.9554C9.58449 10.7578 9.64663 10.5976 9.69496 10.504C9.87446 10.1575 10.1 9.88739 10.5073 9.56412C10.9013 9.25172 11.4686 8.88731 12.3404 8.34555C12.528 8.22913 12.7282 8.09097 12.9112 7.92293C13.0918 7.75723 13.2575 7.56163 13.3806 7.32801C13.5463 7.01405 13.6522 6.71911 13.7059 6.44319C13.8076 5.92355 13.7205 5.47377 13.4961 5.09384C13.2671 4.70693 12.8947 4.38793 12.4306 4.13762C11.9906 3.9005 11.4686 3.72548 10.9078 3.61332C10.8246 3.59702 10.7705 3.51553 10.7866 3.43131C10.8027 3.3471 10.8832 3.29238 10.9665 3.30868C11.5545 3.42627 12.1053 3.61177 12.5744 3.8648C13.0861 4.14072 13.4999 4.49736 13.7588 4.93512C13.9008 5.17495 13.9959 5.43729 14.035 5.72214V5.72292ZM1.78428 16.5953C1.749 16.5557 1.75206 16.4948 1.79119 16.4587C1.83031 16.423 1.89053 16.4261 1.9262 16.4657L2.21043 16.7839C2.24571 16.8235 2.24265 16.8844 2.20352 16.9205C2.1644 16.9562 2.10418 16.9531 2.06851 16.9136L1.78428 16.5953ZM15.9931 16.4657C16.0284 16.4261 16.089 16.423 16.1281 16.4587C16.1673 16.4944 16.1703 16.5557 16.135 16.5953L15.8508 16.9136C15.8155 16.9531 15.7549 16.9562 15.7158 16.9205C15.6767 16.8848 15.6736 16.8235 15.7089 16.7839L15.9931 16.4657ZM3.93456 6.04075C2.11952 6.38886 2.13064 8.67736 2.14292 11.1331C2.14675 11.9333 2.15097 12.751 2.09421 13.5245C2.00944 14.6759 1.85409 15.0892 1.53957 15.9263C1.48702 16.0664 1.43025 16.2173 1.38461 16.3411C1.30559 16.5557 1.28987 16.7618 1.32285 16.9535C1.3662 17.205 1.49469 17.4336 1.67612 17.6233C1.86176 17.8182 2.10188 17.9718 2.3627 18.07C2.62007 18.1667 2.89663 18.2086 3.16052 18.181C3.24567 17.7766 3.37148 17.3137 3.55214 16.7863C4.10409 15.1738 4.07072 12.6711 4.05154 11.241C4.04809 10.9903 4.04541 10.7726 4.04617 10.596C4.04656 10.5106 4.11522 10.4416 4.1996 10.442C4.28399 10.4423 4.35226 10.5118 4.35188 10.5972C4.35111 10.7699 4.35418 10.9876 4.35725 11.2375C4.37681 12.687 4.41056 15.2235 3.84097 16.8872C3.65072 17.4425 3.52299 17.9198 3.43976 18.3285C3.43899 18.3436 3.43592 18.3584 3.43093 18.3723C3.14671 19.8059 3.41713 20.3698 3.44858 20.4358C3.4528 20.4447 3.45548 20.4501 3.45893 20.4598C3.62118 20.9426 3.85938 21.2829 4.14437 21.5092C4.44585 21.7486 4.80333 21.8627 5.18153 21.8841C5.56893 21.9062 5.97935 21.8317 6.37519 21.6955C7.16495 21.4234 7.89104 20.9084 8.27231 20.4167C8.54426 20.0663 8.54004 19.8963 8.53122 19.5397C8.53007 19.4908 8.52853 19.4384 8.52776 19.3771L8.43532 12.5069C8.43494 12.5019 8.43456 12.4964 8.43456 12.491C8.43532 12.2108 8.38508 11.8806 8.31642 11.5724C8.22475 11.1626 8.10239 10.7998 8.02414 10.648C7.8665 10.3438 7.66359 10.1028 7.29345 9.80861C6.9095 9.50397 6.35064 9.14499 5.4903 8.611C5.29046 8.4872 5.07567 8.33818 4.87391 8.15307C4.66947 7.96562 4.48114 7.74287 4.3396 7.47432C4.15856 7.13048 4.04234 6.80682 3.98289 6.50334C3.95182 6.34384 3.93609 6.18939 3.93494 6.04075H3.93456ZM1.83722 11.1343C1.82417 8.50855 1.81267 6.06443 3.95489 5.72292C3.99401 5.43807 4.08913 5.17573 4.23105 4.93589C4.48996 4.49853 4.90383 4.14188 5.41551 3.86557C5.88422 3.61255 6.43541 3.42704 7.02342 3.30946C7.10665 3.29316 7.18682 3.34788 7.20331 3.43209C7.21942 3.5163 7.16534 3.59741 7.0821 3.6141C6.52133 3.72625 5.99929 3.90128 5.55934 4.13839C5.09523 4.3887 4.7224 4.7077 4.4938 5.09462C4.26903 5.47416 4.18234 5.92394 4.28399 6.44397C4.33768 6.7195 4.44393 7.01444 4.60925 7.32879C4.73237 7.5628 4.89846 7.75839 5.07873 7.92371C5.26208 8.09175 5.4623 8.23029 5.64948 8.34633C6.52133 8.8877 7.08901 9.2521 7.48255 9.5649C7.88989 9.88816 8.11543 10.1583 8.29494 10.5048C8.34327 10.5983 8.40541 10.7586 8.46793 10.9562C8.52738 9.5746 8.55078 8.47362 7.46989 7.32956C7.20638 7.05092 6.95092 6.74589 6.78522 6.41292C6.61223 6.06481 6.54012 5.69109 6.66018 5.29215C6.67054 5.25761 6.69163 5.22967 6.71848 5.21065V5.21027L8.53198 3.92223C8.60102 3.87295 8.69653 3.89002 8.74525 3.95988C8.79396 4.02973 8.77708 4.12636 8.70804 4.17565L6.93865 5.43225C6.90221 5.57816 6.89876 5.72136 6.921 5.86146L8.60218 4.66773C8.64552 4.63707 8.70497 4.64755 8.73566 4.6914C8.76596 4.73526 8.7556 4.79541 8.71226 4.82646L6.97048 6.06326C6.99427 6.13467 7.0238 6.2053 7.05832 6.27515C7.20599 6.57242 7.44419 6.85494 7.69121 7.11651C8.88525 8.38048 8.83423 9.56257 8.76903 11.0609C8.75177 11.4564 8.73374 11.8744 8.73796 12.3168L8.83308 19.3736C8.83385 19.4271 8.835 19.4815 8.83653 19.5327C8.84727 19.965 8.85226 20.1711 8.5128 20.6084C8.09932 21.1413 7.31838 21.6978 6.473 21.9888C6.04264 22.1371 5.5931 22.2178 5.16427 22.1934C4.72585 22.1685 4.30892 22.0346 3.9545 21.7529C3.62617 21.4921 3.35422 21.1071 3.17126 20.5673C3.13175 20.4847 2.85865 19.8921 3.09915 18.4973C2.81723 18.5124 2.52648 18.4624 2.25569 18.3607C1.95267 18.2466 1.67267 18.0669 1.45518 17.8387C1.2331 17.6059 1.07507 17.3226 1.0206 17.0063C0.978794 16.7641 0.99874 16.5037 1.0977 16.234C1.16329 16.0551 1.2097 15.9321 1.25266 15.818C1.55645 15.0093 1.7068 14.6099 1.78812 13.5035C1.84489 12.7316 1.84105 11.9252 1.83683 11.1354L1.83722 11.1343ZM8.4802 2.08468C8.4802 2.17045 8.41154 2.23991 8.32677 2.23991C8.24201 2.23991 8.17335 2.17045 8.17335 2.08468C8.17335 1.78508 8.2934 1.51382 8.48749 1.31784C8.68157 1.12147 8.94969 1 9.24542 1C9.54153 1 9.80964 1.12147 10.0033 1.31784C10.1974 1.5142 10.3175 1.78547 10.3175 2.08468C10.3175 2.26436 10.2753 2.44016 10.1986 2.595C10.1215 2.75101 10.0091 2.8849 9.86948 2.97998C9.83726 3.00171 9.80312 3.02267 9.76553 3.04168C9.72602 3.06147 9.68575 3.07855 9.64394 3.09019C9.54652 3.11813 9.44756 3.17208 9.36049 3.26405C9.28301 3.34594 9.21396 3.4577 9.16295 3.6075C9.13533 3.68822 9.04865 3.73091 8.96886 3.70336C8.88908 3.67541 8.84689 3.58771 8.87412 3.50699C8.94125 3.31101 9.03407 3.1616 9.13994 3.04944C9.26881 2.91362 9.4161 2.83328 9.56147 2.79176C9.58564 2.78477 9.60827 2.77585 9.62937 2.76498C9.65238 2.75334 9.67616 2.73859 9.69956 2.72268C9.79468 2.65787 9.87178 2.56512 9.92586 2.45646C9.9811 2.34547 10.0114 2.21701 10.0114 2.08429C10.0114 1.87046 9.92586 1.67681 9.7874 1.53671C9.64893 1.39662 9.45753 1.31007 9.24618 1.31007C9.03484 1.31007 8.84344 1.39662 8.70497 1.53671C8.5665 1.67681 8.48097 1.87046 8.48097 2.08429L8.4802 2.08468ZM15.8466 11.1331C15.8589 8.67736 15.8696 6.38886 14.055 6.04075C14.0538 6.18939 14.0381 6.34345 14.007 6.50334C13.9476 6.80682 13.8313 7.13048 13.6503 7.47432C13.5088 7.74287 13.3204 7.96562 13.116 8.15307C12.9142 8.33818 12.699 8.4872 12.4996 8.611C11.6393 9.14499 11.0804 9.50397 10.6964 9.80861C10.3259 10.1028 10.123 10.3434 9.96575 10.648C9.88712 10.7998 9.76515 11.1626 9.67348 11.5724C9.60482 11.8802 9.55457 12.2104 9.55534 12.491C9.55534 12.4964 9.55495 12.5015 9.55457 12.5069L9.46213 19.3771C9.46136 19.4388 9.45983 19.4908 9.45868 19.5397C9.44986 19.8963 9.44564 20.0663 9.71759 20.4167C10.0989 20.9084 10.8249 21.423 11.6147 21.6955C12.0109 21.8321 12.421 21.9062 12.8084 21.8841C13.1866 21.8623 13.544 21.7486 13.8455 21.5092C14.1305 21.2829 14.3687 20.9426 14.531 20.4598C14.5344 20.4501 14.5367 20.4447 14.5413 20.4358C14.5728 20.3702 14.8436 19.8059 14.559 18.3723C14.554 18.3584 14.5509 18.3436 14.5501 18.3285C14.4669 17.9202 14.3392 17.4425 14.1489 16.8872C13.5793 15.2235 13.6135 12.687 13.6326 11.2375C13.6361 10.9876 13.6388 10.7703 13.638 10.5972C13.6376 10.5118 13.7059 10.4423 13.7903 10.442C13.8747 10.4416 13.9433 10.5106 13.9437 10.596C13.9445 10.7726 13.9414 10.9907 13.9384 11.241C13.9192 12.6711 13.8858 15.1738 14.4378 16.7863C14.6184 17.314 14.7442 17.7766 14.8294 18.181C15.0929 18.2086 15.3698 18.1667 15.6272 18.07C15.888 17.9718 16.1281 17.8178 16.3138 17.6233C16.4952 17.4332 16.6237 17.205 16.667 16.9535C16.7 16.7622 16.6843 16.5557 16.6053 16.3411C16.56 16.2177 16.5033 16.0664 16.4503 15.9263C16.1358 15.0892 15.9805 14.6759 15.8957 13.5245C15.8389 12.751 15.8428 11.9337 15.847 11.1331H15.8466Z" fill="url(#paint0_linear)" stroke="url(#paint1_linear)" stroke-width="0.3"/>
<defs>
<linearGradient id="paint0_linear" x1="1" y1="22.1977" x2="17.756" y2="21.5735" gradientUnits="userSpaceOnUse">
<stop stop-color="#9242AE"/>
<stop offset="1" stop-color="#1976E3"/>
</linearGradient>
<linearGradient id="paint1_linear" x1="1" y1="22.1977" x2="17.756" y2="21.5735" gradientUnits="userSpaceOnUse">
<stop stop-color="#9242AE"/>
<stop offset="1" stop-color="#1976E3"/>
</linearGradient>
</defs>
</svg>
