<svg width="40" height="40" viewBox="0 0 40 40" fill="none" xmlns="http://www.w3.org/2000/svg">
<path d="M13.9483 13.5245C14.1196 13.6966 14.3795 13.7452 14.6015 13.6466L19.9999 11.2473L25.3982 13.6466C25.4747 13.6806 25.5557 13.6971 25.636 13.697C25.7889 13.697 25.9392 13.6373 26.0514 13.5245C26.2228 13.3523 26.2702 13.0922 26.1705 12.8706L20.5342 0.345469C20.4396 0.135234 20.2304 0 19.9999 0C19.7693 0 19.5602 0.135234 19.4656 0.345469L13.8292 12.8707C13.7295 13.0923 13.7769 13.3523 13.9483 13.5245ZM20.5858 10.2253V3.31586L24.4724 11.9527L20.5858 10.2253ZM19.4139 3.31586V10.2253L15.5274 11.9527L19.4139 3.31586Z" fill="#353F58"/>
<path d="M24.4207 4.28224C30.601 6.01677 35.2032 11.2368 36.1453 17.5808C36.1885 17.8718 36.4386 18.0808 36.7242 18.0808C36.7527 18.0808 36.7818 18.0786 36.811 18.0743C37.131 18.0268 37.352 17.7287 37.3045 17.4086C36.2946 10.6084 31.3617 5.0131 24.7374 3.15396C24.4259 3.06669 24.1024 3.24826 24.0149 3.55982C23.9274 3.8713 24.1092 4.19474 24.4207 4.28224Z" fill="#8494A7"/>
<path d="M4.34352 20.5857C4.66711 20.5857 4.92945 20.3234 4.92945 19.9998C4.92945 19.6762 4.66711 19.4138 4.34352 19.4138H3.68813C3.94328 12.2796 8.83797 6.08555 15.7677 4.23055C16.0803 4.14688 16.2659 3.82563 16.1823 3.51297C16.0986 3.20032 15.7772 3.01477 15.4647 3.09844C8.02336 5.09055 2.77148 11.7499 2.5157 19.4138H0.585938C0.262344 19.4138 0 19.6762 0 19.9998C0 20.3234 0.262344 20.5857 0.585938 20.5857H4.34352Z" fill="#8494A7"/>
<path d="M39.414 19.4141H35.6564C35.3328 19.4141 35.0705 19.6764 35.0705 20C35.0705 20.3236 35.3328 20.5859 35.6564 20.5859H36.3113C36.0085 29.1215 29.1214 36.0087 20.5859 36.3114V35.6565C20.5859 35.3329 20.3235 35.0705 19.9999 35.0705C19.6763 35.0705 19.414 35.3329 19.414 35.6565V36.3116C15.6868 36.1779 12.1127 34.7736 9.29321 32.3214C6.35501 29.766 4.4236 26.2492 3.85478 22.419C3.80728 22.0989 3.50899 21.8776 3.18915 21.9255C2.86907 21.973 2.64814 22.271 2.69564 22.5911C3.30548 26.6974 5.3754 30.4671 8.52415 33.2056C11.557 35.8434 15.4041 37.3499 19.414 37.4841V39.4141C19.414 39.7377 19.6763 40 19.9999 40C20.3235 40 20.5859 39.7377 20.5859 39.4141V37.4842C25.0392 37.3386 29.2049 35.5366 32.3707 32.3708C35.5366 29.205 37.3385 25.0393 37.4841 20.5859H39.414C39.7376 20.5859 39.9999 20.3236 39.9999 20C39.9999 19.6764 39.7376 19.4141 39.414 19.4141Z" fill="#8494A7"/>
<path d="M20.2 22.1C19.4933 22.1 18.8533 21.9467 18.28 21.64C17.7133 21.3267 17.2667 20.8967 16.94 20.35C16.62 19.8033 16.46 19.1867 16.46 18.5C16.46 17.8133 16.6233 17.1967 16.95 16.65C17.2767 16.1033 17.7233 15.6767 18.29 15.37C18.8633 15.0567 19.5033 14.9 20.21 14.9C20.7833 14.9 21.3067 15 21.78 15.2C22.2533 15.4 22.6533 15.69 22.98 16.07L22.14 16.86C21.6333 16.3133 21.01 16.04 20.27 16.04C19.79 16.04 19.36 16.1467 18.98 16.36C18.6 16.5667 18.3033 16.8567 18.09 17.23C17.8767 17.6033 17.77 18.0267 17.77 18.5C17.77 18.9733 17.8767 19.3967 18.09 19.77C18.3033 20.1433 18.6 20.4367 18.98 20.65C19.36 20.8567 19.79 20.96 20.27 20.96C21.01 20.96 21.6333 20.6833 22.14 20.13L22.98 20.93C22.6533 21.31 22.25 21.6 21.77 21.8C21.2967 22 20.7733 22.1 20.2 22.1Z" fill="#353F58"/>
</svg>
