<svg width="20" height="18" viewBox="0 0 20 18" fill="none" xmlns="http://www.w3.org/2000/svg">
<path d="M18.8078 15.2903H18.5489V14.8206C18.5489 14.5278 18.306 14.2894 18.0075 14.2894H17.727L18.6661 10.3199C18.7471 9.95494 18.6496 9.42334 18.4427 9.10805L16.5952 6.34752V1.00609C16.5952 0.940429 16.5608 0.882849 16.5089 0.849329C16.5075 0.84854 16.5059 0.847951 16.5047 0.847162C16.4955 0.841444 16.486 0.836315 16.4758 0.832372C16.4729 0.831188 16.4699 0.830598 16.4671 0.829612C16.4583 0.826458 16.4492 0.823498 16.4398 0.821724C16.4376 0.821329 16.4354 0.821331 16.4329 0.821134C16.4231 0.819556 16.4132 0.818176 16.403 0.818176H13.2195C13.2191 0.818176 13.2187 0.818176 13.2181 0.818176H10.477C10.4766 0.818176 10.4762 0.818176 10.4756 0.818176H7.29151C7.26638 0.818176 7.24265 0.823106 7.22094 0.831782C7.22054 0.831979 7.21994 0.831979 7.21953 0.832176C7.19481 0.842035 7.17269 0.856824 7.1544 0.875162L3.38392 4.57348C3.38352 4.57388 3.38311 4.57447 3.38271 4.57506C3.37427 4.58334 3.36683 4.59241 3.3602 4.60227C3.35678 4.607 3.35457 4.61233 3.35175 4.61745C3.34853 4.62317 3.34512 4.62869 3.3425 4.63461C3.33969 4.64092 3.33828 4.64762 3.33627 4.65413C3.33466 4.65926 3.33265 4.66438 3.33165 4.66971C3.32903 4.68193 3.32783 4.69436 3.32783 4.70658V6.46228L1.55607 9.10983C1.35021 9.42334 1.25251 9.95494 1.33413 10.3225L2.27258 14.2894H1.99213C1.69338 14.2894 1.45053 14.5278 1.45053 14.8206V15.2903H1.19179C1.08584 15.2903 1 15.3745 1 15.4782V16.9937C1 17.0976 1.08584 17.1818 1.19179 17.1818H6.87656C6.98251 17.1818 7.06835 17.0976 7.06835 16.9937V15.4782C7.06835 15.3745 6.98251 15.2903 6.87656 15.2903H6.6894V14.8206C6.6894 14.5278 6.44654 14.2894 6.1478 14.2894H5.92826V13.8311H6.70407H9.44644H12.6311C12.6854 13.8311 12.7338 13.809 12.7688 13.7737L14.1465 12.4225C14.0983 12.7176 14.0715 13.0497 14.0715 13.3859V14.2894H13.8524C13.5537 14.2894 13.3108 14.5278 13.3108 14.8206V15.2903H13.1234C13.0175 15.2903 12.9316 15.3745 12.9316 15.4782V16.9937C12.9316 17.0976 13.0175 17.1818 13.1234 17.1818H18.8082C18.9142 17.1818 19 17.0976 19 16.9937V15.4782C18.9996 15.3745 18.9138 15.2903 18.8078 15.2903ZM15.3483 4.48455C15.2297 4.30413 15.0438 4.17774 14.8383 4.13811C14.6483 4.10143 14.4583 4.13988 14.3031 4.24636C13.9795 4.46839 13.8588 4.94024 14.0281 5.321L15.0375 7.72029C14.7317 7.83801 14.5172 8.13319 14.5172 8.47845V10.6352C14.5172 10.7939 14.4931 11.0146 14.4513 11.2402C14.4191 11.4129 14.3789 11.574 14.3361 11.7043L12.8229 13.1883V4.78407L16.2118 1.46V5.77431L15.3483 4.48455ZM9.63763 9.79325C9.63763 9.7688 9.6328 9.74416 9.62255 9.72089C9.61753 9.70926 9.61149 9.69841 9.60426 9.68815C9.60405 9.68796 9.60406 9.68776 9.60385 9.68756C9.60164 9.68441 9.59903 9.68204 9.59662 9.67909C9.59139 9.67258 9.58616 9.66587 9.58013 9.65996C9.57571 9.65562 9.57068 9.65227 9.56586 9.64832C9.56103 9.64438 9.55641 9.64024 9.55118 9.63689C9.54596 9.63334 9.54013 9.63097 9.5347 9.62802C9.52927 9.62506 9.52384 9.6221 9.51801 9.61974C9.51218 9.61737 9.50595 9.61599 9.49992 9.61421C9.49409 9.61263 9.48846 9.61047 9.48243 9.60948C9.47378 9.60771 9.46494 9.60731 9.45609 9.60692C9.45267 9.60672 9.44926 9.60573 9.44584 9.60573C9.44564 9.60573 9.44544 9.60593 9.44523 9.60593C9.4201 9.60593 9.39498 9.61067 9.37125 9.62052C9.35939 9.62526 9.34833 9.63157 9.33788 9.63847C9.33768 9.63867 9.33748 9.63866 9.33728 9.63886L8.07435 10.4893L6.81203 9.63886C6.81183 9.63866 6.81163 9.63867 6.81143 9.63847C6.80097 9.63157 6.78992 9.62545 6.77805 9.62052C6.75433 9.61067 6.7292 9.60593 6.70407 9.60593C6.70387 9.60593 6.70367 9.60573 6.70347 9.60573C6.70005 9.60573 6.69704 9.60652 6.69382 9.60672C6.68477 9.60731 6.67573 9.60771 6.66688 9.60948C6.66105 9.61067 6.65562 9.61263 6.64999 9.61421C6.64376 9.61599 6.63733 9.61757 6.6313 9.61974C6.62567 9.6221 6.62044 9.62506 6.61501 9.62802C6.60938 9.63078 6.60355 9.63334 6.59833 9.63689C6.5931 9.64024 6.58847 9.64438 6.58345 9.64832C6.57882 9.65227 6.5738 9.65542 6.56938 9.65996C6.56294 9.66587 6.55751 9.67278 6.55229 9.67987C6.55028 9.68264 6.54767 9.68461 6.54565 9.68756C6.54545 9.68776 6.54545 9.68796 6.54525 9.68815C6.53118 9.70846 6.52093 9.73134 6.5159 9.75618C6.51329 9.7686 6.51208 9.78102 6.51208 9.79325C6.51208 9.79345 6.51208 9.79385 6.51208 9.79404V13.4547H3.71101V4.89449H6.51188V8.55535C6.51188 8.55555 6.51188 8.55574 6.51188 8.55594C6.51188 8.56836 6.51309 8.58079 6.5157 8.59301C6.5159 8.5942 6.5165 8.59538 6.5167 8.59676C6.51911 8.60741 6.52233 8.61805 6.52676 8.62831C6.53178 8.63994 6.53801 8.65079 6.54505 8.66104C6.54505 8.66124 6.54525 8.66144 6.54525 8.66163C6.55148 8.67031 6.55832 8.67819 6.56576 8.68569C6.56737 8.68726 6.56897 8.68884 6.57058 8.69042C6.58687 8.7058 6.60516 8.71783 6.62506 8.7267C6.62727 8.72769 6.62928 8.72867 6.6315 8.72946C6.64155 8.73341 6.6518 8.73656 6.66225 8.73873C6.66447 8.73912 6.66648 8.73952 6.66869 8.73991C6.68015 8.74189 6.69181 8.74327 6.70347 8.74327C6.71513 8.74327 6.72659 8.74189 6.73805 8.73991C6.74146 8.73932 6.74468 8.73853 6.7479 8.73774C6.75594 8.73597 6.76378 8.7336 6.77162 8.73045C6.77504 8.72927 6.77825 8.72808 6.78147 8.7267C6.78991 8.72296 6.79816 8.71842 6.8064 8.71349C6.80801 8.71251 6.80982 8.71172 6.81143 8.71073C6.81163 8.71073 6.81183 8.71053 6.81203 8.71034L8.07496 7.8597L9.33728 8.71034C9.33748 8.71053 9.33788 8.71053 9.33808 8.71073C9.33969 8.71172 9.3415 8.71251 9.34291 8.71349C9.35095 8.71862 9.35939 8.72296 9.36784 8.7267C9.37105 8.72808 9.37427 8.72927 9.37769 8.73045C9.38553 8.73341 9.39337 8.73577 9.40141 8.73774C9.40462 8.73853 9.40784 8.73932 9.41126 8.73991C9.42272 8.74189 9.43418 8.74327 9.44564 8.74327C9.4573 8.74327 9.46896 8.74189 9.48042 8.73991C9.48263 8.73952 9.48484 8.73932 9.48685 8.73873C9.4973 8.73656 9.50756 8.73341 9.51761 8.72946C9.51982 8.72867 9.52203 8.72749 9.52424 8.7265C9.53409 8.72217 9.54395 8.71724 9.55299 8.71132C9.55299 8.71132 9.55299 8.71132 9.55299 8.71112C9.56204 8.70521 9.57048 8.69811 9.57852 8.69062C9.58013 8.68904 9.58174 8.68746 9.58335 8.68589C9.59058 8.67839 9.59762 8.6707 9.60365 8.66183C9.60386 8.66163 9.60386 8.66144 9.60406 8.66124C9.61109 8.65099 9.61732 8.64014 9.62235 8.62851C9.62557 8.62101 9.62738 8.61332 9.62959 8.60563C9.63079 8.60149 9.6326 8.59755 9.63361 8.59321C9.63622 8.58079 9.63743 8.56856 9.63743 8.55614C9.63743 8.55594 9.63743 8.55574 9.63743 8.55555V4.89449H12.4389V13.4549H9.63763V9.79424C9.63763 9.79384 9.63763 9.79364 9.63763 9.79325ZM7.37132 1.1942H10.0134L6.62426 4.51827H3.98241L7.37132 1.1942ZM12.7555 1.1942L9.36663 4.51827H7.16666L10.5556 1.1942H12.7555ZM15.9402 1.1942L12.5515 4.51827H9.90903L13.2981 1.1942H15.9402ZM8.18372 7.47638C8.18291 7.47598 8.18191 7.47559 8.1811 7.4752C8.17467 7.47106 8.16804 7.4677 8.1612 7.46435C8.15658 7.46198 8.15215 7.45942 8.14733 7.45745C8.1415 7.45508 8.13527 7.4537 8.12924 7.45193C8.12341 7.45015 8.11757 7.44798 8.11154 7.447C8.10571 7.44601 8.09988 7.44581 8.09425 7.44522C8.08782 7.44463 8.08159 7.44345 8.07515 7.44345C8.06872 7.44345 8.06249 7.44444 8.05606 7.44503C8.05023 7.44562 8.0444 7.44581 8.03877 7.4468C8.03274 7.44798 8.02691 7.45015 8.02108 7.45173C8.01525 7.45331 8.00881 7.45489 8.00298 7.45725C7.99816 7.45922 7.99374 7.46179 7.98911 7.46415C7.98228 7.46751 7.97544 7.47066 7.96901 7.475C7.9682 7.47539 7.9674 7.47579 7.9666 7.47618L6.89546 8.19786V4.89449H9.25425V8.19786L8.18372 7.47638ZM6.68437 16.8056H1.38318V15.6665H6.68437V16.8056ZM6.30541 14.8206V15.2903H1.83371V14.8206C1.83371 14.735 1.90468 14.6656 1.99193 14.6656H6.1474C6.23445 14.6656 6.30541 14.7352 6.30541 14.8206ZM5.54428 14.2894H2.66581L1.70766 10.2399C1.64875 9.97426 1.72836 9.54145 1.87713 9.31489L3.32742 7.14788V13.643C3.32742 13.7469 3.41327 13.8311 3.51922 13.8311H5.54428V14.2894ZM6.89526 13.4549V10.1515L7.96579 10.873C7.97343 10.8779 7.98127 10.8825 7.98931 10.8864C7.99193 10.8876 7.99434 10.8886 7.99695 10.8898C8.00238 10.8921 8.00781 10.8941 8.01344 10.8961C8.01686 10.8971 8.02007 10.8981 8.02329 10.899C8.02851 10.9004 8.03394 10.9016 8.03937 10.9026C8.04259 10.9032 8.0456 10.904 8.04882 10.9044C8.05666 10.9054 8.0647 10.9059 8.07254 10.9061C8.07294 10.9061 8.07355 10.9061 8.07395 10.9061H8.07415C8.07455 10.9061 8.07515 10.9061 8.07556 10.9061C8.0836 10.9059 8.09144 10.9054 8.09928 10.9044C8.1025 10.904 8.10551 10.9032 8.10873 10.9026C8.11396 10.9016 8.11938 10.9004 8.12461 10.899C8.12803 10.8981 8.13125 10.8971 8.13466 10.8961C8.14009 10.8941 8.14572 10.8919 8.15095 10.8898C8.15356 10.8886 8.15617 10.8876 8.15879 10.8862C8.16683 10.8823 8.17467 10.8781 8.18231 10.873L9.25344 10.1515V13.4549H6.89526ZM14.4545 13.3859C14.4545 12.8217 14.5321 12.2771 14.662 11.9283L14.6668 11.9161C14.6674 11.9145 14.668 11.9131 14.6686 11.912C14.7285 11.7517 14.7852 11.5373 14.8283 11.3078C14.8747 11.057 14.9002 10.818 14.9002 10.6352V8.47845C14.9002 8.24834 15.084 8.05274 15.3097 8.04209C15.3113 8.04209 15.3128 8.04209 15.314 8.04189C15.3453 8.03972 15.3789 8.04288 15.4121 8.04958C15.6135 8.08922 15.7597 8.26944 15.7597 8.47845V10.6311C15.7568 10.7023 15.7478 11.2906 16.1784 11.7793C16.2478 11.8577 16.3688 11.8664 16.449 11.7988C16.529 11.7308 16.5379 11.612 16.4687 11.5334C16.1233 11.1414 16.143 10.6496 16.1432 10.6455C16.1432 10.6419 16.1434 10.6386 16.1434 10.635V8.47825C16.1434 8.09079 15.8676 7.75519 15.4887 7.68086C15.4698 7.67691 15.4509 7.67395 15.4316 7.67159L14.3815 5.17567C14.3811 5.17449 14.3805 5.17311 14.3799 5.17173C14.2836 4.95641 14.349 4.67365 14.5227 4.55455C14.5916 4.50723 14.6775 4.49027 14.7639 4.50703C14.8679 4.52714 14.9629 4.593 15.0265 4.68943L18.1209 9.31312C18.2706 9.54125 18.3502 9.97426 18.2917 10.2373L17.3332 14.2894H14.4545V13.3859ZM13.6938 14.8206C13.6938 14.735 13.7648 14.6656 13.8518 14.6656H14.2623C14.2625 14.6656 14.2625 14.6656 14.2627 14.6656C14.2629 14.6656 14.2629 14.6656 14.2631 14.6656H17.4832C17.484 14.6656 17.485 14.6658 17.4858 14.6658C17.4864 14.6658 17.487 14.6656 17.4876 14.6656H18.0075C18.0945 14.6656 18.1655 14.7352 18.1655 14.8206V15.2903H13.694V14.8206H13.6938ZM18.616 16.8056H13.3146V15.6665H18.6158V16.8056H18.616Z" fill="url(#paint0_linear)" stroke="url(#paint1_linear)" stroke-width="0.2"/>
<defs>
<linearGradient id="paint0_linear" x1="1" y1="17.1818" x2="19.8333" y2="16.1588" gradientUnits="userSpaceOnUse">
<stop stop-color="#9242AE"/>
<stop offset="1" stop-color="#1976E3"/>
</linearGradient>
<linearGradient id="paint1_linear" x1="1" y1="17.1818" x2="19.8333" y2="16.1588" gradientUnits="userSpaceOnUse">
<stop stop-color="#9242AE"/>
<stop offset="1" stop-color="#1976E3"/>
</linearGradient>
</defs>
</svg>
