<svg width="10" height="12" viewBox="0 0 10 12" fill="none" xmlns="http://www.w3.org/2000/svg">
<path fill-rule="evenodd" clip-rule="evenodd" d="M1.11111 0H6.8944L10 3.04907V10.9091C10 11.5091 9.5 12 8.88889 12H1.11111C0.5 12 0 11.5091 0 10.9091V1.09091C0 0.490909 0.5 0 1.11111 0ZM5.55556 1.09091H1.11111V10.9091H8.88889V4.36364H6.66667C6.05556 4.36364 5.55556 3.87273 5.55556 3.27273V1.09091ZM6.66667 1.31456V3.27273H8.66116L6.66667 1.31456ZM2.77778 8.72727V7.63636H6.11111V8.72727H2.77778ZM2.77778 5.45455V6.54545H7.22222V5.45455H2.77778Z"/>
</svg>
