<svg width="12" height="12" viewBox="0 0 12 12" fill="none" xmlns="http://www.w3.org/2000/svg">
<path fill-rule="evenodd" clip-rule="evenodd" d="M9.6 1.2C9.6 1.863 10.14 2.4 10.8 2.4C11.46 2.4 12 1.863 12 1.2C12 0.537 11.46 0 10.8 0C10.14 0 9.6 0.537 9.6 1.2ZM10.8 7.2C10.14 7.2 9.6 6.663 9.6 6C9.6 5.337 10.14 4.8 10.8 4.8C11.46 4.8 12 5.337 12 6C12 6.663 11.46 7.2 10.8 7.2ZM10.8 12C10.14 12 9.6 11.463 9.6 10.8C9.6 10.137 10.14 9.6 10.8 9.6C11.46 9.6 12 10.137 12 10.8C12 11.463 11.46 12 10.8 12ZM6 12C5.34 12 4.8 11.463 4.8 10.8C4.8 10.137 5.34 9.6 6 9.6C6.66 9.6 7.2 10.137 7.2 10.8C7.2 11.463 6.66 12 6 12ZM4.8 6C4.8 6.663 5.34 7.2 6 7.2C6.66 7.2 7.2 6.663 7.2 6C7.2 5.337 6.66 4.8 6 4.8C5.34 4.8 4.8 5.337 4.8 6ZM6 2.4C5.34 2.4 4.8 1.863 4.8 1.2C4.8 0.537 5.34 0 6 0C6.66 0 7.2 0.537 7.2 1.2C7.2 1.863 6.66 2.4 6 2.4ZM0 10.8C0 11.463 0.54 12 1.2 12C1.86 12 2.4 11.463 2.4 10.8C2.4 10.137 1.86 9.6 1.2 9.6C0.54 9.6 0 10.137 0 10.8ZM1.2 7.2C0.54 7.2 0 6.663 0 6C0 5.337 0.54 4.8 1.2 4.8C1.86 4.8 2.4 5.337 2.4 6C2.4 6.663 1.86 7.2 1.2 7.2ZM0 1.2C0 1.863 0.54 2.4 1.2 2.4C1.86 2.4 2.4 1.863 2.4 1.2C2.4 0.537 1.86 0 1.2 0C0.54 0 0 0.537 0 1.2Z"/>
</svg>
