<svg width="14" height="14" viewBox="0 0 14 14" fill="none" xmlns="http://www.w3.org/2000/svg">
<path fill-rule="evenodd" clip-rule="evenodd" d="M8.05075 3.18085L9.06592 4.16293L4.57903 8.654C4.35185 8.8801 4.35185 9.24481 4.57903 9.47161C4.79201 9.6865 5.14705 9.68509 5.36004 9.4702L10.2941 4.5269C11.0183 3.80241 11.0183 2.63763 10.2941 1.91315C9.60547 1.22156 8.39155 1.23697 7.7171 1.91456L2.32856 7.30586C1.11456 8.52873 1.11456 10.4929 2.32856 11.7164C3.51417 12.9043 5.54455 12.8847 6.70175 11.7151L12.9848 5.42431L14 6.40635L7.7171 12.6964C6.00613 14.4205 3.05986 14.4485 1.3205 12.6964C-0.440165 10.929 -0.440165 8.09331 1.3205 6.32445L6.70886 0.933195C7.92996 -0.297378 10.0598 -0.324677 11.3093 0.933195C12.573 2.20227 12.573 4.23783 11.3093 5.5083L6.37521 10.4481C5.61557 11.2251 4.3377 11.2286 3.56386 10.4509C2.79712 9.68019 2.79712 8.44472 3.56386 7.67264L8.05075 3.18085Z" fill="#635274"/>
</svg>
