<svg width="19" height="18" viewBox="0 0 19 18" fill="none" xmlns="http://www.w3.org/2000/svg">
<path d="M14.4452 11.0622L17.1339 0.400786C17.1773 0.22829 17.0728 0.0532784 16.9002 0.00972208C16.7272 -0.0333625 16.5527 0.0707324 16.5093 0.243228L13.8213 10.9019C12.7791 10.9131 11.8551 12.1142 11.5618 13.2766C11.5492 13.3267 11.5529 13.3774 11.5643 13.4268L10.6347 15.6505C10.5985 15.737 10.602 15.835 10.6438 15.9188C10.6859 16.0028 10.7624 16.0641 10.8532 16.087L11.8436 16.3367C11.9156 16.3547 11.9926 16.3474 12.0602 16.3155L12.51 16.1021L12.4933 16.1685C12.4499 16.341 12.5543 16.516 12.727 16.5596L14.6004 17.0319C14.6261 17.0385 14.6526 17.0417 14.679 17.0417C14.7447 17.0417 14.8095 17.0215 14.8642 16.983C14.9409 16.9291 14.9903 16.8445 14.9994 16.7512L15.2357 14.3528C15.2692 14.3147 15.2966 14.2717 15.3092 14.2217C15.6114 13.0222 15.3165 11.5446 14.4452 11.0622ZM14.395 16.316L13.1965 16.0138L13.3015 15.5974C13.332 15.4765 13.2899 15.3488 13.1937 15.2697C13.0971 15.1904 12.9641 15.1744 12.8512 15.2276L11.8889 15.6839L11.3731 15.554L12.1269 13.7513L12.9768 13.9656L14.5865 14.3717L14.395 16.316ZM14.7478 13.748L12.2813 13.126C12.628 12.1739 13.4091 11.4177 13.9868 11.5633C14.5686 11.71 14.9019 12.7228 14.7478 13.748Z" fill="url(#paint0_linear)"/>
<path d="M9.33897 4.90327C9.87171 4.90327 10.3051 5.33663 10.3051 5.86937C10.3051 6.04722 10.4491 6.19141 10.6271 6.19141C10.8051 6.19141 10.9491 6.04722 10.9491 5.86937C10.9491 5.33663 11.3825 4.90327 11.9152 4.90327C12.0932 4.90327 12.2373 4.75908 12.2373 4.58124C12.2373 4.4034 12.0932 4.2592 11.9152 4.2592C11.3825 4.2592 10.9491 3.82584 10.9491 3.2931C10.9491 3.11526 10.8051 2.97107 10.6271 2.97107C10.4491 2.97107 10.3051 3.11526 10.3051 3.2931C10.3051 3.82584 9.87171 4.2592 9.33897 4.2592C9.16113 4.2592 9.01694 4.4034 9.01694 4.58124C9.01694 4.75908 9.16113 4.90327 9.33897 4.90327ZM10.6271 4.25826C10.7189 4.38044 10.8277 4.48941 10.9501 4.58124C10.8277 4.67307 10.7189 4.78204 10.6271 4.90422C10.5353 4.78204 10.4265 4.67307 10.3041 4.58124C10.4265 4.48941 10.5353 4.38044 10.6271 4.25826Z" fill="url(#paint1_linear)"/>
<path d="M18.678 12.9542C18.1452 12.9542 17.7119 12.5208 17.7119 11.988C17.7119 11.8102 17.5678 11.666 17.3898 11.666C17.2118 11.666 17.0678 11.8102 17.0678 11.988C17.0678 12.5208 16.6344 12.9542 16.1017 12.9542C15.9237 12.9542 15.7797 13.0983 15.7797 13.2762C15.7797 13.454 15.9237 13.5982 16.1017 13.5982C16.6344 13.5982 17.0678 14.0316 17.0678 14.5643C17.0678 14.7422 17.2118 14.8864 17.3898 14.8864C17.5678 14.8864 17.7119 14.7422 17.7119 14.5643C17.7119 14.0316 18.1452 13.5982 18.678 13.5982C18.856 13.5982 19 13.454 19 13.2762C19 13.0983 18.856 12.9542 18.678 12.9542ZM17.3898 13.5992C17.298 13.477 17.1892 13.368 17.0669 13.2762C17.1892 13.1844 17.298 13.0754 17.3898 12.9532C17.4817 13.0754 17.5905 13.1844 17.7128 13.2762C17.5905 13.368 17.4817 13.477 17.3898 13.5992Z" fill="url(#paint2_linear)"/>
<path d="M10.0601 14.9045C9.41918 14.6788 8.74319 14.602 8.05085 14.602C6.50924 14.602 5.0332 15.2836 3.97809 16.2497H0.966102V13.6734H10.6271C10.8051 13.6734 10.9492 13.5292 10.9492 13.3514C10.9492 13.1736 10.8051 13.0294 10.6271 13.0294H0.644068V12.6322C0.644068 12.0994 1.07743 11.7412 1.61017 11.7412H2.8178H7.32627H8.77542H11.2712H11.5932C11.7712 11.7412 11.9153 11.597 11.9153 11.4192C11.9153 11.2414 11.7712 11.0972 11.5932 11.0972H11.2712H9.01695V9.80903H12.8814C13.0594 9.80903 13.2034 9.66484 13.2034 9.487C13.2034 9.30916 13.0594 9.16497 12.8814 9.16497H8.77542C8.59758 9.16497 8.37288 9.23398 8.37288 9.41182V11.0972H7.72881V9.41182C7.72881 9.23398 7.50411 9.16497 7.32627 9.16497H2.8178C2.63995 9.16497 2.57627 9.23398 2.57627 9.41182V11.0972H1.9322V8.5209H13.5254C13.7034 8.5209 13.8475 8.37671 13.8475 8.19886C13.8475 8.02102 13.7034 7.87683 13.5254 7.87683H1.61017C1.43233 7.87683 1.28814 7.94585 1.28814 8.12369V11.0545C0.554125 11.2042 0 11.8546 0 12.6322V13.2762C0 13.4541 0.144192 13.5983 0.322034 13.5983V16.4966C0.322034 16.6744 0.466226 16.8938 0.644068 16.8938H4.11112C4.19776 16.8938 4.28079 16.8213 4.34133 16.7593C5.28148 15.7976 6.63362 15.2272 8.05085 15.2272C8.67007 15.2272 9.2742 15.32 9.84625 15.5215C10.0132 15.58 10.1978 15.4877 10.257 15.3199C10.3161 15.1521 10.228 14.9636 10.0601 14.9045ZM3.22034 9.80903H7.08475V11.0972H3.22034V9.80903Z" fill="url(#paint3_linear)"/>
<defs>
<linearGradient id="paint0_linear" x1="10.6098" y1="17.0417" x2="17.4639" y2="16.9119" gradientUnits="userSpaceOnUse">
<stop stop-color="#9242AE"/>
<stop offset="1" stop-color="#1976E3"/>
</linearGradient>
<linearGradient id="paint1_linear" x1="9.01694" y1="6.19141" x2="12.3881" y2="6.02493" gradientUnits="userSpaceOnUse">
<stop stop-color="#9242AE"/>
<stop offset="1" stop-color="#1976E3"/>
</linearGradient>
<linearGradient id="paint2_linear" x1="15.7797" y1="14.8864" x2="19.1508" y2="14.7199" gradientUnits="userSpaceOnUse">
<stop stop-color="#9242AE"/>
<stop offset="1" stop-color="#1976E3"/>
</linearGradient>
<linearGradient id="paint3_linear" x1="-5.15858e-08" y1="16.8938" x2="14.4482" y2="15.7981" gradientUnits="userSpaceOnUse">
<stop stop-color="#9242AE"/>
<stop offset="1" stop-color="#1976E3"/>
</linearGradient>
</defs>
</svg>
