<svg width="12" height="12" viewBox="0 0 12 12" fill="none" xmlns="http://www.w3.org/2000/svg">
<path fill-rule="evenodd" clip-rule="evenodd" d="M5.59595 0.167368C5.81911 -0.0557892 6.18092 -0.0557892 6.40408 0.167368L11.8326 5.59594C11.9961 5.75937 12.045 6.00515 11.9565 6.21868C11.8681 6.4322 11.6597 6.57143 11.4286 6.57143H10.2222C9.90665 6.57143 9.65081 6.31559 9.65081 6C9.65081 5.73726 9.82814 5.51593 10.0696 5.44917L6.00002 1.37955L1.93039 5.44917C2.1719 5.51593 2.34922 5.73726 2.34922 6C2.34922 6.31559 2.09339 6.57143 1.77779 6.57143H0.571445C0.340324 6.57143 0.13196 6.4322 0.0435141 6.21868C-0.0449322 6.00515 0.00395683 5.75937 0.167384 5.59594L5.59595 0.167368Z"/>
<path fill-rule="evenodd" clip-rule="evenodd" d="M1.77785 5.42859C2.09344 5.42859 2.34928 5.68443 2.34928 6.00002V10.2222C2.34928 10.3906 2.41617 10.5521 2.53524 10.6712C2.65431 10.7903 2.81581 10.8572 2.9842 10.8572H9.01595C9.18434 10.8572 9.34583 10.7903 9.4649 10.6712C9.58397 10.5521 9.65087 10.3906 9.65087 10.2222V6.00002C9.65087 5.68443 9.9067 5.42859 10.2223 5.42859C10.5379 5.42859 10.7937 5.68443 10.7937 6.00002V10.2222C10.7937 10.6937 10.6064 11.1459 10.273 11.4793C9.93963 11.8127 9.48744 12 9.01595 12H2.9842C2.5127 12 2.06052 11.8127 1.72712 11.4793C1.39372 11.1459 1.20642 10.6937 1.20642 10.2222V6.00002C1.20642 5.68443 1.46226 5.42859 1.77785 5.42859Z"/>
<path fill-rule="evenodd" clip-rule="evenodd" d="M4.22223 6.00002C4.22223 5.68443 4.47807 5.42859 4.79366 5.42859H7.20636C7.52195 5.42859 7.77778 5.68443 7.77778 6.00002V8.41272C7.77778 8.72831 7.52195 8.98414 7.20636 8.98414H4.79366C4.47807 8.98414 4.22223 8.72831 4.22223 8.41272V6.00002ZM5.36509 6.57145V7.84129H6.63493V6.57145H5.36509Z"/>
</svg>
