<svg width="18" height="20" viewBox="0 0 18 20" fill="none" xmlns="http://www.w3.org/2000/svg">
<path fill-rule="evenodd" clip-rule="evenodd" d="M6.47364 1.00078C7.95859 1.0088 9.44777 1.53962 10.5014 2.604C11.5541 3.66754 12.156 5.26591 11.8775 7.34179C11.8472 7.88192 11.5547 8.49397 11.1368 9.19507C10.7156 9.90174 10.159 10.6932 9.57625 11.5373C8.41466 13.2198 7.15303 15.1145 6.66298 16.8869C6.58317 17.1847 6.3278 17.1814 6.24908 16.8869C5.76321 15.1136 4.54786 13.3047 3.41136 11.6562C2.27307 10.0051 1.20249 8.534 1.06842 7.28827C1.06819 7.28618 1.06798 7.28425 1.06775 7.28224C0.789563 5.20499 1.39146 3.61269 2.44477 2.5602C3.49911 1.50668 4.98871 0.992082 6.47366 1.00009L6.47364 1.00078ZM6.47155 1.41954C5.08507 1.41207 3.70338 1.89512 2.74068 2.85707C1.77798 3.81902 1.21724 5.25814 1.48323 7.23311C1.48346 7.2352 1.48367 7.23713 1.4839 7.23914C1.5926 8.27163 2.61422 9.76329 3.75594 11.4194C4.76835 12.8879 5.8655 14.5005 6.45693 16.1578C7.05944 14.4834 8.19533 12.8009 9.23185 11.2995C9.81586 10.4536 10.369 9.66593 10.7774 8.9807C11.1857 8.29547 11.4411 7.70691 11.4603 7.30866C11.4606 7.30269 11.4611 7.29674 11.4619 7.29084C11.7279 5.31805 11.1672 3.87162 10.2038 2.89833C9.24035 1.92505 7.85801 1.42705 6.47153 1.41957L6.47155 1.41954Z" fill="url(#paint0_linear)" stroke="url(#paint1_linear)" stroke-width="0.2"/>
<path fill-rule="evenodd" clip-rule="evenodd" d="M8.23606 15.7561C8.24785 15.7559 8.25963 15.7567 8.27129 15.7584C9.11374 15.872 9.83337 16.0597 10.3602 16.3084C10.6237 16.4327 10.84 16.5717 11.0001 16.7362C11.1601 16.9007 11.2661 17.1015 11.2661 17.3204C11.2661 17.6112 11.0842 17.8604 10.823 18.0583C10.5619 18.2562 10.2078 18.4202 9.77833 18.5582C8.91932 18.834 7.75699 18.9999 6.47271 18.9999C5.18844 18.9999 4.02588 18.834 3.16687 18.5582C2.73737 18.4202 2.38332 18.2562 2.12216 18.0583C1.86101 17.8604 1.67907 17.6112 1.67907 17.3204C1.67907 17.1047 1.78281 16.9068 1.93955 16.7438C2.09628 16.5809 2.30831 16.4423 2.56642 16.3181C3.08265 16.0698 3.788 15.8805 4.61504 15.7638C4.64264 15.7591 4.6709 15.76 4.69815 15.7664C4.72541 15.7728 4.75109 15.7846 4.7737 15.8011C4.79631 15.8176 4.81537 15.8385 4.82976 15.8625C4.84415 15.8865 4.85358 15.9132 4.85749 15.9409C4.8614 15.9686 4.8597 15.9969 4.85251 16.0239C4.84531 16.051 4.83276 16.0763 4.8156 16.0984C4.79844 16.1205 4.77702 16.139 4.7526 16.1527C4.72818 16.1664 4.70127 16.175 4.67344 16.1781C3.87651 16.2906 3.20362 16.4762 2.74787 16.6954C2.52 16.805 2.34754 16.9235 2.24128 17.034C2.13502 17.1444 2.09759 17.2364 2.09759 17.3204C2.09759 17.4343 2.172 17.5712 2.37477 17.7248C2.57753 17.8784 2.89473 18.0311 3.29479 18.1596C4.09493 18.4165 5.22484 18.5811 6.47271 18.5811C7.72059 18.5811 8.85028 18.4165 9.6504 18.1596C10.0505 18.0311 10.3677 17.8784 10.5704 17.7248C10.7732 17.5712 10.8476 17.4343 10.8476 17.3204C10.8476 17.2337 10.8089 17.1401 10.7 17.0282C10.5911 16.9162 10.4146 16.7968 10.1816 16.6868C9.71545 16.4668 9.028 16.2828 8.21544 16.1733C8.16276 16.167 8.11442 16.141 8.08018 16.1005C8.04593 16.06 8.02834 16.008 8.03096 15.9551C8.03358 15.9021 8.05621 15.8521 8.09429 15.8152C8.13236 15.7782 8.18303 15.7571 8.23606 15.7561V15.7561Z" fill="url(#paint2_linear)" stroke="url(#paint3_linear)" stroke-width="0.2"/>
<path fill-rule="evenodd" clip-rule="evenodd" d="M6.47248 4.53839C7.50877 4.53839 8.35449 5.385 8.35449 6.42202C8.35449 7.45902 7.50877 8.30564 6.47248 8.30564C5.43621 8.30564 4.59071 7.45902 4.59071 6.42202C4.59071 5.385 5.43621 4.53839 6.47248 4.53839ZM6.47248 4.95692C5.66318 4.95692 5.00925 5.61149 5.00925 6.42202C5.00925 7.23252 5.66318 7.88711 6.47248 7.88711C7.28181 7.88711 7.93596 7.23252 7.93596 6.42202C7.93596 5.61149 7.28181 4.95692 6.47248 4.95692Z" fill="url(#paint4_linear)" stroke="url(#paint5_linear)" stroke-width="0.2"/>
<path fill-rule="evenodd" clip-rule="evenodd" d="M13.8132 5.18644C14.4931 5.18117 15.1752 5.37532 15.7295 5.78162C16.5358 6.37261 17.0536 7.41531 16.8675 8.82289C16.847 9.15172 16.6819 9.49652 16.4555 9.88897C16.2251 10.2884 15.9202 10.7336 15.6053 11.2036C14.9797 12.1371 14.312 13.1801 14.0486 14.1402C13.9708 14.4308 13.7135 14.445 13.6301 14.1337C13.2846 12.8612 12.2474 11.5324 11.5306 10.3926C11.4491 10.2632 11.5676 10.063 11.7203 10.0721C11.7883 10.0745 11.8542 10.1125 11.8903 10.1703C12.4928 11.1281 13.3666 12.2648 13.8394 13.4601C14.1859 12.5941 14.7443 11.7357 15.2586 10.9682C15.5747 10.4966 15.8778 10.0577 16.0958 9.67973C16.3138 9.30176 16.4398 8.98475 16.449 8.79024C16.4487 8.78371 16.4487 8.77716 16.449 8.77063C16.6188 7.48575 16.1705 6.62718 15.481 6.12178C14.7915 5.61638 13.8454 5.47429 13.0218 5.71628C12.9136 5.76198 12.7729 5.69535 12.7396 5.5827C12.7064 5.47005 12.7884 5.33768 12.9041 5.31732C13.2001 5.23034 13.5042 5.18891 13.8132 5.18651V5.18644Z" fill="url(#paint6_linear)" stroke="url(#paint7_linear)" stroke-width="0.2"/>
<path fill-rule="evenodd" clip-rule="evenodd" d="M15.2125 13.617C15.2243 13.617 15.2361 13.6191 15.2477 13.6209C15.6065 13.6849 15.907 13.7668 16.1356 13.8738C16.2499 13.9273 16.3474 13.9864 16.4266 14.065C16.5059 14.1435 16.5706 14.2537 16.5706 14.3801C16.5706 14.579 16.4303 14.7177 16.2739 14.8147C16.1176 14.9116 15.9177 14.9862 15.6769 15.0494C15.1955 15.1758 14.5514 15.2503 13.8373 15.2503C13.1273 15.2503 12.4853 15.1756 12.0049 15.0492C11.7647 14.986 11.5651 14.9116 11.4089 14.8147C11.2527 14.7177 11.1125 14.579 11.1125 14.3801C11.1125 14.2569 11.1739 14.1488 11.2501 14.0708C11.3264 13.9927 11.4204 13.9336 11.5306 13.8803C11.7509 13.7737 12.0401 13.6922 12.3873 13.6295C12.4413 13.6197 12.4989 13.6323 12.5439 13.6636C12.5889 13.6948 12.6208 13.7444 12.6305 13.7984C12.6403 13.8523 12.6277 13.9099 12.5965 13.9549C12.5652 13.9999 12.5156 14.0318 12.4617 14.0416C12.1383 14.0999 11.8763 14.178 11.7129 14.2571C11.3034 14.4702 11.9659 14.6056 12.1115 14.6446C12.5414 14.7577 13.1572 14.8316 13.8373 14.8316C14.5218 14.8316 15.1397 14.7577 15.5706 14.6446C15.8904 14.5589 16.3477 14.4875 15.958 14.2529C15.7853 14.1721 15.5106 14.0929 15.1743 14.033C15.1224 14.0248 15.074 13.9962 15.0418 13.9548C15.0095 13.9133 14.9937 13.8594 14.9985 13.8071C15.0034 13.7548 15.0287 13.7047 15.068 13.6698C15.1072 13.6349 15.16 13.6156 15.2125 13.617V13.617Z" fill="url(#paint8_linear)" stroke="url(#paint9_linear)" stroke-width="0.2"/>
<path fill-rule="evenodd" clip-rule="evenodd" d="M13.8506 7.22058C14.4241 7.22058 14.892 7.68891 14.892 8.26273C14.892 8.83656 14.4266 9.31324 13.8506 9.31324C13.2682 9.31324 12.801 8.83656 12.801 8.26273C12.801 7.68891 13.2707 7.22058 13.8506 7.22058ZM13.8506 7.63911C13.4912 7.63911 13.2195 7.91291 13.2195 8.26273C13.2195 8.61256 13.4937 8.89471 13.8506 8.89471C14.1972 8.89471 14.4733 8.61256 14.4733 8.26273C14.4733 7.91291 14.1997 7.63911 13.8506 7.63911Z" fill="url(#paint10_linear)" stroke="url(#paint11_linear)" stroke-width="0.2"/>
<defs>
<linearGradient id="paint0_linear" x1="1" y1="17.109" x2="12.473" y2="16.7241" gradientUnits="userSpaceOnUse">
<stop stop-color="#9242AE"/>
<stop offset="1" stop-color="#1976E3"/>
</linearGradient>
<linearGradient id="paint1_linear" x1="1" y1="17.109" x2="12.473" y2="16.7241" gradientUnits="userSpaceOnUse">
<stop stop-color="#9242AE"/>
<stop offset="1" stop-color="#1976E3"/>
</linearGradient>
<linearGradient id="paint2_linear" x1="1.67907" y1="18.9999" x2="11.5297" y2="17.5622" gradientUnits="userSpaceOnUse">
<stop stop-color="#9242AE"/>
<stop offset="1" stop-color="#1976E3"/>
</linearGradient>
<linearGradient id="paint3_linear" x1="1.67907" y1="18.9999" x2="11.5297" y2="17.5622" gradientUnits="userSpaceOnUse">
<stop stop-color="#9242AE"/>
<stop offset="1" stop-color="#1976E3"/>
</linearGradient>
<linearGradient id="paint4_linear" x1="4.59071" y1="8.30564" x2="8.53076" y2="8.11125" gradientUnits="userSpaceOnUse">
<stop stop-color="#9242AE"/>
<stop offset="1" stop-color="#1976E3"/>
</linearGradient>
<linearGradient id="paint5_linear" x1="4.59071" y1="8.30564" x2="8.53076" y2="8.11125" gradientUnits="userSpaceOnUse">
<stop stop-color="#9242AE"/>
<stop offset="1" stop-color="#1976E3"/>
</linearGradient>
<linearGradient id="paint6_linear" x1="11.5041" y1="14.3627" x2="17.1674" y2="14.1981" gradientUnits="userSpaceOnUse">
<stop stop-color="#9242AE"/>
<stop offset="1" stop-color="#1976E3"/>
</linearGradient>
<linearGradient id="paint7_linear" x1="11.5041" y1="14.3627" x2="17.1674" y2="14.1981" gradientUnits="userSpaceOnUse">
<stop stop-color="#9242AE"/>
<stop offset="1" stop-color="#1976E3"/>
</linearGradient>
<linearGradient id="paint8_linear" x1="11.1125" y1="15.2503" x2="16.6883" y2="14.3302" gradientUnits="userSpaceOnUse">
<stop stop-color="#9242AE"/>
<stop offset="1" stop-color="#1976E3"/>
</linearGradient>
<linearGradient id="paint9_linear" x1="11.1125" y1="15.2503" x2="16.6883" y2="14.3302" gradientUnits="userSpaceOnUse">
<stop stop-color="#9242AE"/>
<stop offset="1" stop-color="#1976E3"/>
</linearGradient>
<linearGradient id="paint10_linear" x1="12.801" y1="9.31324" x2="14.9899" y2="9.20523" gradientUnits="userSpaceOnUse">
<stop stop-color="#9242AE"/>
<stop offset="1" stop-color="#1976E3"/>
</linearGradient>
<linearGradient id="paint11_linear" x1="12.801" y1="9.31324" x2="14.9899" y2="9.20523" gradientUnits="userSpaceOnUse">
<stop stop-color="#9242AE"/>
<stop offset="1" stop-color="#1976E3"/>
</linearGradient>
</defs>
</svg>
