<svg width="12" height="12" viewBox="0 0 12 12" fill="none" xmlns="http://www.w3.org/2000/svg">
<path d="M0.796817 12C1.22758 12 1.96134 11.7083 3.37071 9.2128C4.18289 8.84027 5.07428 8.50653 5.95554 8.24533C6.59595 8.05573 7.23689 7.90667 7.86316 7.80227C8.89565 8.436 10.0955 8.84173 10.9497 8.84173C11.8942 8.84173 11.9917 8.30747 11.9991 8.14387C12.0094 7.91973 11.9295 7.71227 11.7681 7.54347C11.4257 7.18493 10.7274 7.0032 9.69302 7.0032C9.17824 7.0032 8.60945 7.0496 8.00052 7.14107C7.38438 6.73467 6.87547 6.25573 6.52406 5.75107C6.19386 5.27733 5.90086 4.75907 5.65187 4.20893C6.32615 2.23413 6.45738 0.937067 6.04183 0.352933C5.87739 0.122133 5.63387 0 5.33727 0C5.00613 0 4.73541 0.1464 4.55443 0.423333C4.01698 1.24573 4.43454 2.96307 4.97359 4.23547C4.72247 4.9444 4.40907 5.7084 4.06379 6.45333C3.67438 7.29373 3.28936 8.05787 2.91888 8.72653C1.86065 9.2272 0.173215 10.1581 0.0130467 11.064C-0.0332301 11.3265 0.0441201 11.5672 0.236829 11.7599C0.39393 11.9169 0.587572 12 0.796817 12ZM9.69289 7.6348C10.8887 7.6348 11.2339 7.89867 11.3112 7.9796C11.3642 8.03493 11.3697 8.0792 11.3674 8.1224C11.3554 8.14107 11.2496 8.21 10.9496 8.21C10.4807 8.21 9.7393 8.03867 8.94139 7.66653C9.20385 7.64547 9.45483 7.6348 9.69289 7.6348ZM5.08335 0.7688C5.14616 0.672667 5.22218 0.6316 5.33727 0.6316C5.44303 0.6316 5.48957 0.666533 5.52691 0.718933C5.71215 0.979333 5.72456 1.78307 5.28513 3.27827C4.87891 2.0604 4.85837 1.11293 5.08335 0.7688ZM4.63699 6.7188C4.89131 6.17 5.12896 5.61053 5.33821 5.06893L5.34661 5.08773L5.35994 5.0492C5.55625 5.42147 5.77217 5.77693 6.00555 6.112C6.29375 6.52587 6.67223 6.922 7.11939 7.2804L7.05605 7.29027L7.08312 7.3076C6.64996 7.39933 6.21266 7.51053 5.77617 7.63987C5.13856 7.8288 4.49536 8.05467 3.87855 8.30547L3.89843 8.26987L3.87335 8.2816C4.12448 7.79653 4.38 7.27373 4.63699 6.7188ZM0.635182 11.1739C0.68746 10.8781 1.22931 10.3523 2.31835 9.7436C1.34307 11.2789 0.888704 11.3684 0.796817 11.3684C0.766544 11.3684 0.73187 11.3617 0.683459 11.3135C0.631715 11.2615 0.626514 11.2231 0.635182 11.1739Z" fill="#635274"/>
</svg>
