<svg width="100" height="32" viewBox="0 0 100 32" fill="none" xmlns="http://www.w3.org/2000/svg">
<path d="M18.975 26.1699C18.3263 26.1699 17.8073 26.3966 17.418 26.8177C17.0613 27.2711 16.8666 27.8541 16.8666 28.5991C16.8666 29.3764 17.0613 29.9918 17.418 30.4128C17.7748 30.8339 18.2938 31.0606 18.975 31.0606C19.3966 31.0606 19.8507 30.9958 20.4022 30.8339V31.4169C19.9805 31.5788 19.494 31.6436 18.8777 31.6436C18.0019 31.6436 17.3207 31.3845 16.8666 30.8339C16.3801 30.3157 16.153 29.5383 16.153 28.5667C16.153 27.9513 16.2828 27.4331 16.5098 26.9472C16.7369 26.4938 17.0613 26.1375 17.5154 25.8784C17.937 25.6193 18.456 25.4897 19.0398 25.4897C19.6561 25.4897 20.2075 25.6193 20.6616 25.846L20.3697 26.429C19.8832 26.2995 19.4291 26.1699 18.975 26.1699Z" fill="#353F58"/>
<path d="M26.8246 28.5991C26.8246 29.5384 26.5976 30.2833 26.111 30.8339C25.6245 31.3845 24.9758 31.6436 24.1 31.6436C23.2242 31.6436 22.5431 31.3845 22.089 30.8339C21.6024 30.3157 21.3754 29.5384 21.3754 28.5667C21.3754 27.595 21.6024 26.8501 22.089 26.3319C22.5755 25.8137 23.2567 25.5222 24.1324 25.5222C24.9758 25.5222 25.6569 25.7813 26.1435 26.3319C26.5976 26.9149 26.8246 27.6598 26.8246 28.5991ZM22.089 28.5991C22.089 29.4088 22.2511 30.0242 22.6079 30.4128C22.9647 30.8339 23.4513 31.0282 24.1 31.0282C24.7487 31.0282 25.2677 30.8339 25.592 30.4128C25.9164 29.9918 26.111 29.3764 26.111 28.5667C26.111 27.757 25.9488 27.174 25.6245 26.7529C25.3001 26.3319 24.7811 26.1375 24.1324 26.1375C23.4837 26.1375 22.9647 26.3319 22.6404 26.7529C22.2836 27.2064 22.089 27.8218 22.089 28.5991Z" fill="#353F58"/>
<path d="M32.7928 31.5788H32.0144L28.7708 26.5909H28.7384C28.7708 27.1739 28.8032 27.7245 28.8032 28.2103V31.5788H28.1545V25.6516H28.933L32.1766 30.6071H32.209C32.209 30.5423 32.1766 30.2832 32.1766 29.8946C32.1441 29.5059 32.1441 29.2144 32.1441 29.0525V25.6516H32.7928V31.5788Z" fill="#353F58"/>
<path d="M36.9769 26.1699C36.3282 26.1699 35.8092 26.3966 35.42 26.8177C35.0307 27.2387 34.8686 27.8541 34.8686 28.5991C34.8686 29.3764 35.0632 29.9918 35.42 30.4128C35.7768 30.8339 36.2957 31.0606 36.9769 31.0606C37.3986 31.0606 37.8527 30.9958 38.4041 30.8339V31.4169C37.9824 31.5788 37.4959 31.6436 36.8796 31.6436C36.0038 31.6436 35.3227 31.3845 34.8686 30.8339C34.382 30.3157 34.155 29.5383 34.155 28.5667C34.155 27.9513 34.2847 27.4331 34.5118 26.9472C34.7388 26.4938 35.0632 26.1375 35.5173 25.8784C35.9389 25.6193 36.4579 25.4897 37.0418 25.4897C37.658 25.4897 38.2095 25.6193 38.6636 25.846L38.3716 26.429C37.8851 26.2995 37.431 26.1699 36.9769 26.1699Z" fill="#353F58"/>
<path d="M43.0101 31.5788H39.7016V25.6516H43.0101V26.267H40.3828V28.178H42.8479V28.7933H40.3828V30.9634H43.0101V31.5788Z" fill="#353F58"/>
<path d="M48.1025 27.3682C48.1025 27.9836 47.9079 28.4371 47.4863 28.761C47.0646 29.0848 46.4807 29.2468 45.7347 29.2468H45.0211V31.5788H44.34V25.6516H45.8645C47.3565 25.6516 48.1025 26.2346 48.1025 27.3682ZM45.0211 28.6638H45.6374C46.2537 28.6638 46.7078 28.5666 46.9673 28.3723C47.2268 28.178 47.389 27.8541 47.389 27.433C47.389 27.0444 47.2592 26.7529 46.9997 26.5585C46.7402 26.3642 46.351 26.267 45.7996 26.267H45.0211V28.6638Z" fill="#353F58"/>
<path d="M51.1515 31.5788H50.4704V26.267H48.5891V25.6516H53.0328V26.267H51.1515V31.5788Z" fill="#353F58"/>
<path d="M60.6228 31.5788H59.9417V28.7933H56.8278V31.5788H56.1143V25.6516H56.7954V28.178H59.9092V25.6516H60.5904V31.5788H60.6228Z" fill="#353F58"/>
<path d="M67.4018 28.5991C67.4018 29.5384 67.1747 30.2833 66.6882 30.8339C66.2017 31.3845 65.5529 31.6436 64.6772 31.6436C63.8014 31.6436 63.1203 31.3845 62.6662 30.8339C62.1796 30.3157 61.9526 29.5384 61.9526 28.5667C61.9526 27.595 62.1796 26.8501 62.6662 26.3319C63.1527 25.8137 63.8339 25.5222 64.7096 25.5222C65.553 25.5222 66.2341 25.7813 66.7206 26.3319C67.1747 26.9149 67.4018 27.6598 67.4018 28.5991ZM62.6662 28.5991C62.6662 29.4088 62.8283 30.0242 63.1851 30.4128C63.5419 30.8339 64.0285 31.0282 64.6772 31.0282C65.3259 31.0282 65.8449 30.8339 66.1692 30.4128C66.4936 29.9918 66.6882 29.3764 66.6882 28.5667C66.6882 27.757 66.526 27.174 66.2017 26.7529C65.8773 26.3319 65.3583 26.1375 64.7096 26.1375C64.0609 26.1375 63.5419 26.3319 63.2176 26.7529C62.8283 27.2064 62.6662 27.8218 62.6662 28.5991Z" fill="#353F58"/>
<path d="M73.208 25.6516V29.4735C73.208 30.1537 73.0133 30.6719 72.5917 31.0605C72.17 31.4492 71.6186 31.6435 70.905 31.6435C70.1914 31.6435 69.64 31.4492 69.2508 31.0605C68.8615 30.6719 68.6669 30.1213 68.6669 29.4411V25.6516H69.3481V29.5383C69.3481 30.0241 69.4778 30.4128 69.7698 30.6719C70.0292 30.931 70.4509 31.0605 70.9699 31.0605C71.4564 31.0605 71.8457 30.931 72.1376 30.6719C72.3971 30.4128 72.5592 30.0241 72.5592 29.5383V25.6516H73.208Z" fill="#353F58"/>
<path d="M78.1383 29.9918C78.1383 30.51 77.9437 30.9311 77.5544 31.2226C77.1652 31.514 76.6462 31.676 75.9975 31.676C75.2839 31.676 74.7649 31.5788 74.3757 31.4169V30.7367C74.6352 30.8339 74.8947 30.9311 75.1866 30.9958C75.4785 31.0606 75.7704 31.093 76.0299 31.093C76.484 31.093 76.8408 30.9958 77.0679 30.8339C77.2949 30.6719 77.4247 30.4128 77.4247 30.1213C77.4247 29.927 77.3922 29.7327 77.2949 29.6031C77.1976 29.4736 77.0679 29.344 76.8733 29.2468C76.6787 29.1497 76.3867 29.0201 75.9975 28.8582C75.4461 28.6638 75.0569 28.4371 74.7974 28.1456C74.5703 27.8865 74.4406 27.5302 74.4406 27.0768C74.4406 26.6234 74.6028 26.2671 74.9596 25.9756C75.3163 25.7165 75.7704 25.5545 76.3219 25.5545C76.9057 25.5545 77.4571 25.6517 77.9437 25.8784L77.7166 26.4938C77.2301 26.2995 76.7435 26.1699 76.2894 26.1699C75.9326 26.1699 75.6407 26.2347 75.4461 26.3966C75.2515 26.5586 75.1217 26.7853 75.1217 27.0444C75.1217 27.2387 75.1542 27.4331 75.2515 27.5626C75.3163 27.6922 75.4461 27.8217 75.6407 27.9189C75.8353 28.0161 76.0948 28.1456 76.4516 28.2752C77.0679 28.5019 77.4896 28.7286 77.749 28.9877C78.041 29.2792 78.1383 29.6031 78.1383 29.9918Z" fill="#353F58"/>
<path d="M82.679 31.5788H79.3705V25.6516H82.679V26.267H80.0517V28.178H82.5168V28.7933H80.0517V30.9634H82.679V31.5788Z" fill="#353F58"/>
<path d="M24.2298 16.3563V0H26.7274V14.3806" fill="#353F58"/>
<path d="M59.8443 16.3563V0H62.3419V14.3806" fill="#353F58"/>
<path d="M0 0H2.49757C2.82193 0 3.14629 0 3.53552 0.0323887C3.92475 0.0647773 4.28154 0.129555 4.67077 0.226721C5.06001 0.323887 5.4168 0.48583 5.74116 0.712551C6.09796 0.939271 6.38988 1.23077 6.6818 1.58704C6.94129 1.97571 7.16834 2.42915 7.33052 2.97976C7.4927 3.53036 7.59001 4.21053 7.59001 5.02024V5.60324C7.59001 6.47773 7.52514 7.22267 7.36296 7.83806C7.20078 8.45344 7.00616 8.97166 6.77911 9.39271C6.51962 9.81376 6.2277 10.17 5.90334 10.3968C5.57898 10.6559 5.22219 10.8502 4.86539 10.9798C4.5086 11.1093 4.1518 11.2065 3.795 11.2389C3.43821 11.2713 3.08141 11.3036 2.78949 11.3036H2.49757V16.2915H0V0ZM2.59488 9.55466C3.04898 9.55466 3.40577 9.48988 3.73013 9.36032C4.02206 9.23077 4.28154 9.03644 4.47616 8.74494C4.67078 8.45344 4.80052 8.09717 4.86539 7.67611C4.93026 7.25506 4.99513 6.70445 4.99513 6.08907V4.59919C4.99513 4.11336 4.9627 3.69231 4.89783 3.33603C4.83295 2.97976 4.70321 2.68826 4.5086 2.46154C4.31398 2.23482 4.08693 2.07287 3.76257 1.94332C3.47065 1.87854 3.08141 1.81376 2.59488 1.81376H2.49757V9.55466H2.59488Z" fill="#353F58"/>
<path d="M9.01727 0H11.5148V6.83401H14.4665V0H16.9641V16.3563H14.4665V8.80972H11.5148V16.3563H9.01727V0Z" fill="#353F58"/>
<path d="M19.3642 0H21.8618V16.3563H19.3642V0Z" fill="#353F58"/>
<path d="M34.6417 0H37.4961L40.5126 16.3563H38.0151L37.561 13.4413H34.5769L34.1552 16.3563H31.6252L34.6417 0ZM37.3015 11.5628L36.1662 3.4332H36.0689L34.9012 11.5628H37.3015Z" fill="#353F58"/>
<path d="M42.1343 0H44.6967C45.086 0 45.4752 0 45.8969 0.0323887C46.3185 0.0647773 46.7402 0.129555 47.1294 0.226721C47.5186 0.356275 47.9079 0.518219 48.2647 0.744939C48.6215 0.97166 48.9458 1.32794 49.2053 1.74899C49.4648 2.17004 49.6919 2.72065 49.854 3.36842C50.0162 4.01619 50.0811 4.82591 50.0811 5.76518V10.5263C50.0811 11.4656 50.0162 12.2753 49.854 12.9231C49.6919 13.5708 49.4972 14.1215 49.2053 14.5425C48.9458 14.9636 48.6215 15.2874 48.2647 15.5466C47.9079 15.7733 47.5186 15.9676 47.1294 16.0648C46.7402 16.1943 46.3185 16.2591 45.8969 16.2591C45.4752 16.2915 45.086 16.2915 44.6967 16.2915H42.1343V0ZM45.2481 14.6073C45.7022 14.6073 46.059 14.5425 46.351 14.4453C46.6429 14.3158 46.8699 14.1215 47.0321 13.83C47.1943 13.5385 47.324 13.1498 47.3889 12.6316C47.4538 12.1457 47.4862 11.498 47.4862 10.7206V5.66802C47.4862 4.89069 47.4538 4.2753 47.3889 3.75708C47.324 3.23887 47.1943 2.88259 47.0321 2.59109C46.8699 2.29959 46.6429 2.10526 46.351 1.97571C46.059 1.84615 45.7022 1.81376 45.2481 1.81376H44.5994V14.6073H45.2481Z" fill="#353F58"/>
<path d="M51.8976 0H57.9631V1.94332H54.3627V6.83401H57.1198V8.77733H54.3627V14.3806H58.0604V16.3239H51.8976V0Z" fill="#353F58"/>
<path d="M67.3047 0H69.8022C70.1266 0 70.4509 0 70.8402 0.0323887C71.2294 0.0647773 71.5862 0.129555 71.9754 0.226721C72.3647 0.323887 72.7215 0.48583 73.0458 0.712551C73.4026 0.939271 73.6945 1.23077 73.9865 1.58704C74.2459 1.97571 74.473 2.42915 74.6352 2.97976C74.7974 3.53036 74.8947 4.21053 74.8947 5.02024V5.60324C74.8947 6.47773 74.8298 7.22267 74.6676 7.83806C74.5054 8.45344 74.3108 8.97166 74.0838 9.39271C73.8243 9.81376 73.5324 10.17 73.208 10.3968C72.8836 10.6559 72.5268 10.8502 72.17 10.9798C71.8132 11.1093 71.4565 11.2065 71.0997 11.2389C70.7429 11.2713 70.3861 11.3036 70.0941 11.3036H69.8671V16.2915H67.3695V0H67.3047ZM69.8995 9.55466C70.3536 9.55466 70.7104 9.48988 71.0348 9.36032C71.3267 9.23077 71.5862 9.03644 71.7808 8.74494C71.9754 8.45344 72.1052 8.09717 72.17 7.67611C72.2349 7.25506 72.2998 6.70445 72.2998 6.08907V4.59919C72.2998 4.11336 72.2674 3.69231 72.2025 3.33603C72.1376 2.97976 72.0079 2.68826 71.8132 2.46154C71.6186 2.23482 71.3916 2.07287 71.0672 1.94332C70.7753 1.84615 70.3861 1.78138 69.8995 1.78138H69.7698V9.52227H69.8995V9.55466Z" fill="#353F58"/>
<path d="M76.3218 0H78.8193V6.83401H81.771V0H84.2686V16.3563H81.7386V8.80972H78.7869V16.3563H76.2893V0H76.3218Z" fill="#353F58"/>
<path d="M86.6365 0H89.134V16.3563H86.6365V0Z" fill="#353F58"/>
<path d="M94.129 0H96.9834L99.9999 16.3563H97.5024L97.0483 13.4413H94.0642L93.6425 16.3563H91.1125L94.129 0ZM96.7563 11.5628L95.6211 3.4332H95.5238L94.3561 11.5628H96.7563Z" fill="#353F58"/>
<path d="M62.3419 14.3807H65.7152V16.3564H59.8443" fill="#353F58"/>
<path d="M26.7274 14.3807H30.1007V16.3564H24.2298" fill="#353F58"/>
</svg>
