<svg width="12" height="12" viewBox="0 0 12 12" fill="none" xmlns="http://www.w3.org/2000/svg">
<path fill-rule="evenodd" clip-rule="evenodd" d="M5.31935 3.80292C5.62534 3.38293 5.73926 2.93897 5.38526 2.54898C4.59927 1.44503 4.07127 0.767039 3.73527 0.437051C3.10527 -0.186926 2.06131 -0.102929 1.51531 0.437051C1.22131 0.72504 1.11937 0.827057 0.819368 1.13305C-0.866623 2.81898 0.159342 6.37688 2.88933 9.10677C5.61932 11.8427 9.17732 12.8686 10.8633 11.1767C11.1453 10.9127 11.3793 10.6727 11.5653 10.4747C12.1053 9.91069 12.1833 8.91477 11.5653 8.26679C11.2473 7.9368 10.5932 7.43282 9.44125 6.61085C9.09325 6.29286 8.6733 6.36486 8.2893 6.61085C8.1033 6.73684 7.97133 6.85681 7.71933 7.1088L7.25732 7.5708C7.19732 7.63079 6.3753 7.21678 5.5773 6.41881C4.77931 5.62084 4.36536 4.79892 4.42536 4.73892L4.88722 4.27692C4.96522 4.19893 5.00724 4.15691 5.05524 4.10891C5.15724 4.00092 5.24135 3.89891 5.31935 3.80292ZM8.10927 8.41679L8.56528 7.9608C8.70328 7.8168 8.79328 7.73282 8.87128 7.67282C9.87928 8.39879 10.4613 8.85478 10.7013 9.10077C10.8453 9.25076 10.8213 9.52071 10.6953 9.6527C10.5213 9.8327 10.2992 10.0607 10.0232 10.3247C8.93723 11.4166 6.06327 10.5827 3.74128 8.26079C1.41329 5.93287 0.585323 3.05899 1.67132 1.97903C1.97132 1.67305 2.06725 1.57703 2.35525 1.28905C2.46325 1.18105 2.76333 1.15705 2.89533 1.28905C3.14733 1.54104 3.62726 2.15298 4.32326 3.12494C4.28726 3.17294 4.24527 3.22094 4.18527 3.28094C4.14927 3.32294 4.11328 3.35294 4.04128 3.43093L3.57927 3.88692C2.79927 4.67289 3.46522 5.99885 4.73121 7.27081C5.99121 8.53676 7.32328 9.20276 8.10927 8.41679Z"/>
</svg>
