<svg width="18" height="20" viewBox="0 0 18 20" fill="none" xmlns="http://www.w3.org/2000/svg">
<path d="M17.2075 6.52374H15.6163V6.27369C15.6163 6.1373 15.5254 6.04638 15.389 6.04638H13.6159C13.4796 6.04638 13.3886 6.1373 13.3886 6.27369V6.52374H12.5476V5.63721C12.5476 5.50082 12.4566 5.4099 12.3203 5.4099H11.661V4.38698H13.866C14.4797 4.38698 14.9571 3.88689 14.9571 3.29587C14.9571 2.70486 14.457 2.20477 13.866 2.20477H11.6838V1.88653C11.6838 1.40917 11.2973 1 10.7972 1C10.2972 1 9.91072 1.38643 9.91072 1.88653V2.20477H7.81943C7.20568 2.20477 6.72832 2.70486 6.72832 3.29587C6.72832 3.88689 7.22841 4.38698 7.81943 4.38698H9.93345V5.4099H9.29697C9.16059 5.4099 9.06966 5.50082 9.06966 5.63721V6.59193C4.79615 7.13749 1.59102 10.7745 1.59102 15.0935V16.9347H1.22731C1.09093 16.9347 1 17.0257 1 17.162V18.9351C1 19.0715 1.09093 19.1624 1.22731 19.1624H7.41026C7.54665 19.1624 7.63758 19.0715 7.63758 18.9351V17.162C7.63758 17.0257 7.54665 16.9347 7.41026 16.9347H7.06929V15.1844C7.06929 13.275 8.61503 11.7065 10.5472 11.7065H13.4114V12.0247C13.4114 12.1611 13.5023 12.2521 13.6387 12.2521H15.4117C15.5481 12.2521 15.639 12.1611 15.639 12.0247V11.7065H17.2302C17.3666 11.7065 17.4576 11.6156 17.4576 11.4792V6.75105C17.4348 6.61466 17.3212 6.52374 17.2075 6.52374ZM10.3881 1.88653C10.3881 1.65921 10.5699 1.45463 10.82 1.45463C11.07 1.45463 11.2519 1.63648 11.2519 1.88653V2.20477H10.4108V1.88653H10.3881ZM7.18295 3.29587C7.18295 2.9549 7.47846 2.65939 7.81943 2.65939H13.866C14.207 2.65939 14.5025 2.9549 14.5025 3.29587C14.5025 3.63685 14.207 3.93235 13.866 3.93235H7.81943C7.45573 3.93235 7.18295 3.63685 7.18295 3.29587ZM10.3881 4.38698H11.2064V5.4099H10.3881V4.38698ZM7.16022 18.7078H1.45463V17.3894H7.18295V18.7078H7.16022ZM10.5245 11.2746C8.36499 11.2746 6.59193 13.0249 6.59193 15.2071V16.9575H2.02291V15.1162C2.02291 11.0473 5.0462 7.61485 9.04693 7.06929V7.433C9.04693 7.56938 9.13785 7.66031 9.27424 7.66031C9.41063 7.66031 9.50156 7.56938 9.50156 7.433V5.86453H12.0702V7.433C12.0702 7.56938 12.1611 7.66031 12.2975 7.66031C12.4339 7.66031 12.5248 7.56938 12.5248 7.433V6.97837H13.3659V11.2746H10.5245ZM15.1617 11.8202H13.8433V6.50101H15.1617V11.8202ZM15.6163 6.97837H16.0709V11.2746H15.6163V6.97837ZM16.9802 11.2746H16.5256V6.97837H16.9802V11.2746Z" fill="url(#paint0_linear)" stroke="url(#paint1_linear)" stroke-width="0.2"/>
<defs>
<linearGradient id="paint0_linear" x1="1" y1="19.1624" x2="18.2358" y2="18.3912" gradientUnits="userSpaceOnUse">
<stop stop-color="#9242AE"/>
<stop offset="1" stop-color="#1976E3"/>
</linearGradient>
<linearGradient id="paint1_linear" x1="1" y1="19.1624" x2="18.2358" y2="18.3912" gradientUnits="userSpaceOnUse">
<stop stop-color="#9242AE"/>
<stop offset="1" stop-color="#1976E3"/>
</linearGradient>
</defs>
</svg>
