<svg width="10" height="12" viewBox="0 0 10 12" fill="none" xmlns="http://www.w3.org/2000/svg">
<path fill-rule="evenodd" clip-rule="evenodd" d="M4.99679 12C1.6656 10.5436 0 9.08727 0 7.63636V2.18182C0 1.76182 0.161067 1.66367 0.616331 1.3964C0.755131 1.31458 0.916079 1.21636 1.1104 1.09091C1.19923 1.03091 3.08691 0 4.99679 0C6.66239 0 8.05039 0.545455 8.88319 1.09091C9.07751 1.21636 9.23846 1.31458 9.37726 1.3964C9.83252 1.66367 9.99359 1.76182 9.99359 2.18182C10.0047 2.30182 9.99914 4.82184 9.99359 6.43093C9.99359 6.98184 9.99359 7.42909 9.99359 7.63636C9.99359 9.09273 8.32799 10.5436 4.99679 12ZM8.88319 7.63636C8.88319 7.51091 8.88319 7.29818 8.88319 6.95455L8.88875 5.89094C8.88875 5.5473 8.88875 5.25272 8.88875 4.96908C8.88875 3.75272 8.88875 2.70545 8.88875 2.38363L8.81108 2.33456C8.63342 2.22547 8.40011 2.08366 8.26686 1.99638C7.44516 1.46184 6.25154 1.09091 4.99679 1.09091C3.79756 1.09091 2.23751 1.66366 1.72673 1.99638C1.59348 2.08366 1.36017 2.22547 1.18251 2.33456L1.1104 2.37817V7.63636C1.1104 8.46 2.34849 9.58366 4.99679 10.8C7.6451 9.58366 8.88319 8.46 8.88319 7.63636ZM6.82342 3.97639L4.4416 6.3218L3.17017 5.06729L2.38183 5.8418L4.4416 7.86002L7.61176 4.75089L6.82342 3.97639Z"/>
</svg>
