<svg width="17" height="14" viewBox="0 0 17 14" fill="none" xmlns="http://www.w3.org/2000/svg">
<path d="M16.3687 12.1183L15.9341 11.6835C15.9087 11.6581 15.8782 11.6379 15.8442 11.6238C15.8429 11.6232 15.8414 11.623 15.8402 11.6225C15.8091 11.6103 15.7755 11.6029 15.7402 11.6029H15.1513V11.0143C15.1513 10.9788 15.144 10.9454 15.1318 10.9143C15.1312 10.913 15.131 10.9115 15.1305 10.9103C15.1166 10.8765 15.0963 10.8457 15.0707 10.8203L14.4818 10.2315C14.4564 10.2061 14.4259 10.1858 14.3919 10.1717C14.3906 10.1712 14.3892 10.171 14.3879 10.1704C14.3568 10.1582 14.3232 10.1509 14.2879 10.1509H13.6992V9.56219C13.6992 9.52673 13.6919 9.49329 13.6799 9.46222C13.6793 9.46076 13.6791 9.45948 13.6786 9.45801C13.6647 9.4242 13.6444 9.39368 13.6188 9.36828L13.1497 8.89912C13.4059 8.01819 13.1634 7.05392 12.5084 6.39889C12.0306 5.92114 11.3953 5.65796 10.7196 5.65796C10.7193 5.65796 10.7189 5.65796 10.7187 5.65796C10.5478 5.65796 10.3799 5.67514 10.2161 5.70804C9.83157 4.82839 9.11897 4.00632 8.51146 3.47191L8.76148 2.1295C8.77811 2.04068 8.74979 1.94948 8.68582 1.88551L6.88065 0.0803398C6.81668 0.016372 6.72566 -0.0119566 6.63666 0.00467499L4.28593 0.44258C4.23147 0.452815 4.18139 0.479133 4.14228 0.518245L0.0803252 4.57965C-0.0267751 4.68657 -0.0267751 4.86038 0.0803252 4.96729L3.7985 8.68547C3.84985 8.73682 3.91967 8.7657 3.99241 8.7657C4.06515 8.7657 4.13479 8.73682 4.18633 8.68547L6.85195 6.01966C7.24435 6.60889 7.73635 7.09907 8.29762 7.45308C8.03572 8.31811 8.24535 9.29663 8.92798 9.97926C9.41103 10.4623 10.0619 10.7209 10.7235 10.7209C10.959 10.7209 11.1957 10.6864 11.4269 10.6193L14.6472 13.8396C14.6926 13.8849 14.7523 13.9129 14.8163 13.9188L15.7055 13.9995C15.7139 14.0003 15.7223 14.0006 15.7305 14.0006C15.8491 14.0006 15.9557 13.9237 15.9919 13.8087L16.4363 12.3943C16.467 12.2969 16.4409 12.1905 16.3687 12.1183ZM3.99241 8.10409L0.661884 4.77356L1.21694 4.21851L4.54747 7.54885L3.99241 8.10409ZM4.93511 7.16121L1.60459 3.83086L4.46943 0.966019L6.5948 0.57015L8.19582 2.17117L7.79995 4.29636L6.96911 5.1274C6.74065 4.65751 6.5747 4.13736 6.48514 3.58376C6.62167 3.5335 6.74778 3.45692 6.8536 3.3511C7.2502 2.9545 7.2502 2.30916 6.8536 1.91256C6.66151 1.72047 6.40619 1.61465 6.13442 1.61465C5.86265 1.61465 5.60732 1.72047 5.41505 1.91256C5.01845 2.30916 5.01845 2.9545 5.41505 3.3511C5.56017 3.49604 5.74129 3.59144 5.93813 3.62982C6.04523 4.31848 6.26071 4.96163 6.56282 5.53368L4.93511 7.16121ZM6.42099 2.99946C6.4135 2.87792 6.40857 2.75565 6.40857 2.63174C6.40857 2.48023 6.28575 2.35759 6.13442 2.35759C5.98309 2.35759 5.86027 2.48023 5.86027 2.63174C5.86027 2.76242 5.86557 2.89163 5.87306 3.01993C5.84802 3.00367 5.82427 2.98484 5.8027 2.96328C5.61993 2.78051 5.61993 2.48297 5.8027 2.3002C5.89116 2.21156 6.00904 2.16295 6.13423 2.16295C6.25943 2.16295 6.37713 2.21175 6.46559 2.3002C6.64835 2.48297 6.64835 2.78051 6.46559 2.96328C6.45206 2.97698 6.43616 2.98777 6.42099 2.99946ZM7.24636 5.62525L8.24773 4.62388C8.28684 4.58477 8.31316 4.53469 8.32339 4.48023L8.3923 4.11049C8.94809 4.6502 9.422 5.2939 9.68975 5.87801C9.40975 6.00284 9.15132 6.1772 8.92798 6.40054C8.76221 6.56631 8.62678 6.75053 8.51676 6.94536C8.02128 6.61803 7.58904 6.16623 7.24636 5.62525ZM15.5351 13.4337L14.9649 13.3818L11.6967 10.1138C11.6186 10.0357 11.5055 10.016 11.4083 10.0518L11.4077 10.0504C10.6836 10.3181 9.86228 10.1381 9.31563 9.59143C8.80937 9.08517 8.63702 8.37148 8.79401 7.72175C8.99396 7.81313 9.20048 7.88788 9.41267 7.94509C9.44192 8.15728 9.53403 8.36215 9.69669 8.52482C9.88878 8.7169 10.1441 8.82272 10.4159 8.82272C10.6876 8.82272 10.943 8.7169 11.1352 8.52482C11.5318 8.12822 11.5318 7.48287 11.1352 7.08627C10.943 6.89419 10.6876 6.78855 10.4159 6.78855C10.1441 6.78855 9.88878 6.89437 9.69669 7.08645C9.60476 7.17839 9.53641 7.28476 9.48706 7.39734C9.31873 7.34836 9.15443 7.28658 8.99506 7.21238C9.08096 7.06069 9.18659 6.91721 9.31581 6.788C9.55066 6.55315 9.83395 6.38445 10.143 6.29088C10.1441 6.29051 10.1452 6.2907 10.1461 6.29033C10.1465 6.29015 10.1468 6.28996 10.147 6.28978C10.3302 6.23477 10.5224 6.20608 10.7189 6.20608C10.7191 6.20608 10.7193 6.20608 10.7196 6.20608C11.2489 6.20608 11.7464 6.41205 12.1207 6.78635C12.6672 7.33282 12.8476 8.15417 12.5796 8.87865L12.5811 8.8792C12.5453 8.97643 12.565 9.08956 12.643 9.1676L13.1511 9.67569V10.425C13.1511 10.5765 13.274 10.6992 13.4253 10.6992H14.1746L14.6032 11.1278V11.8771C14.6032 12.0286 14.726 12.1512 14.8773 12.1512H15.6265L15.8635 12.3883L15.5351 13.4337ZM10.4157 7.53185C10.2938 7.53185 10.1735 7.52399 10.0544 7.51102C10.0642 7.49877 10.0728 7.4858 10.0842 7.47447C10.1726 7.38601 10.2905 7.33721 10.4155 7.33721C10.5409 7.33721 10.6586 7.38601 10.747 7.47447C10.9298 7.65723 10.9298 7.95477 10.747 8.13754C10.5699 8.31464 10.2613 8.31482 10.084 8.13754C10.0595 8.11305 10.039 8.08636 10.0211 8.0584C10.1512 8.07174 10.2825 8.08015 10.4155 8.08015C10.5668 8.08015 10.6897 7.95751 10.6897 7.806C10.6897 7.65449 10.567 7.53185 10.4157 7.53185Z" fill="url(#paint0_linear)"/>
<defs>
<linearGradient id="paint0_linear" x1="-6.12773e-08" y1="14.0006" x2="17.2034" y2="13.0025" gradientUnits="userSpaceOnUse">
<stop stop-color="#9242AE"/>
<stop offset="1" stop-color="#1976E3"/>
</linearGradient>
</defs>
</svg>
