<svg width="58" height="58" viewBox="0 0 58 58" fill="none" xmlns="http://www.w3.org/2000/svg">
<g filter="url(#filter0_d)">
<path d="M29 54C42.8071 54 54 42.8071 54 29C54 15.1929 42.8071 4 29 4C15.1929 4 4 15.1929 4 29C4 42.8071 15.1929 54 29 54Z" fill="white"/>
</g>
<path d="M14.3848 36.7193H13.7329V38.7983H14.3231C14.6931 38.7983 14.975 38.7102 15.1688 38.5252C15.3626 38.3402 15.4595 38.0847 15.4595 37.7411C15.4595 37.424 15.3626 37.1685 15.1776 36.9924C14.9838 36.8074 14.7195 36.7193 14.3848 36.7193ZM14.3584 38.4283H14.1734V37.0804H14.4112C14.8076 37.0804 15.0014 37.3007 15.0014 37.75C15.0014 38.1992 14.79 38.4283 14.3584 38.4283Z" fill="#405174"/>
<path d="M16.7544 38.7894H17.9524V38.4283H17.1948V37.8909H17.8996V37.5297H17.1948V37.0804H17.9524V36.7193H16.7544V38.7894Z" fill="#405174"/>
<path d="M20.0488 37.9526C19.9872 38.1728 19.9519 38.3226 19.9431 38.4106C19.9343 38.3754 19.9255 38.3049 19.8991 38.208C19.8726 38.1111 19.855 38.023 19.8286 37.9526L19.441 36.7193H19.0005L19.7053 38.7983H20.181L20.8857 36.7193H20.4452L20.0488 37.9526Z" fill="#405174"/>
<path d="M22.0134 38.7894H23.2115V38.4283H22.4539V37.8909H23.1586V37.5297H22.4539V37.0804H23.2115V36.7193H22.0134V38.7894Z" fill="#405174"/>
<path d="M24.9556 36.7193H24.5151V38.7894H25.8013V38.4283H24.9556V36.7193Z" fill="#405174"/>
<path d="M27.9333 36.6838C27.6162 36.6838 27.3695 36.7719 27.2021 36.9569C27.0347 37.1419 26.9467 37.4062 26.9467 37.7497C26.9467 38.0933 27.0347 38.3576 27.2021 38.5426C27.3695 38.7275 27.6162 38.8156 27.9333 38.8156C28.2504 38.8156 28.4971 38.7187 28.6644 38.5426C28.8318 38.3576 28.9199 38.0933 28.9199 37.7497C28.9199 37.4062 28.8318 37.1419 28.6644 36.9569C28.4883 36.7719 28.2504 36.6838 27.9333 36.6838ZM27.9245 38.4545C27.7483 38.4545 27.6161 38.3928 27.5281 38.2783C27.44 38.1638 27.3959 37.9876 27.3959 37.7585C27.3959 37.5295 27.44 37.3533 27.5281 37.23C27.6161 37.1155 27.7483 37.0538 27.9245 37.0538C28.2768 37.0538 28.4442 37.2917 28.4442 37.7585C28.453 38.2166 28.2768 38.4545 27.9245 38.4545Z" fill="#405174"/>
<path d="M30.8752 36.7193H30.2145V38.7983H30.655V38.0583H30.84C31.0954 38.0583 31.2981 37.9966 31.439 37.8821C31.5799 37.7676 31.6504 37.5914 31.6504 37.3712C31.6504 37.1597 31.5888 36.9924 31.4566 36.8866C31.3245 36.7721 31.1307 36.7193 30.8752 36.7193ZM31.1043 37.609C31.0338 37.6619 30.9369 37.6883 30.8047 37.6883H30.655V37.0716H30.8576C30.9809 37.0716 31.069 37.0981 31.1219 37.1421C31.1747 37.195 31.21 37.2654 31.21 37.3712C31.2012 37.4857 31.1747 37.5561 31.1043 37.609Z" fill="#405174"/>
<path d="M34.0116 38.3049L33.5095 36.7193H32.9105V38.7983H33.3069V37.8292C33.3069 37.7147 33.2981 37.4945 33.2804 37.1685H33.2893L33.7914 38.7983H34.1966L34.734 37.1774H34.7428C34.734 37.4416 34.7252 37.6002 34.7252 37.6619C34.7252 37.7235 34.7252 37.7764 34.7252 37.8204V38.7983H35.1392V36.7193H34.5314L34.0116 38.3049Z" fill="#405174"/>
<path d="M36.522 38.7894H37.7201V38.4283H36.9625V37.8909H37.6672V37.5297H36.9625V37.0804H37.7201V36.7193H36.522V38.7894Z" fill="#405174"/>
<path d="M40.4684 37.6971C40.4684 37.8116 40.4772 37.9966 40.4861 38.2697H40.4772L39.5787 36.7193H39.0237V38.7983H39.4202V37.8204C39.4202 37.7059 39.4113 37.5033 39.3937 37.2302H39.4025L40.3011 38.7983H40.856V36.7193H40.4596V37.6971H40.4684Z" fill="#405174"/>
<path d="M42.0542 37.0804H42.618V38.7894H43.0584V37.0804H43.6222V36.7193H42.0542V37.0804Z" fill="#405174"/>
<path d="M50.3521 32.3237L47.2513 25.4174L49.3214 20.8454L49.2069 20.7926L47.1808 25.2588L46.0532 22.7394H45.9916H44.7583H44.6966L40.3978 32.3149H41.6927L42.9436 29.54H45.2516L43.0405 34.4291L43.155 34.4819L46.6082 26.8444L49.0659 32.3061H50.3521V32.3237ZM45.7801 28.3596H43.4721L45.3749 24.1224L46.5289 26.7035L45.7801 28.3596Z" fill="#405174"/>
<path d="M34.1172 27.188L36.989 20.8454L36.8745 20.7926L35.8526 23.0389C35.7469 22.986 35.6324 22.9332 35.5178 22.8891C34.8924 22.6425 34.2229 22.5104 33.5182 22.5104C32.1263 22.5104 30.9459 22.9949 29.9769 23.955C29.0079 24.9241 28.5322 26.1045 28.5322 27.5227C28.5322 28.9322 29.0167 30.1214 29.9769 31.0904C30.4878 31.6014 31.0604 31.9714 31.6947 32.218L30.6905 34.4467L30.805 34.4996L31.818 32.2621C32.3466 32.447 32.9104 32.5439 33.5182 32.5439C34.9717 32.5439 36.1521 32.0683 37.0418 31.1257C37.8346 30.3329 38.2311 29.267 38.2311 27.9192C38.2311 27.6901 38.2046 27.4435 38.1606 27.1968H34.1172V27.188ZM30.8754 30.2712C30.1619 29.54 29.8007 28.6239 29.8007 27.5227C29.8007 26.4216 30.1619 25.5055 30.8754 24.7743C31.5978 24.0519 32.4875 23.6908 33.527 23.6908C34.0643 23.6908 34.5665 23.7877 35.0333 23.9903C35.1479 24.0343 35.2536 24.096 35.3505 24.1488L32.1968 31.1169C31.7123 30.9495 31.263 30.6676 30.8754 30.2712ZM35.9143 30.5531C35.28 31.0904 34.4872 31.3547 33.527 31.3547C33.0953 31.3547 32.6901 31.2931 32.3201 31.1697L33.5975 28.342H37.0066C36.9097 29.2758 36.5485 30.0157 35.9143 30.5531Z" fill="#405174"/>
<path d="M13.777 27.9984C13.4246 27.5931 12.8696 27.2408 12.112 26.9413L14.7371 21.1537L14.6226 21.1008L13.5391 23.5057C13.3982 23.356 13.2308 23.2062 13.0458 23.0829C12.5084 22.7041 11.8742 22.5191 11.143 22.5191C10.315 22.5191 9.61023 22.7658 9.03764 23.2679C8.47386 23.77 8.19196 24.369 8.19196 25.0737C8.19196 26.0868 8.70289 26.8444 9.71594 27.3641C9.90094 27.461 10.3854 27.646 11.1518 27.9279C11.2664 27.9631 11.3721 28.0072 11.4778 28.0424L10.13 31.0199C10.0331 30.9582 9.94498 30.8966 9.85689 30.8261C9.66309 30.6587 9.49572 30.4649 9.35477 30.2271C9.21382 29.998 9.0993 29.7338 9.02002 29.4519L7.8396 29.9364C8.06864 30.738 8.49148 31.3723 9.09931 31.8391C9.26668 31.9625 9.43405 32.0682 9.61023 32.1651L8.43862 34.7461L8.55314 34.799L9.72475 32.2179C10.174 32.4293 10.6673 32.5351 11.1959 32.5351C12.0856 32.5351 12.852 32.2884 13.4774 31.7863C14.0941 31.2753 14.4024 30.6059 14.4024 29.7602C14.3936 29.0643 14.191 28.4741 13.777 27.9984ZM11.6892 26.7827C10.729 26.4568 10.1124 26.1661 9.83046 25.9282C9.575 25.6904 9.44286 25.3997 9.44286 25.0737C9.44286 24.6685 9.61023 24.3426 9.93617 24.0959C10.2709 23.8317 10.6761 23.6907 11.1518 23.6907C11.6099 23.6907 11.9975 23.8052 12.3146 24.0431C12.6053 24.2633 12.7991 24.5276 12.9137 24.8447L11.9887 26.8884C11.8918 26.862 11.7949 26.8179 11.6892 26.7827ZM12.5965 30.923C12.2354 31.2137 11.7773 31.3546 11.2135 31.3546C10.958 31.3546 10.7114 31.3106 10.4735 31.2137C10.3854 31.1784 10.3062 31.1344 10.2181 31.0904L11.5747 28.0953C12.0944 28.3067 12.4644 28.5181 12.6846 28.7295C12.9841 29.0114 13.1251 29.355 13.1251 29.7602C13.1339 30.2447 12.9577 30.6323 12.5965 30.923Z" fill="#405174"/>
<path d="M25.5283 20.8454L25.4137 20.7926L23.3964 25.2588L22.2865 22.7834L23.1674 20.8454L23.0529 20.7926L22.172 22.7482H21.0356L21.8989 20.8454L21.7844 20.7926L15.6092 34.4379L15.7237 34.4907L16.7103 32.3237H17.8467L16.8865 34.4379L17.001 34.4907L19.2385 29.5488H21.4673L19.2562 34.4379L19.3707 34.4907L22.8327 26.8532L25.2904 32.3237H26.5853L23.4581 25.4085L25.5283 20.8454ZM21.9782 28.3596H19.7495L21.6258 24.2193L22.7358 26.6947L21.9782 28.3596Z" fill="#405174"/>
<defs>
<filter id="filter0_d" x="0" y="0" width="58" height="58" filterUnits="userSpaceOnUse" color-interpolation-filters="sRGB">
<feFlood flood-opacity="0" result="BackgroundImageFix"/>
<feColorMatrix in="SourceAlpha" type="matrix" values="0 0 0 0 0 0 0 0 0 0 0 0 0 0 0 0 0 0 127 0"/>
<feOffset/>
<feGaussianBlur stdDeviation="2"/>
<feColorMatrix type="matrix" values="0 0 0 0 0 0 0 0 0 0 0 0 0 0 0 0 0 0 0.1 0"/>
<feBlend mode="normal" in2="BackgroundImageFix" result="effect1_dropShadow"/>
<feBlend mode="normal" in="SourceGraphic" in2="effect1_dropShadow" result="shape"/>
</filter>
</defs>
</svg>
