<svg width="13" height="13" viewBox="0 0 13 13" fill="none" xmlns="http://www.w3.org/2000/svg">
<path d="M4.21484 8.42969H8.78516C8.99549 8.42969 9.16602 8.25916 9.16602 8.04883C9.16602 7.83849 8.99549 7.66797 8.78516 7.66797H4.21484C4.00451 7.66797 3.83398 7.83849 3.83398 8.04883C3.83398 8.25916 4.00451 8.42969 4.21484 8.42969Z" fill="#F7F8FA"/>
<path d="M4.21484 9.95312H8.78516C8.99549 9.95312 9.16602 9.7826 9.16602 9.57227C9.16602 9.36193 8.99549 9.19141 8.78516 9.19141H4.21484C4.00451 9.19141 3.83398 9.36193 3.83398 9.57227C3.83398 9.7826 4.00451 9.95312 4.21484 9.95312Z" fill="#F7F8FA"/>
<path d="M12.8884 2.14282L10.8572 0.111566C10.7858 0.0401172 10.6889 0 10.5879 0H0.380859C0.170523 0 0 0.170523 0 0.380859V12.6191C0 12.8295 0.170523 13 0.380859 13C0.556359 13 12.5048 13 12.6191 13C12.8295 13 13 12.8295 13 12.6191V2.41211C13 2.31108 12.9599 2.21421 12.8884 2.14282ZM3.07227 0.761719H8.4043V3.30078H3.07227V0.761719ZM9.92773 12.2383H3.07227V6.90625H9.92773V12.2383ZM12.2383 12.2383H10.6895V6.52539C10.6895 6.31505 10.5189 6.14453 10.3086 6.14453H2.69141C2.48107 6.14453 2.31055 6.31505 2.31055 6.52539V12.2383H0.761719V0.761719H2.31055V3.68164C2.31055 3.89198 2.48107 4.0625 2.69141 4.0625H8.78516C8.99549 4.0625 9.16602 3.89198 9.16602 3.68164V0.761719H10.4301L12.2383 2.56986V12.2383Z" fill="#F7F8FA"/>
<path d="M4.21484 11.4766H8.78516C8.99549 11.4766 9.16602 11.306 9.16602 11.0957C9.16602 10.8854 8.99549 10.7148 8.78516 10.7148H4.21484C4.00451 10.7148 3.83398 10.8854 3.83398 11.0957C3.83398 11.306 4.00451 11.4766 4.21484 11.4766Z" fill="#F7F8FA"/>
</svg>
