<svg width="22" height="11" viewBox="0 0 22 11" fill="none" xmlns="http://www.w3.org/2000/svg">
<path d="M8.0981 7.41784C8.55232 7.05426 9.26518 7.33304 9.39026 7.88717C9.83017 7.79919 10.3003 8.11613 10.362 8.56584C10.477 8.54968 10.5979 8.55816 10.714 8.59605C10.5261 8.42327 10.3679 8.25022 10.2579 8.10421C10.0705 7.85484 10.4508 7.57075 10.6374 7.81986C10.8552 8.1111 11.297 8.52185 11.762 8.78977C12.1264 8.99886 12.7309 9.25777 12.9723 8.76089C12.8131 8.70523 12.6525 8.62759 12.4961 8.53775C11.973 8.23671 11.4761 7.77216 11.2283 7.4417C11.0412 7.1918 11.4213 6.90798 11.6078 7.15682C11.8262 7.44885 12.2671 7.85908 12.732 8.127C12.9705 8.264 13.2132 8.36365 13.4234 8.38273C13.6889 8.40658 13.8405 8.30322 13.9454 8.09387C13.4268 7.90519 12.795 7.55326 12.4039 7.15761C12.1853 6.93474 12.5242 6.60322 12.742 6.82556C12.9911 7.07705 13.5349 7.44461 14.0729 7.63488C14.388 7.73558 14.825 7.86915 15.0855 7.57897C13.7488 7.26785 12.3368 5.96721 11.2063 5.05825C10.3252 4.94377 10.065 5.14199 9.73424 5.39613C9.47003 5.59859 9.16527 5.83179 8.58253 6.00511C7.83283 6.18372 7.07121 5.43376 7.63805 4.86691C7.71914 4.68592 8.92889 3.49419 9.73954 3.22018C10.1662 3.02672 10.5862 2.90111 10.9843 2.81472C10.374 2.69414 9.42127 2.71296 8.17999 3.37574L8.14395 3.39111C7.59035 3.57767 7.11149 3.65611 6.70444 3.66963L4.62602 7.26918L6.07718 7.21909C6.15589 7.21724 6.24943 7.28879 6.25235 7.28879L6.71398 7.52703C6.80117 7.3349 6.95911 7.19365 7.1425 7.12422C7.47216 6.99967 7.8914 7.13005 8.0981 7.41784ZM6.16834 3.64789H6.16702L6.28044 3.40462L3.79443 1.96962L1.56204 5.83683L4.06924 7.28402L6.16834 3.64789ZM6.82025 3.19315C7.14912 3.16877 7.53232 3.09563 7.97593 2.94722C10.1572 1.79128 11.5948 2.46306 11.9542 2.67294C12.9519 2.66287 13.974 3.38077 14.3511 3.67519L15.2121 3.11789L15.1681 3.04183C15.1024 2.92867 15.1414 2.78266 15.2543 2.7172L18.173 1.03204C18.2859 0.966317 18.4319 1.00501 18.4974 1.1179L20.968 5.39666C21.0338 5.50981 20.9948 5.65583 20.8819 5.72129L17.9631 7.40671C17.8503 7.47217 17.7042 7.43321 17.6388 7.32059L17.5988 7.25116C16.839 7.58162 16.1884 7.7006 15.589 7.65608C15.3711 8.13866 14.9164 8.27778 14.4129 8.20862C14.2481 8.62308 13.921 8.87961 13.4464 8.85894C13.2469 9.36668 12.8719 9.5718 12.3382 9.5082C12.2825 9.95314 11.4512 9.87814 11.156 9.84581L11.1165 9.933C10.8552 10.5136 10.0454 10.5287 9.71118 10.0175C9.33514 10.2698 8.7842 10.1291 8.55815 9.74485C8.06206 10.0287 7.3802 9.66905 7.3484 9.09373C6.76354 9.15256 6.24811 8.56107 6.52106 7.95819C6.31489 7.84795 6.14714 7.75493 6.04087 7.69557L4.34405 7.7536C4.2725 7.84689 4.14053 7.87471 4.03691 7.81403L1.11816 6.12886C1.005 6.06314 0.966308 5.91713 1.03203 5.80423L3.5024 1.52574C3.56812 1.41285 3.71414 1.37389 3.82703 1.43961L6.74552 3.12478C6.77626 3.14227 6.80117 3.16612 6.82025 3.19315ZM15.4491 3.52811L14.4799 4.15591C14.3869 4.22693 14.2523 4.22004 14.1675 4.13524C12.9331 2.90085 11.39 2.99413 9.93431 3.65319C9.28797 3.94682 8.6244 4.41296 8.00588 5.16769C7.75651 5.47298 8.29023 5.60813 8.44632 5.54983C8.94744 5.40063 9.2143 5.19658 9.44591 5.01903C9.87389 4.69095 10.2081 4.43522 11.3362 4.59661C11.3362 4.59661 11.4425 4.64007 11.4512 4.64696C13.2744 6.11323 14.8464 7.86915 17.3595 6.83696L15.4491 3.52811ZM18.2054 1.56178L15.6982 3.00923L17.9308 6.87671L20.438 5.42899L18.2054 1.56178ZM11.2172 9.0031C11.276 9.13375 11.3062 9.22862 11.3009 9.38391C11.3195 9.38577 11.9142 9.42075 11.8625 9.36907C11.7493 9.32084 11.6364 9.26413 11.5262 9.20026C11.422 9.14064 11.3174 9.07386 11.2172 9.0031ZM10.2054 9.20106C10.1641 9.29222 10.123 9.38577 10.0811 9.47772C9.93087 9.84263 10.5213 10.1002 10.6835 9.73981L10.8043 9.47004C10.9562 9.10301 10.362 8.8547 10.2054 9.20106ZM9.27446 8.50887L8.94505 9.24558C8.8054 9.60598 9.39291 9.85588 9.55112 9.49919C9.65686 9.2636 9.76286 9.02775 9.86833 8.79163C10.0273 8.43387 9.45121 8.16569 9.27446 8.50887ZM7.86834 8.88014C7.67383 9.3166 8.28731 9.55563 8.44711 9.19602C8.59922 8.85364 8.75425 8.50993 8.90636 8.16993C9.06934 7.80422 8.46831 7.5371 8.30639 7.90095C8.16011 8.22717 8.01409 8.55312 7.86834 8.88014ZM7.14541 7.72419L6.94215 8.17788C6.77811 8.54623 7.37994 8.80408 7.53894 8.45401C7.60943 8.29898 7.67727 8.14184 7.74803 7.98628C7.89829 7.62269 7.30653 7.36564 7.14541 7.72419Z" fill="url(#paint0_linear)" stroke="url(#paint1_linear)" stroke-width="0.1"/>
<defs>
<linearGradient id="paint0_linear" x1="1" y1="10.3856" x2="21.7578" y2="8.20118" gradientUnits="userSpaceOnUse">
<stop stop-color="#9242AE"/>
<stop offset="1" stop-color="#1976E3"/>
</linearGradient>
<linearGradient id="paint1_linear" x1="1" y1="10.3856" x2="21.7578" y2="8.20118" gradientUnits="userSpaceOnUse">
<stop stop-color="#9242AE"/>
<stop offset="1" stop-color="#1976E3"/>
</linearGradient>
</defs>
</svg>
