<svg width="19" height="19" viewBox="0 0 19 19" fill="none" xmlns="http://www.w3.org/2000/svg">
<path d="M1.64078 8.47622C1.45177 8.56417 1.29139 8.70366 1.17807 8.87865C1.06474 9.05364 1.00306 9.25704 1.00011 9.46551C0.997159 9.67397 1.05305 9.87903 1.16138 10.0572C1.2697 10.2353 1.42607 10.3793 1.61251 10.4725L6.22114 12.7771L8.52546 17.3861C8.61846 17.5726 8.76219 17.7292 8.94014 17.8378C9.1181 17.9464 9.32306 18.0026 9.53151 17.9999C9.73995 17.9973 9.94342 17.9358 10.1186 17.8228C10.2937 17.7097 10.4334 17.5495 10.5216 17.3606L18 1.37606L17.7766 1.22056L17.624 1L1.64078 8.47622ZM1.56726 9.47438C1.56675 9.37196 1.59584 9.27158 1.65101 9.1853C1.70618 9.09902 1.78511 9.03053 1.87828 8.98803L16.4054 2.20174L6.37664 12.2313L1.86696 9.96921C1.77411 9.92506 1.69623 9.85465 1.64297 9.7667C1.5897 9.67875 1.56338 9.57713 1.56726 9.47438ZM10.0098 17.109C9.96798 17.204 9.89891 17.2845 9.81136 17.3404C9.72381 17.3963 9.62168 17.4249 9.51786 17.4228C9.41688 17.4233 9.3178 17.3955 9.23184 17.3425C9.14588 17.2896 9.07649 17.2135 9.03155 17.1231L6.76965 12.5989L16.7955 2.57214L10.0098 17.109Z" fill="#F7F8FA" stroke="#F7F8FA" stroke-width="0.3"/>
</svg>
