<svg width="15" height="16" viewBox="0 0 15 16" fill="none" xmlns="http://www.w3.org/2000/svg">
<path d="M3.49108 13.915C4.14566 13.2362 4.63054 12.3634 4.82449 11.9512C5.1639 11.1997 5.1639 11.1997 5.74575 11.3451C5.86696 11.3694 6.01243 11.2967 6.03667 11.1754C6.06091 11.0542 5.98818 10.9088 5.86696 10.8845C4.92146 10.6421 4.80024 10.836 4.3881 11.7573C4.16991 12.2422 3.68503 13.0422 3.15167 13.5756C3.0547 13.6725 3.0547 13.818 3.15167 13.915C3.20016 13.9635 3.24865 13.9877 3.32138 13.9877C3.39411 13.9877 3.4426 13.9635 3.49108 13.915Z" fill="url(#paint0_linear)"/>
<path d="M7.46705 12.5089C7.34583 12.4604 7.20037 12.5331 7.15188 12.6544C6.83671 13.5999 6.37608 14.1332 5.74575 14.2787C5.21239 14.3999 4.33961 14.4969 3.56382 14.3514C3.4426 14.3272 3.29714 14.4242 3.29714 14.5454C3.27289 14.6666 3.36987 14.8121 3.49109 14.8121C3.78201 14.8605 4.09718 14.8848 4.3881 14.8848C4.94571 14.8848 5.47907 14.8121 5.86697 14.7393C6.66701 14.5696 7.24886 13.915 7.61251 12.7998C7.661 12.6786 7.58827 12.5331 7.46705 12.5089Z" fill="url(#paint1_linear)"/>
<path d="M13.6492 0.120388C13.4552 -0.000830441 13.2128 -0.0250741 12.9704 0.0234132C12.7522 0.0719006 12.5582 0.217363 12.437 0.435556L7.37008 9.16328L7.27311 9.11479C7.07916 9.01782 6.88521 8.96933 6.66701 9.04206C6.47306 9.09055 6.30336 9.23601 6.18214 9.40572L5.91546 9.86635C4.26689 9.55118 3.70928 10.6179 3.24865 11.5634C2.71529 12.6301 2.20618 13.6484 0.266681 13.3574C0.242437 13.3574 0.218193 13.3574 0.19395 13.3574C0.169706 13.3574 0.145462 13.3817 0.121218 13.3817C0.0969747 13.3817 0.0969748 13.4059 0.0727311 13.4059C0.0727311 13.4059 0.072731 13.4302 0.0484873 13.4302C0.0484873 13.4302 0.0484873 13.4302 0.0484873 13.4544C0.0242436 13.4787 0 13.5029 0 13.5271C0 13.5271 0 13.5271 0 13.5514C0 13.5756 0 13.5999 0 13.6484C0 13.6968 0.0484874 13.7696 0.0969748 13.8423C0.581848 14.5696 2.885 16 4.94571 16C4.96995 16 4.96996 16 4.9942 16C5.11542 16 5.23664 16 5.3821 15.9758C5.40634 16 5.45483 16 5.47907 16H10.0126C10.1581 16 10.2551 15.903 10.2551 15.7576C10.2551 15.6121 10.1581 15.5151 10.0126 15.5151H6.81247C7.73374 14.9575 8.55802 13.8666 8.92168 11.7574L9.26109 11.1755C9.47928 10.7876 9.35806 10.3027 8.97016 10.0845L8.89743 10.0361L13.9644 1.30833C14.2068 0.896186 14.0613 0.362825 13.6492 0.120388ZM6.61853 9.64816C6.66701 9.57542 6.7155 9.52694 6.81247 9.50269C6.88521 9.47845 6.98218 9.50269 7.05491 9.52694L7.34584 9.69664L7.90344 10.0118L8.75197 10.4967C8.89743 10.5937 8.94592 10.7634 8.87319 10.9088L8.63075 11.321L6.42458 10.0361L6.61853 9.64816ZM5.30937 15.4909C5.18815 15.5151 5.06693 15.5151 4.92147 15.5151C4.87298 15.5151 4.84874 15.5151 4.80025 15.5151C4.70327 15.5151 4.63054 15.5151 4.53357 15.4909C4.48508 15.4909 4.43659 15.4909 4.38811 15.4666C4.29113 15.4666 4.2184 15.4424 4.12143 15.4182C4.07294 15.4182 4.0487 15.3939 4.00021 15.3939C3.87899 15.3697 3.75777 15.3454 3.6608 15.3212H3.63655C3.51533 15.2969 3.36987 15.2484 3.24865 15.2C3.22441 15.2 3.22441 15.1757 3.20017 15.1757C3.10319 15.1272 2.98197 15.103 2.885 15.0545C2.86075 15.0545 2.83651 15.0303 2.81227 15.0303C2.71529 14.9818 2.59407 14.9333 2.4971 14.909C2.47286 14.909 2.47286 14.8848 2.44861 14.8848C1.7213 14.5454 1.13945 14.1575 0.775798 13.8666C2.59407 13.915 3.20017 12.7271 3.68504 11.7574C4.16991 10.7876 4.55781 10.0118 5.96395 10.3512L8.41256 11.7816C8.00042 14.0847 6.95794 15.3212 5.30937 15.4909ZM8.2671 8.55719L8.84894 9.13904L8.46105 9.79362L7.78222 9.40572L8.2671 8.55719ZM13.528 1.09014L9.09138 8.70265L8.50953 8.1208L12.8492 0.677993C12.8976 0.581018 12.9946 0.532531 13.0916 0.484043C13.1886 0.4598 13.3098 0.459799 13.3825 0.532531C13.5765 0.653749 13.6492 0.896186 13.528 1.09014Z" fill="url(#paint2_linear)"/>
<path d="M11.8309 14.4241H9.55201C9.40655 14.4241 9.30957 14.5211 9.30957 14.6666C9.30957 14.812 9.40655 14.909 9.55201 14.909H11.8309C11.9764 14.909 12.0733 14.812 12.0733 14.6666C12.0733 14.5211 11.9764 14.4241 11.8309 14.4241Z" fill="url(#paint3_linear)"/>
<defs>
<linearGradient id="paint0_linear" x1="3.07894" y1="13.9877" x2="6.18112" y2="13.8458" gradientUnits="userSpaceOnUse">
<stop stop-color="#9242AE"/>
<stop offset="1" stop-color="#1976E3"/>
</linearGradient>
<linearGradient id="paint1_linear" x1="3.2934" y1="14.8848" x2="7.80558" y2="14.4809" gradientUnits="userSpaceOnUse">
<stop stop-color="#9242AE"/>
<stop offset="1" stop-color="#1976E3"/>
</linearGradient>
<linearGradient id="paint2_linear" x1="-5.24596e-08" y1="16" x2="14.7495" y2="15.3589" gradientUnits="userSpaceOnUse">
<stop stop-color="#9242AE"/>
<stop offset="1" stop-color="#1976E3"/>
</linearGradient>
<linearGradient id="paint3_linear" x1="9.30957" y1="14.909" x2="11.9969" y2="14.1526" gradientUnits="userSpaceOnUse">
<stop stop-color="#9242AE"/>
<stop offset="1" stop-color="#1976E3"/>
</linearGradient>
</defs>
</svg>
