<svg width="17" height="21" viewBox="0 0 17 21" fill="none" xmlns="http://www.w3.org/2000/svg">
<path d="M8.93797 3.98743C6.70106 3.98743 4.39087 5.6135 4.39087 8.3349C4.39087 9.87923 4.95711 10.7134 5.49776 11.5202C5.85985 12.061 6.21697 12.5717 6.39554 13.2916C6.54541 13.896 6.57369 15.4511 6.57369 16.0365V16.128C6.57369 16.8794 7.1195 17.0786 7.38931 17.0996C7.39282 17.0998 7.39591 17.1017 7.39942 17.1017H10.2895C10.2944 17.1017 10.2986 17.0992 10.3035 17.0988C10.3085 17.0992 10.313 17.1017 10.318 17.1017C10.71 17.1017 11.3216 16.8424 11.3216 16.128V16.0365C11.3216 15.4511 11.2919 13.896 11.4418 13.2916C11.6204 12.5717 11.9345 12.0608 12.2968 11.5202C12.8373 10.7136 13.3971 9.87944 13.3971 8.3349C13.3971 5.64962 11.0832 3.98743 8.93797 3.98743ZM8.72493 8.90961C8.74598 8.76903 8.80358 8.76903 8.83785 8.76903C8.87686 8.76903 8.92579 8.76903 8.93983 8.9061C8.95531 9.05515 8.90845 9.24775 8.82546 9.42549C8.74248 9.24342 8.70387 9.0504 8.72493 8.90961ZM8.83186 10.1137C8.9423 10.2068 9.06678 10.2801 9.20406 10.322C9.29159 10.3489 9.37684 10.4058 9.45921 10.4166C9.29633 11.4655 8.96811 13.5923 8.8717 14.2116H8.79161C8.6919 13.5923 8.35645 11.4898 8.16467 10.4013C8.24869 10.3963 8.33642 10.3652 8.42705 10.3462C8.57733 10.3148 8.71337 10.2186 8.83186 10.1137ZM8.63802 14.641C8.63802 14.589 8.58806 14.6245 8.63988 14.6245H9.02426C9.07628 14.6245 9.05089 14.589 9.05089 14.641V16.6888H8.63802V14.641ZM11.967 11.2904C11.601 11.8368 11.2364 12.402 11.0405 13.1921C10.8786 13.8458 10.9088 15.3811 10.9088 16.0369V16.128C10.9088 16.6546 10.4189 16.6876 10.3242 16.6888C10.3182 16.6888 10.3126 16.6917 10.3066 16.6923C10.3006 16.6917 10.2957 16.6888 10.2895 16.6888H9.46375V14.641C9.46375 14.4544 9.39522 14.293 9.24473 14.205C9.34196 13.5851 9.70259 11.392 9.86196 10.3664C10.2478 10.2921 10.5469 10.0462 10.6896 9.77127C10.8372 9.4868 10.8111 9.20543 10.6169 9.05453C10.4561 8.92922 10.2622 8.89888 10.081 8.97072C9.88302 9.04937 9.62663 9.28326 9.52465 9.949C9.52362 9.95561 9.5232 9.96242 9.52197 9.96944C9.45942 9.96201 9.39377 9.94838 9.32441 9.92712C9.23936 9.90111 9.16381 9.85239 9.09465 9.79377C9.28147 9.49155 9.37746 9.12596 9.35042 8.86358C9.31822 8.55063 9.12169 8.35617 8.83785 8.35617C8.56164 8.35617 8.36202 8.54485 8.31681 8.84872C8.27305 9.14226 8.36656 9.50455 8.55916 9.8014C8.49042 9.86292 8.41714 9.9071 8.34261 9.92258C8.25302 9.94137 8.169 9.95045 8.09035 9.95169C8.08395 9.91742 8.07755 9.88584 8.07219 9.85735C7.96856 9.33156 7.78937 9.01221 7.53938 8.90838C7.39096 8.84665 7.22726 8.8673 7.07801 8.967C6.85877 9.11316 6.79561 9.3937 6.91637 9.68209C7.03651 9.96861 7.3249 10.2359 7.73962 10.3299C7.92603 11.3783 8.33044 13.583 8.43117 14.2052C8.2811 14.2936 8.22515 14.4548 8.22515 14.641V16.6888H7.43121C7.35215 16.6874 6.98656 16.6535 6.98656 16.128V16.0369C6.98656 15.3811 6.95869 13.8458 6.79664 13.1921C6.60073 12.402 6.19241 11.837 5.8264 11.2906C5.29711 10.5004 4.79795 9.75392 4.79795 8.33511C4.79795 5.87216 6.90357 4.4005 8.93776 4.4005C10.8846 4.4005 12.9896 5.90478 12.9896 8.33511C12.9894 9.75372 12.4967 10.5002 11.967 11.2904ZM9.95031 9.91535C10.0195 9.56008 10.1402 9.39225 10.2356 9.35448C10.2498 9.3487 10.2645 9.34581 10.279 9.34581C10.3085 9.34581 10.338 9.35737 10.3675 9.38028C10.3809 9.3906 10.39 9.46801 10.3314 9.58114C10.2759 9.68828 10.1479 9.83423 9.95031 9.91535ZM7.65148 9.86333C7.4661 9.77663 7.34658 9.6408 7.29703 9.52272C7.26607 9.44861 7.24976 9.3487 7.30694 9.31071C7.33605 9.29131 7.35421 9.28656 7.36577 9.28656C7.373 9.28656 7.37775 9.28842 7.38084 9.28986C7.44133 9.31484 7.56271 9.46451 7.65148 9.86333Z" fill="url(#paint0_linear)" stroke="url(#paint1_linear)" stroke-width="0.2"/>
<path d="M10.083 17.8158H7.60585C7.49169 17.8158 7.39941 17.9081 7.39941 18.0222C7.39941 18.1364 7.49169 18.2287 7.60585 18.2287H10.083C10.1972 18.2287 10.2895 18.1364 10.2895 18.0222C10.2895 17.9081 10.1972 17.8158 10.083 17.8158Z" fill="url(#paint2_linear)" stroke="url(#paint3_linear)" stroke-width="0.2"/>
<path d="M10.083 18.8158H7.60585C7.49169 18.8158 7.39941 18.9081 7.39941 19.0222C7.39941 19.1364 7.49169 19.2287 7.60585 19.2287H10.083C10.1972 19.2287 10.2895 19.1364 10.2895 19.0222C10.2895 18.9081 10.1972 18.8158 10.083 18.8158Z" fill="url(#paint4_linear)" stroke="url(#paint5_linear)" stroke-width="0.2"/>
<path d="M9.72448 19.8158H7.93987C7.83727 19.8158 7.74582 19.8728 7.70639 19.9673C7.66738 20.0621 7.68864 20.168 7.75945 20.2386L8.29081 20.7668C8.35129 20.8288 8.43593 20.848 8.52242 20.848H9.14172C9.22842 20.848 9.31285 20.8277 9.37313 20.7658L9.90284 20.2303C9.9755 20.1579 9.99677 20.0581 9.95775 19.9634C9.91853 19.8688 9.82708 19.8158 9.72448 19.8158ZM9.10415 20.4351H8.5602L8.32032 20.2287H9.34403L9.10415 20.4351Z" fill="url(#paint6_linear)" stroke="url(#paint7_linear)" stroke-width="0.2"/>
<path d="M8.84449 2.8579C8.95865 2.8579 9.05093 2.76541 9.05093 2.65146V1.20643C9.05093 1.09248 8.95865 1 8.84449 1C8.73034 1 8.63806 1.09248 8.63806 1.20643V2.65146C8.63806 2.76541 8.73034 2.8579 8.84449 2.8579Z" fill="url(#paint8_linear)" stroke="url(#paint9_linear)" stroke-width="0.2"/>
<path d="M5.54733 3.60356C5.58573 3.66982 5.65488 3.70677 5.72631 3.70677C5.7614 3.70677 5.79691 3.6979 5.82932 3.67911C5.9282 3.62213 5.96206 3.4958 5.90487 3.39712L5.17761 2.13726C5.12043 2.03838 4.99368 2.00473 4.89562 2.06171C4.79674 2.11868 4.76289 2.24502 4.82007 2.3437L5.54733 3.60356Z" fill="url(#paint10_linear)" stroke="url(#paint11_linear)" stroke-width="0.2"/>
<path d="M2.07614 5.22737L3.3362 5.95484C3.36861 5.97363 3.40412 5.9825 3.43921 5.9825C3.51064 5.9825 3.58 5.94555 3.61819 5.87929C3.67517 5.7804 3.64131 5.65427 3.54264 5.5973L2.28257 4.86983C2.18369 4.81285 2.05756 4.84671 2.00058 4.94538C1.94361 5.04406 1.97725 5.1704 2.07614 5.22737Z" fill="url(#paint12_linear)" stroke="url(#paint13_linear)" stroke-width="0.2"/>
<path d="M2.8579 8.84443C2.8579 8.73048 2.76562 8.638 2.65146 8.638H1.20643C1.09228 8.638 1 8.73048 1 8.84443C1 8.95838 1.09228 9.05087 1.20643 9.05087H2.65146C2.76562 9.05087 2.8579 8.95838 2.8579 8.84443Z" fill="url(#paint14_linear)" stroke="url(#paint15_linear)" stroke-width="0.2"/>
<path d="M3.35995 11.7677L2.09988 12.495C2.001 12.552 1.96714 12.6783 2.02432 12.777C2.06272 12.843 2.13188 12.8802 2.2033 12.8802C2.2384 12.8802 2.2739 12.8713 2.30631 12.8525L3.56638 12.1253C3.66526 12.0683 3.69911 11.942 3.64193 11.8433C3.58475 11.7448 3.458 11.7108 3.35995 11.7677Z" fill="url(#paint16_linear)" stroke="url(#paint17_linear)" stroke-width="0.2"/>
<path d="M15.5119 12.5076L14.252 11.7803C14.1531 11.7234 14.027 11.757 13.97 11.8559C13.913 11.9548 13.9469 12.0809 14.0456 12.1379L15.3054 12.8651C15.3378 12.8839 15.3733 12.8928 15.4084 12.8928C15.4799 12.8928 15.5492 12.8559 15.5874 12.7896C15.6444 12.6909 15.6105 12.5646 15.5119 12.5076Z" fill="url(#paint18_linear)" stroke="url(#paint19_linear)" stroke-width="0.2"/>
<path d="M16.4825 8.638H15.0374C14.9233 8.638 14.831 8.73048 14.831 8.84443C14.831 8.95838 14.9233 9.05087 15.0374 9.05087H16.4825C16.5966 9.05087 16.6889 8.95838 16.6889 8.84443C16.6889 8.73048 16.5966 8.638 16.4825 8.638Z" fill="url(#paint20_linear)" stroke="url(#paint21_linear)" stroke-width="0.2"/>
<path d="M14.1727 5.96985C14.2078 5.96985 14.2433 5.96098 14.2757 5.94219L15.5357 5.21472C15.6346 5.15775 15.6685 5.03141 15.6113 4.93273C15.5541 4.83385 15.4276 4.8002 15.3293 4.85718L14.0692 5.58465C13.9704 5.64162 13.9365 5.76796 13.9937 5.86664C14.0319 5.9329 14.1012 5.96985 14.1727 5.96985Z" fill="url(#paint22_linear)" stroke="url(#paint23_linear)" stroke-width="0.2"/>
<path d="M11.7822 3.69168C11.8146 3.71047 11.8501 3.71935 11.8852 3.71935C11.9566 3.71935 12.026 3.68239 12.0642 3.61613L12.7916 2.35627C12.8486 2.25759 12.8148 2.13126 12.7161 2.07428C12.6172 2.01731 12.4911 2.05095 12.4341 2.14984L11.7066 3.4097C11.6496 3.50816 11.6835 3.6345 11.7822 3.69168Z" fill="url(#paint24_linear)" stroke="url(#paint25_linear)" stroke-width="0.2"/>
<defs>
<linearGradient id="paint0_linear" x1="4.39087" y1="17.1017" x2="13.831" y2="16.7815" gradientUnits="userSpaceOnUse">
<stop stop-color="#9242AE"/>
<stop offset="1" stop-color="#1976E3"/>
</linearGradient>
<linearGradient id="paint1_linear" x1="4.39087" y1="17.1017" x2="13.831" y2="16.7815" gradientUnits="userSpaceOnUse">
<stop stop-color="#9242AE"/>
<stop offset="1" stop-color="#1976E3"/>
</linearGradient>
<linearGradient id="paint2_linear" x1="7.39941" y1="18.2287" x2="10.1085" y2="17.2922" gradientUnits="userSpaceOnUse">
<stop stop-color="#9242AE"/>
<stop offset="1" stop-color="#1976E3"/>
</linearGradient>
<linearGradient id="paint3_linear" x1="7.39941" y1="18.2287" x2="10.1085" y2="17.2922" gradientUnits="userSpaceOnUse">
<stop stop-color="#9242AE"/>
<stop offset="1" stop-color="#1976E3"/>
</linearGradient>
<linearGradient id="paint4_linear" x1="7.39941" y1="19.2287" x2="10.1085" y2="18.2922" gradientUnits="userSpaceOnUse">
<stop stop-color="#9242AE"/>
<stop offset="1" stop-color="#1976E3"/>
</linearGradient>
<linearGradient id="paint5_linear" x1="7.39941" y1="19.2287" x2="10.1085" y2="18.2922" gradientUnits="userSpaceOnUse">
<stop stop-color="#9242AE"/>
<stop offset="1" stop-color="#1976E3"/>
</linearGradient>
<linearGradient id="paint6_linear" x1="7.68707" y1="20.848" x2="10.0616" y2="20.5878" gradientUnits="userSpaceOnUse">
<stop stop-color="#9242AE"/>
<stop offset="1" stop-color="#1976E3"/>
</linearGradient>
<linearGradient id="paint7_linear" x1="7.68707" y1="20.848" x2="10.0616" y2="20.5878" gradientUnits="userSpaceOnUse">
<stop stop-color="#9242AE"/>
<stop offset="1" stop-color="#1976E3"/>
</linearGradient>
<linearGradient id="paint8_linear" x1="8.63806" y1="2.8579" x2="9.07126" y2="2.85314" gradientUnits="userSpaceOnUse">
<stop stop-color="#9242AE"/>
<stop offset="1" stop-color="#1976E3"/>
</linearGradient>
<linearGradient id="paint9_linear" x1="8.63806" y1="2.8579" x2="9.07126" y2="2.85314" gradientUnits="userSpaceOnUse">
<stop stop-color="#9242AE"/>
<stop offset="1" stop-color="#1976E3"/>
</linearGradient>
<linearGradient id="paint10_linear" x1="4.79227" y1="3.70677" x2="5.98764" y2="3.66653" gradientUnits="userSpaceOnUse">
<stop stop-color="#9242AE"/>
<stop offset="1" stop-color="#1976E3"/>
</linearGradient>
<linearGradient id="paint11_linear" x1="4.79227" y1="3.70677" x2="5.98764" y2="3.66653" gradientUnits="userSpaceOnUse">
<stop stop-color="#9242AE"/>
<stop offset="1" stop-color="#1976E3"/>
</linearGradient>
<linearGradient id="paint12_linear" x1="1.97287" y1="5.9825" x2="3.71931" y2="5.85597" gradientUnits="userSpaceOnUse">
<stop stop-color="#9242AE"/>
<stop offset="1" stop-color="#1976E3"/>
</linearGradient>
<linearGradient id="paint13_linear" x1="1.97287" y1="5.9825" x2="3.71931" y2="5.85597" gradientUnits="userSpaceOnUse">
<stop stop-color="#9242AE"/>
<stop offset="1" stop-color="#1976E3"/>
</linearGradient>
<linearGradient id="paint14_linear" x1="1" y1="9.05087" x2="2.8579" y2="8.638" gradientUnits="userSpaceOnUse">
<stop stop-color="#9242AE"/>
<stop offset="1" stop-color="#1976E3"/>
</linearGradient>
<linearGradient id="paint15_linear" x1="1" y1="9.05087" x2="2.8579" y2="8.638" gradientUnits="userSpaceOnUse">
<stop stop-color="#9242AE"/>
<stop offset="1" stop-color="#1976E3"/>
</linearGradient>
<linearGradient id="paint16_linear" x1="1.99652" y1="12.8802" x2="3.74319" y2="12.7536" gradientUnits="userSpaceOnUse">
<stop stop-color="#9242AE"/>
<stop offset="1" stop-color="#1976E3"/>
</linearGradient>
<linearGradient id="paint17_linear" x1="1.99652" y1="12.8802" x2="3.74319" y2="12.7536" gradientUnits="userSpaceOnUse">
<stop stop-color="#9242AE"/>
<stop offset="1" stop-color="#1976E3"/>
</linearGradient>
<linearGradient id="paint18_linear" x1="13.9424" y1="12.8928" x2="15.6885" y2="12.7663" gradientUnits="userSpaceOnUse">
<stop stop-color="#9242AE"/>
<stop offset="1" stop-color="#1976E3"/>
</linearGradient>
<linearGradient id="paint19_linear" x1="13.9424" y1="12.8928" x2="15.6885" y2="12.7663" gradientUnits="userSpaceOnUse">
<stop stop-color="#9242AE"/>
<stop offset="1" stop-color="#1976E3"/>
</linearGradient>
<linearGradient id="paint20_linear" x1="14.831" y1="9.05087" x2="16.6889" y2="8.638" gradientUnits="userSpaceOnUse">
<stop stop-color="#9242AE"/>
<stop offset="1" stop-color="#1976E3"/>
</linearGradient>
<linearGradient id="paint21_linear" x1="14.831" y1="9.05087" x2="16.6889" y2="8.638" gradientUnits="userSpaceOnUse">
<stop stop-color="#9242AE"/>
<stop offset="1" stop-color="#1976E3"/>
</linearGradient>
<linearGradient id="paint22_linear" x1="13.9659" y1="5.96985" x2="15.7126" y2="5.8433" gradientUnits="userSpaceOnUse">
<stop stop-color="#9242AE"/>
<stop offset="1" stop-color="#1976E3"/>
</linearGradient>
<linearGradient id="paint23_linear" x1="13.9659" y1="5.96985" x2="15.7126" y2="5.8433" gradientUnits="userSpaceOnUse">
<stop stop-color="#9242AE"/>
<stop offset="1" stop-color="#1976E3"/>
</linearGradient>
<linearGradient id="paint24_linear" x1="11.679" y1="3.71935" x2="12.8743" y2="3.67911" gradientUnits="userSpaceOnUse">
<stop stop-color="#9242AE"/>
<stop offset="1" stop-color="#1976E3"/>
</linearGradient>
<linearGradient id="paint25_linear" x1="11.679" y1="3.71935" x2="12.8743" y2="3.67911" gradientUnits="userSpaceOnUse">
<stop stop-color="#9242AE"/>
<stop offset="1" stop-color="#1976E3"/>
</linearGradient>
</defs>
</svg>
