<?xml version="1.0" encoding="utf-8"?>
<!-- Generator: Adobe Illustrator 23.0.5, SVG Export Plug-In . SVG Version: 6.00 Build 0)  -->
<svg version="1.1" id="Layer_1" xmlns="http://www.w3.org/2000/svg" xmlns:xlink="http://www.w3.org/1999/xlink" x="0px" y="0px"
	 viewBox="0 0 12 10" style="enable-background:new 0 0 12 10;" xml:space="preserve">
<path class="st0" d="M10.8,1.7H8.4V1.1C8.4,0.5,7.9,0,7.2,0H4.8C4.1,0,3.6,0.5,3.6,1.1v0.6H1.2C0.5,1.7,0,2.2,0,2.8v6.1
	C0,9.5,0.5,10,1.2,10h9.6c0.7,0,1.2-0.5,1.2-1.1V2.8C12,2.2,11.5,1.7,10.8,1.7z M4.8,1.1h2.4v0.6H4.8V1.1z M10.8,8.9H1.2V6.7h4.2
	v0.6h1.2V6.7h4.2V8.9z M10.8,5.6H6.6H5.4H1.2V2.8h2.4h4.8h2.4V5.6z"/>
</svg>
