<svg width="20" height="20" viewBox="0 0 20 20" fill="none" xmlns="http://www.w3.org/2000/svg">
<path d="M16.9688 3.26082V2.66295C16.9688 1.74602 16.2228 1 15.3059 1H14.6134H2.65645C1.73952 1 0.9935 1.74602 0.9935 2.66295V5.19251C0.9935 6.04603 1.64028 6.75079 2.46944 6.84399V13.0928C2.46944 14.0053 3.1591 14.765 4.0394 14.822C4.07563 14.8242 4.11187 14.8254 4.1477 14.8254C4.70993 14.8254 5.24137 14.543 5.55379 14.0711C5.58358 14.026 5.62847 14.0212 5.64639 14.0212C5.66793 14.0212 5.70799 14.0274 5.73557 14.0691C6.04819 14.5426 6.57318 14.8254 7.13985 14.8254C7.36369 14.8254 7.5809 14.7779 7.78401 14.6934V18.0535C7.78401 18.5755 8.20876 19 8.73053 19H10.1086C10.6306 19 11.0552 18.5755 11.0552 18.0535V14.5907C11.2806 14.4496 11.4097 14.2567 11.5333 14.0693C11.5608 14.0276 11.6011 14.0214 11.6226 14.0214C11.6406 14.0214 11.6854 14.0262 11.7152 14.0715C12.0277 14.5432 12.5591 14.8256 13.1213 14.8256C13.1574 14.8256 13.1936 14.8244 13.2298 14.8222C14.1101 14.765 14.7998 14.0055 14.7998 13.093V9.1489H16.3528C17.8737 9.1489 19.1107 7.9119 19.1107 6.39147V5.94739C19.1107 4.63752 18.2169 3.52936 16.9688 3.26082ZM15.3059 6.85526C16.2228 6.85526 16.9688 6.10944 16.9688 5.19251V4.82554C17.3748 5.04717 17.6355 5.47031 17.6355 5.94739V6.39147C17.6355 7.09844 17.0604 7.67356 16.3534 7.67356H14.8004V6.85506H15.3059V6.85526ZM14.4195 1.37402C14.3233 2.69516 13.2178 3.74072 11.8727 3.74072H5.39718C4.05208 3.74072 2.94653 2.69516 2.85031 1.37402H14.4195ZM1.36752 5.19251V2.66295C1.36752 2.01235 1.85245 1.47427 2.47971 1.38771C2.58358 2.90834 3.85058 4.11474 5.39718 4.11474H11.8729C13.4241 4.11474 14.6937 2.90109 14.7909 1.37402H15.3061C16.0169 1.37402 16.595 1.95216 16.595 2.66295V5.19251C16.595 5.90311 16.0169 6.48125 15.3061 6.48125H2.65645C1.94566 6.48125 1.36752 5.90311 1.36752 5.19251ZM7.14025 14.4514C6.6996 14.4514 6.29136 14.2316 6.04799 13.8632C5.95881 13.7281 5.80904 13.6474 5.64699 13.6472C5.64679 13.6472 5.64679 13.6472 5.64659 13.6472C5.48354 13.6472 5.33236 13.7285 5.24218 13.8646C4.9835 14.2551 4.53299 14.48 4.06355 14.4486C3.37933 14.4043 2.84346 13.8086 2.84346 13.0926V6.85526H14.4264V7.67376H10.9736C9.71027 7.67376 8.68242 8.7016 8.68242 9.96477V10.4247C8.18339 10.4507 7.78442 10.8612 7.78442 11.3664V14.2781C7.58835 14.3898 7.36853 14.4514 7.14025 14.4514ZM10.6818 18.0535C10.6818 18.3691 10.4249 18.626 10.1092 18.626H8.73114C8.41529 18.626 8.15864 18.3691 8.15864 18.0535V11.3664C8.15864 11.0508 8.4155 10.7937 8.73114 10.7937H10.1092C10.4249 10.7937 10.6818 11.0506 10.6818 11.3664V18.0535ZM14.4264 13.0928C14.4264 13.8088 13.8903 14.4045 13.2063 14.4488C12.737 14.479 12.2863 14.2553 12.0279 13.865C11.9377 13.7287 11.7865 13.6474 11.6234 13.6474H11.6232C11.4612 13.6474 11.3112 13.7281 11.222 13.8634C11.1619 13.9546 11.1097 14.0293 11.056 14.0943V11.3666C11.056 10.8614 10.6568 10.4507 10.158 10.4249V9.96497C10.158 9.51506 10.5239 9.1491 10.9738 9.1491H14.4264V13.0928ZM18.7366 6.39147C18.7366 7.70576 17.6675 8.77488 16.3532 8.77488H14.6138C14.6136 8.77488 14.6136 8.77488 14.6134 8.77488C14.6132 8.77488 14.6132 8.77488 14.613 8.77488H10.9736C10.3174 8.77488 9.78374 9.30873 9.78374 9.96477V10.4199H9.05644V9.96477C9.05644 8.90774 9.9164 8.04778 10.9736 8.04778H14.613C14.6132 8.04778 14.6132 8.04778 14.6134 8.04778C14.6136 8.04778 14.6136 8.04778 14.6138 8.04778H16.3532C17.2663 8.04778 18.0093 7.30477 18.0093 6.39167V5.94759C18.0093 5.26377 17.5947 4.66671 16.9688 4.41569V3.64289C18.0037 3.90338 18.7366 4.84285 18.7366 5.94759V6.39147Z" fill="url(#paint0_linear)" stroke="url(#paint1_linear)" stroke-width="0.2"/>
<defs>
<linearGradient id="paint0_linear" x1="0.9935" y1="19" x2="19.9585" y2="18.0574" gradientUnits="userSpaceOnUse">
<stop stop-color="#9242AE"/>
<stop offset="1" stop-color="#1976E3"/>
</linearGradient>
<linearGradient id="paint1_linear" x1="0.9935" y1="19" x2="19.9585" y2="18.0574" gradientUnits="userSpaceOnUse">
<stop stop-color="#9242AE"/>
<stop offset="1" stop-color="#1976E3"/>
</linearGradient>
</defs>
</svg>
