<svg width="11" height="20" viewBox="0 0 11 20" fill="none" xmlns="http://www.w3.org/2000/svg">
<path d="M7.01342 1.04687C6.99874 1.03196 6.98122 1.02013 6.96191 1.01208C6.94259 1.00403 6.92186 0.999923 6.90093 1H4.87146C4.82919 1 4.78866 1.01679 4.75878 1.04668C4.72889 1.07656 4.7121 1.11709 4.7121 1.15936V2.63811C4.71189 2.65906 4.71593 2.67983 4.72399 2.69916C4.73205 2.7185 4.74395 2.736 4.75897 2.7506C4.77353 2.76583 4.79098 2.77802 4.81028 2.78647C4.82959 2.79492 4.85039 2.79945 4.87146 2.79981H6.90093C6.922 2.79945 6.9428 2.79492 6.9621 2.78647C6.98141 2.77802 6.99885 2.76583 7.01342 2.7506C7.02844 2.736 7.04034 2.7185 7.0484 2.69916C7.05646 2.67983 7.0605 2.65906 7.06029 2.63811V1.15936C7.06037 1.13843 7.05626 1.1177 7.04821 1.09838C7.04016 1.07906 7.02833 1.06155 7.01342 1.04687ZM5.03316 1.32106H6.73923V2.47641H5.03316V1.32106Z" fill="url(#paint0_linear)" stroke="url(#paint1_linear)" stroke-width="0.2"/>
<path d="M10.4302 7.9251C10.521 7.9251 10.608 7.88905 10.6722 7.82488C10.7364 7.76072 10.7724 7.67369 10.7724 7.58295V6.53774C10.7724 6.447 10.7364 6.35997 10.6722 6.29581C10.608 6.23164 10.521 6.19559 10.4302 6.19559L10.4115 6.1745C10.414 5.87321 10.326 5.5781 10.1589 5.32741C9.99173 5.07671 9.75318 4.88197 9.4741 4.7684L7.25012 3.8849C7.14625 3.84323 7.05725 3.77139 6.9946 3.67866C6.93194 3.58593 6.8985 3.47656 6.89859 3.36464V2.63816C6.89891 2.61684 6.89494 2.59567 6.88693 2.57591C6.87891 2.55615 6.86701 2.53819 6.85193 2.52312C6.83686 2.50804 6.8189 2.49614 6.79914 2.48812C6.77938 2.48011 6.75821 2.47614 6.73689 2.47646H5.04723C5.0259 2.47614 5.00473 2.48011 4.98497 2.48812C4.96521 2.49614 4.94726 2.50804 4.93218 2.52312C4.9171 2.53819 4.9052 2.55615 4.89719 2.57591C4.88918 2.59567 4.88521 2.61684 4.88552 2.63816V3.38105C4.88561 3.49296 4.85217 3.60234 4.78952 3.69507C4.72686 3.7878 4.63786 3.85963 4.534 3.90131L2.31002 4.78481C2.02874 4.89653 1.7877 5.09048 1.61838 5.34133C1.44906 5.59218 1.35932 5.88826 1.3609 6.19091L1.34215 6.212C1.25418 6.2119 1.16955 6.24568 1.10583 6.30634C1.04212 6.367 1.00422 6.44987 1 6.53774V7.57592C1 7.66666 1.03605 7.75369 1.10021 7.81785C1.16438 7.88202 1.25141 7.91807 1.34215 7.91807L1.3609 7.93916V8.85781L1.34215 8.87656C1.25141 8.87656 1.16438 8.91261 1.10021 8.97677C1.03605 9.04094 1 9.12796 1 9.21871V10.353C1 10.4437 1.03605 10.5307 1.10021 10.5949C1.16438 10.6591 1.25141 10.6951 1.34215 10.6951L1.3609 10.7139V13.9643L1.34215 13.9854C1.25141 13.9854 1.16438 14.0214 1.10021 14.0856C1.03605 14.1498 1 14.2368 1 14.3275V15.4595C1 15.5502 1.03605 15.6372 1.10021 15.7014C1.16438 15.7656 1.25141 15.8016 1.34215 15.8016L1.3609 15.8227V17.7373L1.34215 17.7584C1.25141 17.7584 1.16438 17.7945 1.10021 17.8586C1.03605 17.9228 1 18.0098 1 18.1006V18.8739C1 19.0604 1.07407 19.2392 1.20592 19.3711C1.33777 19.5029 1.51659 19.577 1.70305 19.577H10.0717C10.2582 19.577 10.437 19.5029 10.5688 19.3711C10.7007 19.2392 10.7747 19.0604 10.7747 18.8739V18.1006C10.7747 18.0098 10.7387 17.9228 10.6745 17.8586C10.6104 17.7945 10.5233 17.7584 10.4326 17.7584L10.4138 17.7373V15.8227L10.4326 15.8016C10.5233 15.8016 10.6104 15.7656 10.6745 15.7014C10.7387 15.6372 10.7747 15.5502 10.7747 15.4595V14.3275C10.7747 14.2368 10.7387 14.1498 10.6745 14.0856C10.6104 14.0214 10.5233 13.9854 10.4326 13.9854L10.4138 13.9643V10.7209L10.4326 10.7021C10.5233 10.7021 10.6104 10.6661 10.6745 10.6019C10.7387 10.5378 10.7747 10.4507 10.7747 10.36V9.22574C10.7751 9.18041 10.7664 9.13548 10.7492 9.09354C10.732 9.0516 10.7066 9.0135 10.6745 8.98145C10.6425 8.9494 10.6044 8.92404 10.5624 8.90683C10.5205 8.88963 10.4756 8.88093 10.4302 8.88124L10.4115 8.8625V7.94384L10.4302 7.9251ZM10.4302 9.20699L10.4513 9.22574V10.36L10.4302 10.3787C10.3397 10.3794 10.253 10.4156 10.189 10.4796C10.125 10.5437 10.0887 10.6303 10.0881 10.7209V13.9643C10.0881 14.055 10.1241 14.1421 10.1883 14.2062C10.2525 14.2704 10.3395 14.3064 10.4302 14.3064L10.4513 14.3275V15.4595L10.4302 15.4805C10.3395 15.4805 10.2525 15.5166 10.1883 15.5808C10.1241 15.6449 10.0881 15.7319 10.0881 15.8227V17.7373C10.0881 17.8281 10.1241 17.9151 10.1883 17.9793C10.2525 18.0434 10.3395 18.0795 10.4302 18.0795L10.4513 18.1006V18.8739C10.4513 18.9746 10.4113 19.0712 10.3401 19.1424C10.2689 19.2136 10.1724 19.2536 10.0717 19.2536H1.70071C1.60002 19.2536 1.50345 19.2136 1.43226 19.1424C1.36106 19.0712 1.32106 18.9746 1.32106 18.8739V18.1006L1.34215 18.0795C1.4329 18.0795 1.51992 18.0434 1.58409 17.9793C1.64825 17.9151 1.6843 17.8281 1.6843 17.7373V15.8227C1.6843 15.7319 1.64825 15.6449 1.58409 15.5808C1.51992 15.5166 1.4329 15.4805 1.34215 15.4805L1.32106 15.4595V14.3275L1.34215 14.3064C1.4329 14.3064 1.51992 14.2704 1.58409 14.2062C1.64825 14.1421 1.6843 14.055 1.6843 13.9643V10.7209C1.68369 10.6303 1.64744 10.5437 1.58341 10.4796C1.51938 10.4156 1.43271 10.3794 1.34215 10.3787L1.32106 10.36V9.22574L1.34215 9.20699C1.43271 9.20638 1.51938 9.17013 1.58341 9.1061C1.64744 9.04207 1.68369 8.95539 1.6843 8.86484V7.94384C1.6843 7.8531 1.64825 7.76607 1.58409 7.70191C1.51992 7.63774 1.4329 7.60169 1.34215 7.60169L1.32106 7.5806V6.53774L1.34215 6.519C1.43292 6.51777 1.51959 6.48101 1.58356 6.4166C1.64753 6.3522 1.6837 6.26528 1.6843 6.1745C1.68467 5.93785 1.75583 5.70672 1.88864 5.51085C2.02145 5.31498 2.20982 5.16333 2.42954 5.0754L4.65117 4.19424C4.81574 4.12931 4.95695 4.01635 5.05642 3.87006C5.1559 3.72377 5.20904 3.55093 5.20893 3.37402V2.79986H6.56347V3.38105C6.56413 3.55691 6.61767 3.7285 6.71714 3.87352C6.81661 4.01855 6.9574 4.1303 7.12122 4.19424L9.34286 5.07774C9.56257 5.16567 9.75095 5.31732 9.88376 5.51319C10.0166 5.70907 10.0877 5.94019 10.0881 6.17685C10.0862 6.22317 10.0936 6.2694 10.1099 6.31281C10.1262 6.35622 10.151 6.39592 10.1829 6.42956C10.2148 6.46321 10.2532 6.49012 10.2956 6.5087C10.3381 6.52728 10.3839 6.53716 10.4302 6.53774L10.4513 6.55649V7.59466L10.4302 7.61575C10.3419 7.61568 10.2569 7.64979 10.1931 7.71095C10.1294 7.7721 10.0917 7.85556 10.0881 7.94384V8.8625C10.0881 8.95346 10.1241 9.04073 10.1882 9.10527C10.2523 9.16981 10.3393 9.20637 10.4302 9.20699Z" fill="url(#paint2_linear)" stroke="url(#paint3_linear)" stroke-width="0.2"/>
<path d="M3.28023 9.99207H2.93807C2.80382 9.99207 2.67507 10.0454 2.58014 10.1403C2.48521 10.2353 2.43188 10.364 2.43188 10.4983V14.4096C2.43188 14.5438 2.48521 14.6726 2.58014 14.7675C2.67507 14.8624 2.80382 14.9158 2.93807 14.9158H3.28023C3.41285 14.9133 3.5392 14.8589 3.63211 14.7642C3.72503 14.6696 3.77707 14.5422 3.77705 14.4096V10.4983C3.77768 10.3654 3.72583 10.2377 3.63279 10.1429C3.53975 10.0481 3.41304 9.99392 3.28023 9.99207ZM3.46536 14.4096C3.46536 14.4338 3.46056 14.4577 3.45123 14.4801C3.44189 14.5024 3.42822 14.5226 3.411 14.5397C3.39377 14.5567 3.37335 14.5701 3.3509 14.5791C3.32845 14.5882 3.30443 14.5927 3.28023 14.5924H2.93807C2.88959 14.5924 2.8431 14.5731 2.80882 14.5388C2.77454 14.5045 2.75528 14.458 2.75528 14.4096V10.4983C2.75497 10.4741 2.75947 10.45 2.76852 10.4276C2.77756 10.4051 2.79098 10.3847 2.80798 10.3675C2.82499 10.3503 2.84524 10.3366 2.86758 10.3273C2.88991 10.3179 2.91387 10.3131 2.93807 10.3131H3.28023C3.32933 10.3131 3.37642 10.3326 3.41114 10.3673C3.44586 10.4021 3.46536 10.4492 3.46536 10.4983V14.4096Z" fill="url(#paint4_linear)" stroke="url(#paint5_linear)" stroke-width="0.2"/>
<path d="M6.43224 1.40541C6.41111 1.4051 6.39014 1.40899 6.37053 1.41686C6.35093 1.42473 6.33308 1.43642 6.31803 1.45125C6.30299 1.46608 6.29104 1.48375 6.28289 1.50324C6.27473 1.52273 6.27053 1.54364 6.27053 1.56477V2.23267C6.27053 2.27555 6.28757 2.31668 6.3179 2.34701C6.34822 2.37733 6.38935 2.39437 6.43224 2.39437C6.47512 2.39437 6.51625 2.37733 6.54658 2.34701C6.5769 2.31668 6.59394 2.27555 6.59394 2.23267V1.56477C6.59394 1.54364 6.58974 1.52273 6.58159 1.50324C6.57343 1.48375 6.56148 1.46608 6.54644 1.45125C6.53139 1.43642 6.51355 1.42473 6.49394 1.41686C6.47433 1.40899 6.45336 1.4051 6.43224 1.40541Z" fill="url(#paint6_linear)" stroke="url(#paint7_linear)" stroke-width="0.2"/>
<path d="M6.66424 4.6864L8.6984 5.50897C8.8992 5.59025 9.07092 5.73003 9.19128 5.91014C9.31163 6.09026 9.37506 6.30239 9.37333 6.51901C9.37333 6.5619 9.39037 6.60303 9.42069 6.63335C9.45102 6.66368 9.49214 6.68072 9.53503 6.68072C9.57792 6.68072 9.61905 6.66368 9.64937 6.63335C9.6797 6.60303 9.69673 6.5619 9.69673 6.51901C9.69804 6.23781 9.615 5.96268 9.45834 5.72916C9.30168 5.49563 9.0786 5.31445 8.81792 5.209L6.78142 4.38877C6.74159 4.37319 6.69725 4.37379 6.65786 4.39042C6.61846 4.40706 6.58711 4.43842 6.5705 4.47782C6.55528 4.51791 6.5566 4.56241 6.57418 4.60152C6.59176 4.64064 6.62415 4.67117 6.66424 4.6864Z" fill="url(#paint8_linear)" stroke="url(#paint9_linear)" stroke-width="0.2"/>
<path d="M2.87246 15.0563C2.79275 15.0563 2.71382 15.0406 2.64018 15.0101C2.56654 14.9796 2.49963 14.9349 2.44327 14.8785C2.38691 14.8222 2.3422 14.7553 2.31169 14.6816C2.28119 14.608 2.26549 14.5291 2.26549 14.4493V12.5628C2.26549 12.5199 2.24846 12.4788 2.21813 12.4485C2.18781 12.4182 2.14668 12.4011 2.10379 12.4011C2.06091 12.4011 2.01978 12.4182 1.98945 12.4485C1.95913 12.4788 1.94209 12.5199 1.94209 12.5628V14.4493C1.94209 14.698 2.04085 14.9364 2.21665 15.1122C2.39244 15.288 2.63088 15.3867 2.87949 15.3867C2.90061 15.3871 2.92159 15.3832 2.94119 15.3753C2.9608 15.3674 2.97864 15.3557 2.99369 15.3409C3.00874 15.3261 3.02069 15.3084 3.02884 15.2889C3.037 15.2694 3.04119 15.2485 3.04119 15.2274C3.04253 15.2048 3.0391 15.1821 3.03112 15.1609C3.02315 15.1397 3.01081 15.1204 2.9949 15.1043C2.97899 15.0882 2.95987 15.0756 2.93878 15.0673C2.91768 15.059 2.89509 15.0553 2.87246 15.0563Z" fill="url(#paint10_linear)" stroke="url(#paint11_linear)" stroke-width="0.2"/>
<path d="M6.54941 8.04453H9.53972C9.5826 8.04453 9.62373 8.0275 9.65406 7.99717C9.68438 7.96685 9.70142 7.92572 9.70142 7.88283C9.70142 7.83995 9.68438 7.79882 9.65406 7.76849C9.62373 7.73817 9.5826 7.72113 9.53972 7.72113H6.54941C6.50653 7.72113 6.4654 7.73817 6.43507 7.76849C6.40475 7.79882 6.38771 7.83995 6.38771 7.88283C6.38771 7.92572 6.40475 7.96685 6.43507 7.99717C6.4654 8.0275 6.50653 8.04453 6.54941 8.04453Z" fill="url(#paint12_linear)" stroke="url(#paint13_linear)" stroke-width="0.2"/>
<path d="M6.54941 10.6622H9.53972C9.5826 10.6622 9.62373 10.6452 9.65406 10.6148C9.68438 10.5845 9.70142 10.5434 9.70142 10.5005C9.70142 10.4576 9.68438 10.4165 9.65406 10.3862C9.62373 10.3558 9.5826 10.3388 9.53972 10.3388H6.54941C6.50653 10.3388 6.4654 10.3558 6.43507 10.3862C6.40475 10.4165 6.38771 10.4576 6.38771 10.5005C6.38771 10.5434 6.40475 10.5845 6.43507 10.6148C6.4654 10.6452 6.50653 10.6622 6.54941 10.6622Z" fill="url(#paint14_linear)" stroke="url(#paint15_linear)" stroke-width="0.2"/>
<path d="M6.54941 15.8508H9.53972C9.56084 15.8511 9.58181 15.8472 9.60142 15.8393C9.62102 15.8315 9.63887 15.8198 9.65392 15.8049C9.66896 15.7901 9.68091 15.7724 9.68907 15.753C9.69722 15.7335 9.70142 15.7126 9.70142 15.6914C9.70142 15.6485 9.68438 15.6074 9.65406 15.5771C9.62373 15.5468 9.5826 15.5297 9.53972 15.5297H6.54941C6.52828 15.5297 6.50737 15.5339 6.48788 15.5421C6.46839 15.5502 6.45072 15.5622 6.43589 15.5772C6.42106 15.5923 6.40937 15.6101 6.4015 15.6297C6.39363 15.6493 6.38974 15.6703 6.39005 15.6914C6.38974 15.7124 6.39364 15.7333 6.40154 15.7528C6.40943 15.7723 6.42116 15.79 6.43602 15.8048C6.45088 15.8197 6.46858 15.8314 6.48805 15.8393C6.50753 15.8472 6.5284 15.8511 6.54941 15.8508Z" fill="url(#paint16_linear)" stroke="url(#paint17_linear)" stroke-width="0.2"/>
<path d="M10.1443 18.1756C10.1233 18.1752 10.1025 18.1791 10.083 18.187C10.0635 18.1949 10.0458 18.2067 10.031 18.2215C10.0161 18.2364 10.0044 18.2541 9.99647 18.2736C9.98857 18.293 9.98466 18.3139 9.98498 18.3349V18.7099C9.98437 18.7368 9.97324 18.7624 9.95396 18.7813C9.93469 18.8001 9.90881 18.8107 9.88187 18.8106H6.50488C6.462 18.8106 6.42087 18.8277 6.39054 18.858C6.36022 18.8883 6.34318 18.9295 6.34318 18.9723C6.34318 19.0152 6.36022 19.0564 6.39054 19.0867C6.42087 19.117 6.462 19.134 6.50488 19.134H9.88187C9.99418 19.1334 10.1017 19.0885 10.1811 19.0091C10.2605 18.9297 10.3054 18.8222 10.306 18.7099V18.3349C10.306 18.3138 10.3018 18.2929 10.2937 18.2734C10.2855 18.2539 10.2736 18.2362 10.2585 18.2214C10.2435 18.2066 10.2256 18.1949 10.206 18.187C10.1864 18.1791 10.1655 18.1752 10.1443 18.1756Z" fill="url(#paint18_linear)" stroke="url(#paint19_linear)" stroke-width="0.2"/>
<defs>
<linearGradient id="paint0_linear" x1="4.71209" y1="2.79981" x2="7.16607" y2="2.6417" gradientUnits="userSpaceOnUse">
<stop stop-color="#9242AE"/>
<stop offset="1" stop-color="#1976E3"/>
</linearGradient>
<linearGradient id="paint1_linear" x1="4.71209" y1="2.79981" x2="7.16607" y2="2.6417" gradientUnits="userSpaceOnUse">
<stop stop-color="#9242AE"/>
<stop offset="1" stop-color="#1976E3"/>
</linearGradient>
<linearGradient id="paint2_linear" x1="1" y1="19.577" x2="11.2493" y2="19.2877" gradientUnits="userSpaceOnUse">
<stop stop-color="#9242AE"/>
<stop offset="1" stop-color="#1976E3"/>
</linearGradient>
<linearGradient id="paint3_linear" x1="1" y1="19.577" x2="11.2493" y2="19.2877" gradientUnits="userSpaceOnUse">
<stop stop-color="#9242AE"/>
<stop offset="1" stop-color="#1976E3"/>
</linearGradient>
<linearGradient id="paint4_linear" x1="2.43188" y1="14.9158" x2="3.84322" y2="14.8967" gradientUnits="userSpaceOnUse">
<stop stop-color="#9242AE"/>
<stop offset="1" stop-color="#1976E3"/>
</linearGradient>
<linearGradient id="paint5_linear" x1="2.43188" y1="14.9158" x2="3.84322" y2="14.8967" gradientUnits="userSpaceOnUse">
<stop stop-color="#9242AE"/>
<stop offset="1" stop-color="#1976E3"/>
</linearGradient>
<linearGradient id="paint6_linear" x1="6.27053" y1="2.39437" x2="6.60982" y2="2.38889" gradientUnits="userSpaceOnUse">
<stop stop-color="#9242AE"/>
<stop offset="1" stop-color="#1976E3"/>
</linearGradient>
<linearGradient id="paint7_linear" x1="6.27053" y1="2.39437" x2="6.60982" y2="2.38889" gradientUnits="userSpaceOnUse">
<stop stop-color="#9242AE"/>
<stop offset="1" stop-color="#1976E3"/>
</linearGradient>
<linearGradient id="paint8_linear" x1="6.55997" y1="6.68072" x2="9.83683" y2="6.46033" gradientUnits="userSpaceOnUse">
<stop stop-color="#9242AE"/>
<stop offset="1" stop-color="#1976E3"/>
</linearGradient>
<linearGradient id="paint9_linear" x1="6.55997" y1="6.68072" x2="9.83683" y2="6.46033" gradientUnits="userSpaceOnUse">
<stop stop-color="#9242AE"/>
<stop offset="1" stop-color="#1976E3"/>
</linearGradient>
<linearGradient id="paint10_linear" x1="1.94209" y1="15.3868" x2="3.09538" y2="15.3658" gradientUnits="userSpaceOnUse">
<stop stop-color="#9242AE"/>
<stop offset="1" stop-color="#1976E3"/>
</linearGradient>
<linearGradient id="paint11_linear" x1="1.94209" y1="15.3868" x2="3.09538" y2="15.3658" gradientUnits="userSpaceOnUse">
<stop stop-color="#9242AE"/>
<stop offset="1" stop-color="#1976E3"/>
</linearGradient>
<linearGradient id="paint12_linear" x1="6.38771" y1="8.04453" x2="9.15624" y2="6.64368" gradientUnits="userSpaceOnUse">
<stop stop-color="#9242AE"/>
<stop offset="1" stop-color="#1976E3"/>
</linearGradient>
<linearGradient id="paint13_linear" x1="6.38771" y1="8.04453" x2="9.15624" y2="6.64368" gradientUnits="userSpaceOnUse">
<stop stop-color="#9242AE"/>
<stop offset="1" stop-color="#1976E3"/>
</linearGradient>
<linearGradient id="paint14_linear" x1="6.38771" y1="10.6622" x2="9.15623" y2="9.26135" gradientUnits="userSpaceOnUse">
<stop stop-color="#9242AE"/>
<stop offset="1" stop-color="#1976E3"/>
</linearGradient>
<linearGradient id="paint15_linear" x1="6.38771" y1="10.6622" x2="9.15623" y2="9.26135" gradientUnits="userSpaceOnUse">
<stop stop-color="#9242AE"/>
<stop offset="1" stop-color="#1976E3"/>
</linearGradient>
<linearGradient id="paint16_linear" x1="6.39003" y1="15.8508" x2="9.14923" y2="14.4455" gradientUnits="userSpaceOnUse">
<stop stop-color="#9242AE"/>
<stop offset="1" stop-color="#1976E3"/>
</linearGradient>
<linearGradient id="paint17_linear" x1="6.39003" y1="15.8508" x2="9.14923" y2="14.4455" gradientUnits="userSpaceOnUse">
<stop stop-color="#9242AE"/>
<stop offset="1" stop-color="#1976E3"/>
</linearGradient>
<linearGradient id="paint18_linear" x1="6.34318" y1="19.134" x2="10.3353" y2="18.319" gradientUnits="userSpaceOnUse">
<stop stop-color="#9242AE"/>
<stop offset="1" stop-color="#1976E3"/>
</linearGradient>
<linearGradient id="paint19_linear" x1="6.34318" y1="19.134" x2="10.3353" y2="18.319" gradientUnits="userSpaceOnUse">
<stop stop-color="#9242AE"/>
<stop offset="1" stop-color="#1976E3"/>
</linearGradient>
</defs>
</svg>
