<svg width="18" height="18" viewBox="0 0 18 18" fill="none" xmlns="http://www.w3.org/2000/svg">
<path d="M4.4468 13.4298H10.6264C10.6634 13.4299 10.7 13.4226 10.7342 13.4085C10.7684 13.3943 10.7994 13.3736 10.8255 13.3474C10.8517 13.3213 10.8724 13.2902 10.8865 13.256C10.9006 13.2218 10.9078 13.1852 10.9077 13.1482L10.9009 8.48958C10.8993 7.88561 10.6585 7.30688 10.2312 6.88006C9.80391 6.45323 9.22489 6.21309 8.62093 6.2122H7.72505C8.28834 5.66948 8.62167 4.93114 8.65618 4.1497C8.67447 3.87816 8.63591 3.60579 8.54295 3.35C8.45 3.09421 8.3047 2.86063 8.11634 2.66419C7.92798 2.46775 7.7007 2.31277 7.44904 2.20916C7.19738 2.10554 6.92687 2.05558 6.6548 2.06245C6.38286 2.05569 6.1125 2.10572 5.86099 2.20933C5.60947 2.31295 5.38233 2.46788 5.19406 2.66422C5.00579 2.86057 4.86054 3.09402 4.76758 3.34967C4.67463 3.60531 4.636 3.87754 4.65418 4.14895C4.68869 4.93039 5.02202 5.66873 5.5853 6.21145H4.74943C4.1454 6.21215 3.56627 6.45222 3.13892 6.87909C2.71156 7.30595 2.47082 7.8848 2.46943 8.48883L2.46268 13.1482C2.46258 13.1852 2.46978 13.2218 2.48388 13.256C2.49797 13.2902 2.51868 13.3213 2.54481 13.3474C2.57094 13.3736 2.60198 13.3943 2.63615 13.4085C2.67032 13.4226 2.70695 13.4299 2.74393 13.4298H4.4468ZM5.21668 4.14895C5.19969 3.95183 5.22456 3.75335 5.28964 3.56651C5.35473 3.37968 5.45857 3.20871 5.59436 3.06481C5.73015 2.92092 5.89482 2.80734 6.07757 2.73154C6.26032 2.65574 6.45703 2.61941 6.6548 2.62495C6.85257 2.61941 7.04928 2.65574 7.23204 2.73154C7.41479 2.80734 7.57946 2.92092 7.71524 3.06481C7.85103 3.20871 7.95487 3.37968 8.01996 3.56651C8.08505 3.75335 8.10992 3.95183 8.09293 4.14895C8.09293 5.1682 7.17043 6.20395 6.6548 6.20395C6.13918 6.20395 5.21668 5.1682 5.21668 4.14895ZM3.03193 8.49033C3.03302 8.03533 3.21438 7.5993 3.53629 7.27774C3.8582 6.95618 4.29443 6.7753 4.74943 6.7747H8.62093C9.07593 6.7753 9.51215 6.95618 9.83407 7.27774C10.156 7.5993 10.3373 8.03533 10.3384 8.49033L10.3448 12.8673H9.1823V9.62995C9.1823 9.55536 9.15267 9.48382 9.09993 9.43108C9.04718 9.37833 8.97565 9.3487 8.90105 9.3487C8.82646 9.3487 8.75492 9.37833 8.70218 9.43108C8.64943 9.48382 8.6198 9.55536 8.6198 9.62995V12.8673H4.72805V9.62995C4.72805 9.55536 4.69842 9.48382 4.64568 9.43108C4.59293 9.37833 4.5214 9.3487 4.4468 9.3487C4.37221 9.3487 4.30067 9.37833 4.24793 9.43108C4.19518 9.48382 4.16555 9.55536 4.16555 9.62995V12.8673H3.02555L3.03193 8.49033Z" fill="url(#paint0_linear)"/>
<path d="M16.9931 0H1.00688C0.739896 0.000198645 0.483909 0.106344 0.295126 0.295126C0.106344 0.483909 0.000198645 0.739896 0 1.00688L0 16.9931C0.000198645 17.2601 0.106344 17.5161 0.295126 17.7049C0.483909 17.8937 0.739896 17.9998 1.00688 18H16.9931C17.2601 17.9998 17.5161 17.8937 17.7049 17.7049C17.8937 17.5161 17.9998 17.2601 18 16.9931V1.00688C17.9998 0.739896 17.8937 0.483909 17.7049 0.295126C17.5161 0.106344 17.2601 0.000198645 16.9931 0V0ZM17.4375 16.9931C17.4374 17.111 17.3906 17.2239 17.3072 17.3072C17.2239 17.3906 17.111 17.4374 16.9931 17.4375H1.00688C0.88905 17.4374 0.776079 17.3906 0.692764 17.3072C0.609449 17.2239 0.562599 17.111 0.5625 16.9931V1.00688C0.562599 0.88905 0.609449 0.776079 0.692764 0.692764C0.776079 0.609449 0.88905 0.562599 1.00688 0.5625H16.9931C17.111 0.562599 17.2239 0.609449 17.3072 0.692764C17.3906 0.776079 17.4374 0.88905 17.4375 1.00688V16.9931Z" fill="url(#paint1_linear)"/>
<path d="M16.4426 0.914978H1.55738C1.38711 0.915275 1.22389 0.98305 1.10348 1.10345C0.98308 1.22386 0.915306 1.38708 0.915009 1.55735V12.7875C0.915306 12.9577 0.983092 13.1209 1.10351 13.2412C1.22392 13.3616 1.38714 13.4293 1.55738 13.4295H1.73438C1.80898 13.4295 1.88051 13.3998 1.93326 13.3471C1.986 13.2944 2.01563 13.2228 2.01563 13.1482C2.01563 13.0736 1.986 13.0021 1.93326 12.9494C1.88051 12.8966 1.80898 12.867 1.73438 12.867H1.55738C1.53626 12.867 1.516 12.8586 1.50104 12.8437C1.48607 12.8288 1.47761 12.8086 1.47751 12.7875V1.55735C1.47761 1.5362 1.48605 1.51594 1.50101 1.50098C1.51597 1.48602 1.53623 1.47758 1.55738 1.47748H16.4426C16.4638 1.47758 16.484 1.48602 16.499 1.50098C16.514 1.51594 16.5224 1.5362 16.5225 1.55735V12.7875C16.5224 12.8086 16.5139 12.8288 16.499 12.8437C16.484 12.8586 16.4638 12.867 16.4426 12.867H11.5646C11.49 12.867 11.4185 12.8966 11.3658 12.9494C11.313 13.0021 11.2834 13.0736 11.2834 13.1482C11.2834 13.2228 11.313 13.2944 11.3658 13.3471C11.4185 13.3998 11.49 13.4295 11.5646 13.4295H16.4426C16.6129 13.4293 16.7761 13.3616 16.8965 13.2412C17.0169 13.1209 17.0847 12.9577 17.085 12.7875V1.55735C17.0847 1.38708 17.0169 1.22386 16.8965 1.10345C16.7761 0.98305 16.6129 0.915275 16.4426 0.914978Z" fill="url(#paint2_linear)"/>
<path d="M12.5471 6.46798H15.1984C15.3722 6.46788 15.5389 6.39879 15.6619 6.2759C15.7849 6.153 15.854 5.98633 15.8542 5.81248V2.4281C15.8541 2.25415 15.785 2.08734 15.662 1.9643C15.5391 1.84127 15.3723 1.77205 15.1984 1.77185H12.5471C12.3732 1.77205 12.2064 1.84127 12.0834 1.9643C11.9605 2.08734 11.8913 2.25415 11.8912 2.4281V5.81248C11.8914 5.98633 11.9606 6.153 12.0836 6.2759C12.2065 6.39879 12.3733 6.46788 12.5471 6.46798ZM13.3346 5.90548V4.57198C13.3347 4.55971 13.3397 4.54798 13.3484 4.53934C13.3571 4.5307 13.3688 4.52585 13.3811 4.52585H14.3655C14.3777 4.52595 14.3894 4.53084 14.398 4.53947C14.4066 4.5481 14.4115 4.55977 14.4116 4.57198V5.90548H13.3346ZM13.5885 3.48935C13.5885 3.2981 13.6882 3.18935 13.8615 3.18935C14.0347 3.18935 14.1341 3.29885 14.1341 3.48935C14.1259 3.58211 14.0983 3.67211 14.0531 3.75351C14.0079 3.83492 13.946 3.9059 13.8716 3.96185C13.7905 3.91109 13.7227 3.84177 13.6737 3.75961C13.6248 3.67745 13.5961 3.58481 13.59 3.48935H13.5885ZM12.4522 2.4281C12.4522 2.41581 12.4546 2.40362 12.4592 2.39225C12.4639 2.38088 12.4708 2.37054 12.4795 2.36183C12.4881 2.35312 12.4984 2.34621 12.5098 2.34149C12.5211 2.33678 12.5333 2.33435 12.5456 2.33435H15.1969C15.2092 2.33435 15.2213 2.33678 15.2327 2.34149C15.244 2.34621 15.2543 2.35312 15.263 2.36183C15.2717 2.37054 15.2786 2.38088 15.2832 2.39225C15.2879 2.40362 15.2903 2.41581 15.2902 2.4281V5.81248C15.2903 5.82475 15.2879 5.83692 15.2832 5.84827C15.2786 5.85962 15.2717 5.86993 15.263 5.87861C15.2543 5.88729 15.244 5.89417 15.2327 5.89884C15.2213 5.90352 15.2091 5.9059 15.1969 5.90585H14.9741V4.57198C14.9736 4.44485 14.9332 4.32108 14.8587 4.2181C14.7842 4.11511 14.6792 4.03808 14.5586 3.99785C14.6464 3.84239 14.695 3.66783 14.7 3.48935C14.7041 3.37708 14.6856 3.26512 14.6454 3.16018C14.6053 3.05524 14.5444 2.95947 14.4665 2.87858C14.3885 2.79769 14.295 2.73335 14.1916 2.68941C14.0882 2.64546 13.977 2.62282 13.8647 2.62282C13.7523 2.62282 13.6411 2.64546 13.5377 2.68941C13.4343 2.73335 13.3409 2.79769 13.2629 2.87858C13.1849 2.95947 13.124 3.05524 13.0839 3.16018C13.0438 3.26512 13.0252 3.37708 13.0294 3.48935C13.0335 3.66998 13.0821 3.84681 13.1707 4.00423C13.055 4.04759 12.9553 4.12513 12.8847 4.22653C12.8141 4.32794 12.776 4.44842 12.7755 4.57198V5.90548H12.5505C12.5382 5.90553 12.526 5.90314 12.5147 5.89847C12.5033 5.89379 12.493 5.88692 12.4843 5.87824C12.4757 5.86956 12.4688 5.85924 12.4641 5.84789C12.4594 5.83654 12.4571 5.82438 12.4571 5.8121L12.4522 2.4281Z" fill="url(#paint3_linear)"/>
<path d="M2.12808 14.2875C2.07379 14.2875 2.02071 14.3036 1.97557 14.3337C1.93043 14.3639 1.89525 14.4068 1.87447 14.4569C1.8537 14.5071 1.84826 14.5623 1.85885 14.6155C1.86944 14.6688 1.89559 14.7177 1.93398 14.7561C1.97237 14.7945 2.02128 14.8206 2.07452 14.8312C2.12777 14.8418 2.18297 14.8364 2.23312 14.8156C2.28328 14.7948 2.32615 14.7596 2.35632 14.7145C2.38648 14.6693 2.40258 14.6163 2.40258 14.562C2.40258 14.4892 2.37366 14.4194 2.32218 14.3679C2.2707 14.3164 2.20088 14.2875 2.12808 14.2875Z" fill="url(#paint4_linear)"/>
<path d="M3.84596 14.2875C3.79169 14.2875 3.73865 14.3037 3.69356 14.3339C3.64847 14.3641 3.61334 14.407 3.59263 14.4572C3.57191 14.5074 3.56652 14.5625 3.57716 14.6158C3.58779 14.669 3.61397 14.7179 3.65237 14.7562C3.69077 14.7946 3.73969 14.8207 3.79292 14.8312C3.84616 14.8418 3.90133 14.8363 3.95147 14.8155C4.00161 14.7948 4.04446 14.7596 4.0746 14.7144C4.10475 14.6693 4.12084 14.6163 4.12084 14.562C4.12084 14.5259 4.11373 14.4902 4.09991 14.4568C4.08609 14.4235 4.06584 14.3932 4.04031 14.3677C4.01478 14.3422 3.98447 14.322 3.95113 14.3083C3.91778 14.2945 3.88204 14.2874 3.84596 14.2875Z" fill="url(#paint5_linear)"/>
<path d="M5.56423 14.2875C5.50994 14.2875 5.45687 14.3036 5.41173 14.3337C5.36659 14.3639 5.33141 14.4068 5.31063 14.4569C5.28985 14.5071 5.28442 14.5623 5.29501 14.6155C5.3056 14.6688 5.33174 14.7177 5.37013 14.7561C5.40852 14.7945 5.45743 14.8206 5.51068 14.8312C5.56393 14.8418 5.61912 14.8364 5.66928 14.8156C5.71944 14.7948 5.76231 14.7596 5.79247 14.7145C5.82264 14.6693 5.83873 14.6163 5.83873 14.562C5.83873 14.4892 5.80981 14.4194 5.75833 14.3679C5.70686 14.3164 5.63704 14.2875 5.56423 14.2875Z" fill="url(#paint6_linear)"/>
<path d="M7.28213 14.2875C7.22784 14.2875 7.17477 14.3036 7.12963 14.3337C7.08448 14.3639 7.0493 14.4068 7.02852 14.4569C7.00775 14.5071 7.00231 14.5623 7.0129 14.6155C7.0235 14.6688 7.04964 14.7177 7.08803 14.7561C7.12642 14.7945 7.17533 14.8206 7.22858 14.8312C7.28183 14.8418 7.33702 14.8364 7.38718 14.8156C7.43733 14.7948 7.48021 14.7596 7.51037 14.7145C7.54053 14.6693 7.55663 14.6163 7.55663 14.562C7.55663 14.4892 7.52771 14.4194 7.47623 14.3679C7.42475 14.3164 7.35493 14.2875 7.28213 14.2875Z" fill="url(#paint7_linear)"/>
<path d="M8.99999 14.2875C8.9457 14.2875 8.89263 14.3036 8.84749 14.3337C8.80235 14.3639 8.76717 14.4068 8.74639 14.4569C8.72561 14.5071 8.72018 14.5623 8.73077 14.6155C8.74136 14.6688 8.7675 14.7177 8.80589 14.7561C8.84428 14.7945 8.89319 14.8206 8.94644 14.8312C8.99969 14.8418 9.05488 14.8364 9.10504 14.8156C9.1552 14.7948 9.19807 14.7596 9.22823 14.7145C9.2584 14.6693 9.27449 14.6163 9.27449 14.562C9.27449 14.4892 9.24557 14.4194 9.1941 14.3679C9.14262 14.3164 9.0728 14.2875 8.99999 14.2875Z" fill="url(#paint8_linear)"/>
<path d="M10.7179 14.2875C10.6636 14.2875 10.6106 14.3036 10.5654 14.3337C10.5203 14.3639 10.4851 14.4068 10.4643 14.4569C10.4435 14.5071 10.4381 14.5623 10.4487 14.6155C10.4593 14.6688 10.4854 14.7177 10.5238 14.7561C10.5622 14.7945 10.6111 14.8206 10.6644 14.8312C10.7176 14.8418 10.7728 14.8364 10.823 14.8156C10.8731 14.7948 10.916 14.7596 10.9462 14.7145C10.9763 14.6693 10.9924 14.6163 10.9924 14.562C10.9924 14.4892 10.9635 14.4194 10.912 14.3679C10.8605 14.3164 10.7907 14.2875 10.7179 14.2875Z" fill="url(#paint9_linear)"/>
<path d="M2.97485 15.1875C2.92056 15.1875 2.86749 15.2036 2.82234 15.2338C2.7772 15.2639 2.74202 15.3068 2.72124 15.357C2.70047 15.4071 2.69503 15.4623 2.70562 15.5156C2.71621 15.5688 2.74236 15.6177 2.78075 15.6561C2.81914 15.6945 2.86805 15.7206 2.9213 15.7312C2.97454 15.7418 3.02974 15.7364 3.07989 15.7156C3.13005 15.6948 3.17292 15.6596 3.20309 15.6145C3.23325 15.5694 3.24935 15.5163 3.24935 15.462C3.24935 15.3892 3.22043 15.3194 3.16895 15.2679C3.11747 15.2164 3.04765 15.1875 2.97485 15.1875Z" fill="url(#paint10_linear)"/>
<path d="M4.69274 15.1875C4.63845 15.1875 4.58538 15.2036 4.54024 15.2338C4.4951 15.2639 4.45991 15.3068 4.43914 15.357C4.41836 15.4071 4.41293 15.4623 4.42352 15.5156C4.43411 15.5688 4.46025 15.6177 4.49864 15.6561C4.53703 15.6945 4.58594 15.7206 4.63919 15.7312C4.69244 15.7418 4.74763 15.7364 4.79779 15.7156C4.84795 15.6948 4.89082 15.6596 4.92098 15.6145C4.95114 15.5694 4.96724 15.5163 4.96724 15.462C4.96724 15.3892 4.93832 15.3194 4.88684 15.2679C4.83537 15.2164 4.76555 15.1875 4.69274 15.1875Z" fill="url(#paint11_linear)"/>
<path d="M6.41247 15.1875C6.35818 15.1875 6.30511 15.2036 6.25997 15.2338C6.21483 15.2639 6.17964 15.3068 6.15887 15.357C6.13809 15.4071 6.13265 15.4623 6.14324 15.5156C6.15384 15.5688 6.17998 15.6177 6.21837 15.6561C6.25676 15.6945 6.30567 15.7206 6.35892 15.7312C6.41217 15.7418 6.46736 15.7364 6.51752 15.7156C6.56768 15.6948 6.61055 15.6596 6.64071 15.6145C6.67087 15.5694 6.68697 15.5163 6.68697 15.462C6.68697 15.3892 6.65805 15.3194 6.60657 15.2679C6.55509 15.2164 6.48527 15.1875 6.41247 15.1875Z" fill="url(#paint12_linear)"/>
<path d="M8.12847 15.1875C8.07418 15.1875 8.02111 15.2036 7.97597 15.2338C7.93083 15.2639 7.89564 15.3068 7.87487 15.357C7.85409 15.4071 7.84866 15.4623 7.85925 15.5156C7.86984 15.5688 7.89598 15.6177 7.93437 15.6561C7.97276 15.6945 8.02167 15.7206 8.07492 15.7312C8.12817 15.7418 8.18336 15.7364 8.23352 15.7156C8.28368 15.6948 8.32655 15.6596 8.35671 15.6145C8.38687 15.5694 8.40297 15.5163 8.40297 15.462C8.40297 15.3892 8.37405 15.3194 8.32257 15.2679C8.2711 15.2164 8.20128 15.1875 8.12847 15.1875Z" fill="url(#paint13_linear)"/>
<path d="M9.84643 15.1875C9.79214 15.1875 9.73907 15.2036 9.69393 15.2338C9.64878 15.2639 9.6136 15.3068 9.59283 15.357C9.57205 15.4071 9.56661 15.4623 9.5772 15.5156C9.5878 15.5688 9.61394 15.6177 9.65233 15.6561C9.69072 15.6945 9.73963 15.7206 9.79288 15.7312C9.84613 15.7418 9.90132 15.7364 9.95148 15.7156C10.0016 15.6948 10.0445 15.6596 10.0747 15.6145C10.1048 15.5694 10.1209 15.5163 10.1209 15.462C10.1209 15.3892 10.092 15.3194 10.0405 15.2679C9.98905 15.2164 9.91923 15.1875 9.84643 15.1875Z" fill="url(#paint14_linear)"/>
<path d="M2.12808 16.0845C2.07379 16.0845 2.02071 16.1006 1.97557 16.1307C1.93043 16.1609 1.89525 16.2038 1.87447 16.2539C1.8537 16.3041 1.84826 16.3593 1.85885 16.4125C1.86944 16.4658 1.89559 16.5147 1.93398 16.5531C1.97237 16.5915 2.02128 16.6176 2.07452 16.6282C2.12777 16.6388 2.18297 16.6334 2.23312 16.6126C2.28328 16.5918 2.32615 16.5566 2.35632 16.5115C2.38648 16.4663 2.40258 16.4133 2.40258 16.359C2.40258 16.2862 2.37366 16.2164 2.32218 16.1649C2.2707 16.1134 2.20088 16.0845 2.12808 16.0845Z" fill="url(#paint15_linear)"/>
<path d="M3.84596 16.0845C3.79169 16.0845 3.73865 16.1007 3.69356 16.1309C3.64847 16.1611 3.61334 16.204 3.59263 16.2542C3.57191 16.3044 3.56652 16.3595 3.57716 16.4128C3.58779 16.466 3.61397 16.5149 3.65237 16.5532C3.69077 16.5916 3.73969 16.6177 3.79292 16.6282C3.84616 16.6388 3.90133 16.6333 3.95147 16.6125C4.00161 16.5918 4.04446 16.5566 4.0746 16.5114C4.10475 16.4663 4.12084 16.4132 4.12084 16.359C4.12084 16.3229 4.11373 16.2872 4.09991 16.2538C4.08609 16.2205 4.06584 16.1902 4.04031 16.1647C4.01478 16.1392 3.98447 16.119 3.95113 16.1053C3.91778 16.0915 3.88204 16.0844 3.84596 16.0845Z" fill="url(#paint16_linear)"/>
<path d="M5.56423 16.0845C5.50994 16.0845 5.45687 16.1006 5.41173 16.1307C5.36659 16.1609 5.33141 16.2038 5.31063 16.2539C5.28985 16.3041 5.28442 16.3593 5.29501 16.4125C5.3056 16.4658 5.33174 16.5147 5.37013 16.5531C5.40852 16.5915 5.45743 16.6176 5.51068 16.6282C5.56393 16.6388 5.61912 16.6334 5.66928 16.6126C5.71944 16.5918 5.76231 16.5566 5.79247 16.5115C5.82264 16.4663 5.83873 16.4133 5.83873 16.359C5.83873 16.2862 5.80981 16.2164 5.75833 16.1649C5.70686 16.1134 5.63704 16.0845 5.56423 16.0845Z" fill="url(#paint17_linear)"/>
<path d="M7.28213 16.0845C7.22784 16.0845 7.17477 16.1006 7.12963 16.1307C7.08448 16.1609 7.0493 16.2038 7.02852 16.2539C7.00775 16.3041 7.00231 16.3593 7.0129 16.4125C7.0235 16.4658 7.04964 16.5147 7.08803 16.5531C7.12642 16.5915 7.17533 16.6176 7.22858 16.6282C7.28183 16.6388 7.33702 16.6334 7.38718 16.6126C7.43733 16.5918 7.48021 16.5566 7.51037 16.5115C7.54053 16.4663 7.55663 16.4133 7.55663 16.359C7.55663 16.2862 7.52771 16.2164 7.47623 16.1649C7.42475 16.1134 7.35493 16.0845 7.28213 16.0845Z" fill="url(#paint18_linear)"/>
<path d="M8.99999 16.0845C8.9457 16.0845 8.89263 16.1006 8.84749 16.1307C8.80235 16.1609 8.76717 16.2038 8.74639 16.2539C8.72561 16.3041 8.72018 16.3593 8.73077 16.4125C8.74136 16.4658 8.7675 16.5147 8.80589 16.5531C8.84428 16.5915 8.89319 16.6176 8.94644 16.6282C8.99969 16.6388 9.05488 16.6334 9.10504 16.6126C9.1552 16.5918 9.19807 16.5566 9.22823 16.5115C9.2584 16.4663 9.27449 16.4133 9.27449 16.359C9.27449 16.2862 9.24557 16.2164 9.1941 16.1649C9.14262 16.1134 9.0728 16.0845 8.99999 16.0845Z" fill="url(#paint19_linear)"/>
<path d="M10.7179 16.0845C10.6636 16.0845 10.6106 16.1006 10.5654 16.1307C10.5203 16.1609 10.4851 16.2038 10.4643 16.2539C10.4435 16.3041 10.4381 16.3593 10.4487 16.4125C10.4593 16.4658 10.4854 16.5147 10.5238 16.5531C10.5622 16.5915 10.6111 16.6176 10.6644 16.6282C10.7176 16.6388 10.7728 16.6334 10.823 16.6126C10.8731 16.5918 10.916 16.5566 10.9462 16.5115C10.9763 16.4663 10.9924 16.4133 10.9924 16.359C10.9924 16.2862 10.9635 16.2164 10.912 16.1649C10.8605 16.1134 10.7907 16.0845 10.7179 16.0845Z" fill="url(#paint20_linear)"/>
<path d="M12.4357 14.2875C12.3814 14.2875 12.3284 14.3036 12.2832 14.3337C12.2381 14.3639 12.2029 14.4068 12.1821 14.4569C12.1613 14.5071 12.1559 14.5623 12.1665 14.6155C12.1771 14.6688 12.2032 14.7177 12.2416 14.7561C12.28 14.7945 12.3289 14.8206 12.3822 14.8312C12.4354 14.8418 12.4906 14.8364 12.5408 14.8156C12.5909 14.7948 12.6338 14.7596 12.664 14.7145C12.6941 14.6693 12.7102 14.6163 12.7102 14.562C12.7102 14.4892 12.6813 14.4194 12.6298 14.3679C12.5783 14.3164 12.5085 14.2875 12.4357 14.2875Z" fill="url(#paint21_linear)"/>
<path d="M14.154 14.2875C14.0997 14.2875 14.0466 14.3036 14.0015 14.3337C13.9563 14.3639 13.9212 14.4068 13.9004 14.4569C13.8796 14.5071 13.8742 14.5623 13.8848 14.6155C13.8954 14.6688 13.9215 14.7177 13.9599 14.7561C13.9983 14.7945 14.0472 14.8206 14.1004 14.8312C14.1537 14.8418 14.2089 14.8364 14.259 14.8156C14.3092 14.7948 14.3521 14.7596 14.3822 14.7145C14.4124 14.6693 14.4285 14.6163 14.4285 14.562C14.4284 14.4892 14.3994 14.4194 14.348 14.368C14.2965 14.3165 14.2268 14.2876 14.154 14.2875Z" fill="url(#paint22_linear)"/>
<path d="M15.8719 14.2875C15.8176 14.2875 15.7645 14.3036 15.7194 14.3337C15.6742 14.3639 15.6391 14.4068 15.6183 14.4569C15.5975 14.5071 15.5921 14.5623 15.6027 14.6155C15.6132 14.6688 15.6394 14.7177 15.6778 14.7561C15.7162 14.7945 15.7651 14.8206 15.8183 14.8312C15.8716 14.8418 15.9268 14.8364 15.9769 14.8156C16.0271 14.7948 16.07 14.7596 16.1001 14.7145C16.1303 14.6693 16.1464 14.6163 16.1464 14.562C16.1464 14.4892 16.1175 14.4194 16.066 14.3679C16.0145 14.3164 15.9447 14.2875 15.8719 14.2875Z" fill="url(#paint23_linear)"/>
<path d="M11.5646 15.1875C11.5103 15.1875 11.4573 15.2036 11.4121 15.2338C11.367 15.2639 11.3318 15.3068 11.311 15.357C11.2902 15.4071 11.2848 15.4623 11.2954 15.5156C11.306 15.5688 11.3321 15.6177 11.3705 15.6561C11.4089 15.6945 11.4578 15.7206 11.5111 15.7312C11.5643 15.7418 11.6195 15.7364 11.6697 15.7156C11.7198 15.6948 11.7627 15.6596 11.7929 15.6145C11.823 15.5694 11.8391 15.5163 11.8391 15.462C11.8391 15.3892 11.8102 15.3194 11.7587 15.2679C11.7073 15.2164 11.6374 15.1875 11.5646 15.1875Z" fill="url(#paint24_linear)"/>
<path d="M13.2825 15.1875C13.2282 15.1875 13.1751 15.2036 13.13 15.2338C13.0848 15.2639 13.0497 15.3068 13.0289 15.357C13.0081 15.4071 13.0027 15.4623 13.0133 15.5156C13.0239 15.5688 13.05 15.6177 13.0884 15.6561C13.1268 15.6945 13.1757 15.7206 13.2289 15.7312C13.2822 15.7418 13.3374 15.7364 13.3875 15.7156C13.4377 15.6948 13.4806 15.6596 13.5107 15.6145C13.5409 15.5694 13.557 15.5163 13.557 15.462C13.557 15.3892 13.5281 15.3194 13.4766 15.2679C13.4251 15.2164 13.3553 15.1875 13.2825 15.1875Z" fill="url(#paint25_linear)"/>
<path d="M15 15.1875C14.9457 15.1875 14.8926 15.2036 14.8475 15.2338C14.8023 15.2639 14.7672 15.3068 14.7464 15.357C14.7256 15.4071 14.7202 15.4623 14.7308 15.5156C14.7414 15.5688 14.7675 15.6177 14.8059 15.6561C14.8443 15.6945 14.8932 15.7206 14.9464 15.7312C14.9997 15.7418 15.0549 15.7364 15.105 15.7156C15.1552 15.6948 15.1981 15.6596 15.2282 15.6145C15.2584 15.5694 15.2745 15.5163 15.2745 15.462C15.2745 15.3892 15.2456 15.3194 15.1941 15.2679C15.1426 15.2164 15.0728 15.1875 15 15.1875Z" fill="url(#paint26_linear)"/>
<path d="M12.4357 16.0845C12.3814 16.0845 12.3284 16.1006 12.2832 16.1307C12.2381 16.1609 12.2029 16.2038 12.1821 16.2539C12.1613 16.3041 12.1559 16.3593 12.1665 16.4125C12.1771 16.4658 12.2032 16.5147 12.2416 16.5531C12.28 16.5915 12.3289 16.6176 12.3822 16.6282C12.4354 16.6388 12.4906 16.6334 12.5408 16.6126C12.5909 16.5918 12.6338 16.5566 12.664 16.5115C12.6941 16.4663 12.7102 16.4133 12.7102 16.359C12.7102 16.2862 12.6813 16.2164 12.6298 16.1649C12.5783 16.1134 12.5085 16.0845 12.4357 16.0845Z" fill="url(#paint27_linear)"/>
<path d="M14.154 16.0845C14.0997 16.0845 14.0466 16.1006 14.0015 16.1307C13.9563 16.1609 13.9212 16.2038 13.9004 16.2539C13.8796 16.3041 13.8742 16.3593 13.8848 16.4125C13.8954 16.4658 13.9215 16.5147 13.9599 16.5531C13.9983 16.5915 14.0472 16.6176 14.1004 16.6282C14.1537 16.6388 14.2089 16.6334 14.259 16.6126C14.3092 16.5918 14.3521 16.5566 14.3822 16.5115C14.4124 16.4663 14.4285 16.4133 14.4285 16.359C14.4284 16.2862 14.3994 16.2164 14.348 16.165C14.2965 16.1135 14.2268 16.0846 14.154 16.0845Z" fill="url(#paint28_linear)"/>
<path d="M15.8719 16.0845C15.8176 16.0845 15.7645 16.1006 15.7194 16.1307C15.6742 16.1609 15.6391 16.2038 15.6183 16.2539C15.5975 16.3041 15.5921 16.3593 15.6027 16.4125C15.6132 16.4658 15.6394 16.5147 15.6778 16.5531C15.7162 16.5915 15.7651 16.6176 15.8183 16.6282C15.8716 16.6388 15.9268 16.6334 15.9769 16.6126C16.0271 16.5918 16.07 16.5566 16.1001 16.5115C16.1303 16.4663 16.1464 16.4133 16.1464 16.359C16.1464 16.2862 16.1175 16.2164 16.066 16.1649C16.0145 16.1134 15.9447 16.0845 15.8719 16.0845Z" fill="url(#paint29_linear)"/>
<path d="M11.8912 11.9407C11.8912 12.0153 11.9209 12.0869 11.9736 12.1396C12.0264 12.1924 12.0979 12.222 12.1725 12.222H14.1375C14.2121 12.222 14.2836 12.1924 14.3364 12.1396C14.3891 12.0869 14.4187 12.0153 14.4187 11.9407V11.6625L15.4451 12.192C15.488 12.214 15.5358 12.2247 15.584 12.2229C15.6322 12.2212 15.6791 12.2071 15.7202 12.182C15.7614 12.1568 15.7954 12.1216 15.819 12.0795C15.8426 12.0375 15.855 11.9901 15.855 11.9419V10.4587C15.8551 10.4105 15.8428 10.363 15.8193 10.3209C15.7957 10.2788 15.7617 10.2434 15.7204 10.2183C15.6792 10.1932 15.6322 10.1792 15.584 10.1775C15.5358 10.1759 15.4879 10.1867 15.4451 10.209L14.4187 10.7385V10.4587C14.4187 10.3841 14.3891 10.3126 14.3364 10.2599C14.2836 10.2071 14.2121 10.1775 14.1375 10.1775H12.1725C12.0979 10.1775 12.0264 10.2071 11.9736 10.2599C11.9209 10.3126 11.8912 10.3841 11.8912 10.4587V11.9407ZM15.2917 10.9204V11.4791L14.7502 11.1997L15.2917 10.9204ZM12.4537 10.74H13.8555V11.6595H12.4537V10.74Z" fill="url(#paint30_linear)"/>
<defs>
<linearGradient id="paint0_linear" x1="2.46268" y1="13.4298" x2="11.3128" y2="13.1052" gradientUnits="userSpaceOnUse">
<stop stop-color="#9242AE"/>
<stop offset="1" stop-color="#1976E3"/>
</linearGradient>
<linearGradient id="paint1_linear" x1="-6.70552e-08" y1="18" x2="18.8429" y2="17.0695" gradientUnits="userSpaceOnUse">
<stop stop-color="#9242AE"/>
<stop offset="1" stop-color="#1976E3"/>
</linearGradient>
<linearGradient id="paint2_linear" x1="0.915008" y1="13.4295" x2="17.8147" y2="12.3511" gradientUnits="userSpaceOnUse">
<stop stop-color="#9242AE"/>
<stop offset="1" stop-color="#1976E3"/>
</linearGradient>
<linearGradient id="paint3_linear" x1="11.8912" y1="6.46797" x2="16.0427" y2="6.29497" gradientUnits="userSpaceOnUse">
<stop stop-color="#9242AE"/>
<stop offset="1" stop-color="#1976E3"/>
</linearGradient>
<linearGradient id="paint4_linear" x1="1.85358" y1="14.8365" x2="2.42829" y2="14.8081" gradientUnits="userSpaceOnUse">
<stop stop-color="#9242AE"/>
<stop offset="1" stop-color="#1976E3"/>
</linearGradient>
<linearGradient id="paint5_linear" x1="3.57184" y1="14.8365" x2="4.14655" y2="14.8081" gradientUnits="userSpaceOnUse">
<stop stop-color="#9242AE"/>
<stop offset="1" stop-color="#1976E3"/>
</linearGradient>
<linearGradient id="paint6_linear" x1="5.28973" y1="14.8365" x2="5.86444" y2="14.8081" gradientUnits="userSpaceOnUse">
<stop stop-color="#9242AE"/>
<stop offset="1" stop-color="#1976E3"/>
</linearGradient>
<linearGradient id="paint7_linear" x1="7.00763" y1="14.8365" x2="7.58234" y2="14.8081" gradientUnits="userSpaceOnUse">
<stop stop-color="#9242AE"/>
<stop offset="1" stop-color="#1976E3"/>
</linearGradient>
<linearGradient id="paint8_linear" x1="8.72549" y1="14.8365" x2="9.3002" y2="14.8081" gradientUnits="userSpaceOnUse">
<stop stop-color="#9242AE"/>
<stop offset="1" stop-color="#1976E3"/>
</linearGradient>
<linearGradient id="paint9_linear" x1="10.4434" y1="14.8365" x2="11.0181" y2="14.8081" gradientUnits="userSpaceOnUse">
<stop stop-color="#9242AE"/>
<stop offset="1" stop-color="#1976E3"/>
</linearGradient>
<linearGradient id="paint10_linear" x1="2.70035" y1="15.7365" x2="3.27506" y2="15.7081" gradientUnits="userSpaceOnUse">
<stop stop-color="#9242AE"/>
<stop offset="1" stop-color="#1976E3"/>
</linearGradient>
<linearGradient id="paint11_linear" x1="4.41824" y1="15.7365" x2="4.99295" y2="15.7081" gradientUnits="userSpaceOnUse">
<stop stop-color="#9242AE"/>
<stop offset="1" stop-color="#1976E3"/>
</linearGradient>
<linearGradient id="paint12_linear" x1="6.13797" y1="15.7365" x2="6.71268" y2="15.7081" gradientUnits="userSpaceOnUse">
<stop stop-color="#9242AE"/>
<stop offset="1" stop-color="#1976E3"/>
</linearGradient>
<linearGradient id="paint13_linear" x1="7.85397" y1="15.7365" x2="8.42868" y2="15.7081" gradientUnits="userSpaceOnUse">
<stop stop-color="#9242AE"/>
<stop offset="1" stop-color="#1976E3"/>
</linearGradient>
<linearGradient id="paint14_linear" x1="9.57193" y1="15.7365" x2="10.1466" y2="15.7081" gradientUnits="userSpaceOnUse">
<stop stop-color="#9242AE"/>
<stop offset="1" stop-color="#1976E3"/>
</linearGradient>
<linearGradient id="paint15_linear" x1="1.85358" y1="16.6335" x2="2.42829" y2="16.6051" gradientUnits="userSpaceOnUse">
<stop stop-color="#9242AE"/>
<stop offset="1" stop-color="#1976E3"/>
</linearGradient>
<linearGradient id="paint16_linear" x1="3.57184" y1="16.6335" x2="4.14655" y2="16.6051" gradientUnits="userSpaceOnUse">
<stop stop-color="#9242AE"/>
<stop offset="1" stop-color="#1976E3"/>
</linearGradient>
<linearGradient id="paint17_linear" x1="5.28973" y1="16.6335" x2="5.86444" y2="16.6051" gradientUnits="userSpaceOnUse">
<stop stop-color="#9242AE"/>
<stop offset="1" stop-color="#1976E3"/>
</linearGradient>
<linearGradient id="paint18_linear" x1="7.00763" y1="16.6335" x2="7.58234" y2="16.6051" gradientUnits="userSpaceOnUse">
<stop stop-color="#9242AE"/>
<stop offset="1" stop-color="#1976E3"/>
</linearGradient>
<linearGradient id="paint19_linear" x1="8.72549" y1="16.6335" x2="9.3002" y2="16.6051" gradientUnits="userSpaceOnUse">
<stop stop-color="#9242AE"/>
<stop offset="1" stop-color="#1976E3"/>
</linearGradient>
<linearGradient id="paint20_linear" x1="10.4434" y1="16.6335" x2="11.0181" y2="16.6051" gradientUnits="userSpaceOnUse">
<stop stop-color="#9242AE"/>
<stop offset="1" stop-color="#1976E3"/>
</linearGradient>
<linearGradient id="paint21_linear" x1="12.1612" y1="14.8365" x2="12.7359" y2="14.8081" gradientUnits="userSpaceOnUse">
<stop stop-color="#9242AE"/>
<stop offset="1" stop-color="#1976E3"/>
</linearGradient>
<linearGradient id="paint22_linear" x1="13.8795" y1="14.8365" x2="14.4542" y2="14.8081" gradientUnits="userSpaceOnUse">
<stop stop-color="#9242AE"/>
<stop offset="1" stop-color="#1976E3"/>
</linearGradient>
<linearGradient id="paint23_linear" x1="15.5974" y1="14.8365" x2="16.1721" y2="14.8081" gradientUnits="userSpaceOnUse">
<stop stop-color="#9242AE"/>
<stop offset="1" stop-color="#1976E3"/>
</linearGradient>
<linearGradient id="paint24_linear" x1="11.2901" y1="15.7365" x2="11.8648" y2="15.7081" gradientUnits="userSpaceOnUse">
<stop stop-color="#9242AE"/>
<stop offset="1" stop-color="#1976E3"/>
</linearGradient>
<linearGradient id="paint25_linear" x1="13.008" y1="15.7365" x2="13.5827" y2="15.7081" gradientUnits="userSpaceOnUse">
<stop stop-color="#9242AE"/>
<stop offset="1" stop-color="#1976E3"/>
</linearGradient>
<linearGradient id="paint26_linear" x1="14.7255" y1="15.7365" x2="15.3002" y2="15.7081" gradientUnits="userSpaceOnUse">
<stop stop-color="#9242AE"/>
<stop offset="1" stop-color="#1976E3"/>
</linearGradient>
<linearGradient id="paint27_linear" x1="12.1612" y1="16.6335" x2="12.7359" y2="16.6051" gradientUnits="userSpaceOnUse">
<stop stop-color="#9242AE"/>
<stop offset="1" stop-color="#1976E3"/>
</linearGradient>
<linearGradient id="paint28_linear" x1="13.8795" y1="16.6335" x2="14.4542" y2="16.6051" gradientUnits="userSpaceOnUse">
<stop stop-color="#9242AE"/>
<stop offset="1" stop-color="#1976E3"/>
</linearGradient>
<linearGradient id="paint29_linear" x1="15.5974" y1="16.6335" x2="16.1721" y2="16.6051" gradientUnits="userSpaceOnUse">
<stop stop-color="#9242AE"/>
<stop offset="1" stop-color="#1976E3"/>
</linearGradient>
<linearGradient id="paint30_linear" x1="11.8912" y1="12.2231" x2="16.013" y2="11.8287" gradientUnits="userSpaceOnUse">
<stop stop-color="#9242AE"/>
<stop offset="1" stop-color="#1976E3"/>
</linearGradient>
</defs>
</svg>
