<svg width="18" height="15" viewBox="0 0 18 15" fill="none" xmlns="http://www.w3.org/2000/svg">
<path d="M1.60983 7.51556C1.56168 7.51556 1.51354 7.49951 1.48144 7.45137C1.4333 7.38718 1.44935 7.27484 1.51354 7.2267L6.74523 3.2949C6.80943 3.24676 6.92176 3.2628 6.96991 3.327C7.01805 3.39119 7.002 3.50353 6.93781 3.55167L1.70612 7.48347C1.67402 7.51556 1.64192 7.51556 1.60983 7.51556Z" fill="url(#paint0_linear)" stroke="url(#paint1_linear)" stroke-width="0.2"/>
<path d="M2.58877 11.8164C2.50852 11.8164 2.42828 11.7522 2.42828 11.6559V7.51552C2.42828 7.43528 2.49248 7.35504 2.58877 7.35504C2.66901 7.35504 2.74925 7.41923 2.74925 7.51552V11.6559C2.74925 11.7362 2.68505 11.8164 2.58877 11.8164Z" fill="url(#paint2_linear)" stroke="url(#paint3_linear)" stroke-width="0.2"/>
<path d="M8.31795 11.0943H5.38114C5.3009 11.0943 5.22066 11.0301 5.22066 10.9338V7.99697C5.22066 7.91673 5.28485 7.83649 5.38114 7.83649H8.3019C8.38215 7.83649 8.46239 7.90068 8.46239 7.99697V10.9177C8.46239 11.014 8.39819 11.0943 8.31795 11.0943ZM5.54162 10.7733H8.15747V8.15745H5.54162V10.7733Z" fill="url(#paint4_linear)" stroke="url(#paint5_linear)" stroke-width="0.2"/>
<path d="M4.85155 6.40821C4.80341 6.40821 4.75526 6.39216 4.72317 6.34402C4.67502 6.27983 4.69107 6.16749 4.75526 6.11934L6.76128 4.61082C6.82548 4.56267 6.93781 4.57872 6.98596 4.64291C7.0341 4.70711 7.01805 4.81944 6.95386 4.86759L4.94784 6.37611C4.91575 6.39216 4.88365 6.40821 4.85155 6.40821Z" fill="url(#paint6_linear)" stroke="url(#paint7_linear)" stroke-width="0.2"/>
<path d="M12.0732 7.51556C12.0411 7.51556 12.009 7.49951 11.9769 7.48347L6.74524 3.55167C6.68104 3.50353 6.665 3.40724 6.71314 3.327C6.76128 3.2628 6.85757 3.24676 6.93781 3.2949L12.1695 7.2267C12.2337 7.27484 12.2498 7.37113 12.2016 7.45137C12.1695 7.49951 12.1374 7.51556 12.0732 7.51556Z" fill="url(#paint8_linear)" stroke="url(#paint9_linear)" stroke-width="0.2"/>
<path d="M11.0943 11.8164C11.014 11.8164 10.9338 11.7522 10.9338 11.6559V7.51552C10.9338 7.43528 10.998 7.35504 11.0943 7.35504C11.1745 7.35504 11.2548 7.41923 11.2548 7.51552V11.6559C11.2548 11.7362 11.1906 11.8164 11.0943 11.8164Z" fill="url(#paint10_linear)" stroke="url(#paint11_linear)" stroke-width="0.2"/>
<path d="M8.84754 6.40821C8.81545 6.40821 8.78335 6.39216 8.75125 6.37611L6.74524 4.86759C6.68104 4.81944 6.665 4.72315 6.71314 4.64291C6.76128 4.57872 6.85757 4.56267 6.93781 4.61082L8.94383 6.11934C9.00802 6.16749 9.02407 6.26378 8.97593 6.34402C8.94383 6.39216 8.89569 6.40821 8.84754 6.40821Z" fill="url(#paint12_linear)" stroke="url(#paint13_linear)" stroke-width="0.2"/>
<path d="M12.5868 13.2286C12.0251 13.2286 11.4955 12.9719 11.1585 12.5225C10.8215 12.9558 10.2919 13.2286 9.73019 13.2286C9.16851 13.2286 8.63892 12.9719 8.30191 12.5225C7.9649 12.9558 7.43531 13.2286 6.87362 13.2286C6.31194 13.2286 5.78235 12.9719 5.44534 12.5225C5.10833 12.9558 4.57874 13.2286 4.01705 13.2286C3.45537 13.2286 2.92578 12.9719 2.58877 12.5225C2.25176 12.9558 1.72217 13.2286 1.16048 13.2286C1.08024 13.2286 1 13.1645 1 13.0682C1 12.9879 1.06419 12.9077 1.16048 12.9077C1.69007 12.9077 2.18756 12.6188 2.46038 12.1534C2.49248 12.1053 2.54062 12.0732 2.60481 12.0732C2.66901 12.0732 2.71715 12.1053 2.74925 12.1534C3.02207 12.6188 3.51956 12.9077 4.04915 12.9077C4.57874 12.9077 5.07623 12.6188 5.34905 12.1534C5.38114 12.1053 5.42929 12.0732 5.49348 12.0732C5.55767 12.0732 5.60582 12.1053 5.63791 12.1534C5.91073 12.6188 6.40823 12.9077 6.93781 12.9077C7.4674 12.9077 7.9649 12.6188 8.23771 12.1534C8.26981 12.1053 8.31796 12.0732 8.38215 12.0732C8.44634 12.0732 8.49448 12.1053 8.52658 12.1534C8.7994 12.6188 9.29689 12.9077 9.82648 12.9077C10.3561 12.9077 10.8536 12.6188 11.1264 12.1534C11.1585 12.1053 11.2066 12.0732 11.2708 12.0732C11.335 12.0732 11.3832 12.1053 11.4152 12.1534C11.6881 12.6188 12.1856 12.9077 12.7151 12.9077C12.7954 12.9077 12.8756 12.9719 12.8756 13.0682C12.7472 13.1484 12.667 13.2286 12.5868 13.2286Z" fill="url(#paint14_linear)" stroke="url(#paint15_linear)" stroke-width="0.2"/>
<path d="M12.5868 14.8817C12.0251 14.8817 11.4955 14.6249 11.1585 14.1755C10.8215 14.6088 10.2919 14.8817 9.73019 14.8817C9.16851 14.8817 8.63892 14.6249 8.30191 14.1755C7.9649 14.6088 7.43531 14.8817 6.87362 14.8817C6.31194 14.8817 5.78235 14.6249 5.44534 14.1755C5.10833 14.6088 4.57874 14.8817 4.01705 14.8817C3.45537 14.8817 2.92578 14.6249 2.58877 14.1755C2.25176 14.6088 1.72217 14.8817 1.16048 14.8817C1.08024 14.8817 1 14.8175 1 14.7212C1 14.6249 1.06419 14.5607 1.16048 14.5607C1.69007 14.5607 2.18756 14.2718 2.46038 13.8064C2.49248 13.7583 2.54062 13.7262 2.60481 13.7262C2.66901 13.7262 2.71715 13.7583 2.74925 13.8064C3.02207 14.2718 3.51956 14.5607 4.04915 14.5607C4.57874 14.5607 5.07623 14.2718 5.34905 13.8064C5.38114 13.7583 5.42929 13.7262 5.49348 13.7262C5.55767 13.7262 5.60582 13.7583 5.63791 13.8064C5.91073 14.2718 6.40823 14.5607 6.93781 14.5607C7.4674 14.5607 7.9649 14.2718 8.23771 13.8064C8.26981 13.7583 8.31796 13.7262 8.38215 13.7262C8.44634 13.7262 8.49448 13.7583 8.52658 13.8064C8.7994 14.2718 9.29689 14.5607 9.82648 14.5607C10.3561 14.5607 10.8536 14.2718 11.1264 13.8064C11.1585 13.7583 11.2066 13.7262 11.2708 13.7262C11.335 13.7262 11.3832 13.7583 11.4152 13.8064C11.6881 14.2718 12.1856 14.5607 12.7151 14.5607C12.7954 14.5607 12.8756 14.6249 12.8756 14.7212C12.8756 14.8175 12.667 14.8817 12.5868 14.8817Z" fill="url(#paint16_linear)" stroke="url(#paint17_linear)" stroke-width="0.2"/>
<path d="M16.4062 1.80241C16.3741 1.80241 16.342 1.78636 16.326 1.77031C15.8766 1.48144 15.347 1.32096 14.8175 1.32096C14.2879 1.32096 13.7583 1.48144 13.3089 1.77031C13.2287 1.81846 13.1324 1.80241 13.0843 1.72217C13.0361 1.64193 13.0522 1.54564 13.1324 1.49749C13.6299 1.17653 14.2237 1 14.8175 1C15.4112 1 15.989 1.17653 16.5025 1.49749C16.5828 1.54564 16.5988 1.64193 16.5507 1.72217C16.5186 1.77031 16.4704 1.80241 16.4062 1.80241Z" fill="url(#paint18_linear)" stroke="url(#paint19_linear)" stroke-width="0.2"/>
<path d="M15.4594 2.68505C15.4273 2.68505 15.3952 2.669 15.3791 2.65295C15.2026 2.54062 15.01 2.49247 14.8175 2.49247C14.6249 2.49247 14.4162 2.55666 14.2558 2.65295C14.1755 2.7011 14.0792 2.68505 14.0311 2.60481C13.9829 2.52457 13.999 2.42828 14.0792 2.38013C14.3039 2.2357 14.5607 2.17151 14.8175 2.17151C15.0742 2.17151 15.331 2.25175 15.5557 2.38013C15.6359 2.42828 15.652 2.52457 15.6038 2.60481C15.5717 2.65295 15.5075 2.68505 15.4594 2.68505Z" fill="url(#paint20_linear)" stroke="url(#paint21_linear)" stroke-width="0.2"/>
<path d="M14.8175 3.51954C14.9415 3.51954 15.0421 3.41895 15.0421 3.29486C15.0421 3.17078 14.9415 3.07019 14.8175 3.07019C14.6934 3.07019 14.5928 3.17078 14.5928 3.29486C14.5928 3.41895 14.6934 3.51954 14.8175 3.51954Z" fill="url(#paint22_linear)" stroke="url(#paint23_linear)" stroke-width="0.2"/>
<path d="M14.0311 13.2287H12.5868C12.5065 13.2287 12.4263 13.1645 12.4263 13.0682C12.4263 12.988 12.4905 12.9077 12.5868 12.9077H14.0311C14.3842 12.9077 14.657 12.6189 14.657 12.2818V8.334C14.657 8.25376 14.7212 8.17352 14.8175 8.17352C14.9137 8.17352 14.9779 8.23772 14.9779 8.334V12.2818C14.9779 12.7954 14.5446 13.2287 14.0311 13.2287Z" fill="url(#paint24_linear)" stroke="url(#paint25_linear)" stroke-width="0.2"/>
<path d="M14.8175 8.47843C13.6138 8.47843 12.6349 7.4995 12.6349 6.29589C12.6349 5.09228 13.6138 4.09729 14.8175 4.09729C16.0211 4.09729 17 5.07623 17 6.27984C17 7.48345 16.0211 8.47843 14.8175 8.47843ZM14.8175 4.41825C13.7904 4.41825 12.9559 5.25276 12.9559 6.27984C12.9559 7.30692 13.7904 8.15747 14.8175 8.15747C15.8445 8.15747 16.679 7.32297 16.679 6.29589C16.679 5.2688 15.8445 4.41825 14.8175 4.41825Z" fill="url(#paint26_linear)" stroke="url(#paint27_linear)" stroke-width="0.2"/>
<path d="M15.7001 6.44031C15.6199 6.44031 15.5396 6.37611 15.5396 6.27982C15.5396 5.87862 15.2187 5.55766 14.8175 5.55766C14.4162 5.55766 14.0953 5.87862 14.0953 6.27982C14.0953 6.36006 14.0311 6.44031 13.9348 6.44031C13.8546 6.44031 13.7743 6.37611 13.7743 6.27982C13.7743 5.70209 14.2397 5.23669 14.8175 5.23669C15.3952 5.23669 15.8606 5.70209 15.8606 6.27982C15.8606 6.37611 15.7803 6.44031 15.7001 6.44031Z" fill="url(#paint28_linear)" stroke="url(#paint29_linear)" stroke-width="0.2"/>
<defs>
<linearGradient id="paint0_linear" x1="1.45345" y1="7.51556" x2="7.24764" y2="7.14216" gradientUnits="userSpaceOnUse">
<stop stop-color="#9242AE"/>
<stop offset="1" stop-color="#1976E3"/>
</linearGradient>
<linearGradient id="paint1_linear" x1="1.45345" y1="7.51556" x2="7.24764" y2="7.14216" gradientUnits="userSpaceOnUse">
<stop stop-color="#9242AE"/>
<stop offset="1" stop-color="#1976E3"/>
</linearGradient>
<linearGradient id="paint2_linear" x1="2.42828" y1="11.8164" x2="2.76509" y2="11.8152" gradientUnits="userSpaceOnUse">
<stop stop-color="#9242AE"/>
<stop offset="1" stop-color="#1976E3"/>
</linearGradient>
<linearGradient id="paint3_linear" x1="2.42828" y1="11.8164" x2="2.76509" y2="11.8152" gradientUnits="userSpaceOnUse">
<stop stop-color="#9242AE"/>
<stop offset="1" stop-color="#1976E3"/>
</linearGradient>
<linearGradient id="paint4_linear" x1="5.22066" y1="11.0943" x2="8.61428" y2="10.9275" gradientUnits="userSpaceOnUse">
<stop stop-color="#9242AE"/>
<stop offset="1" stop-color="#1976E3"/>
</linearGradient>
<linearGradient id="paint5_linear" x1="5.22066" y1="11.0943" x2="8.61428" y2="10.9275" gradientUnits="userSpaceOnUse">
<stop stop-color="#9242AE"/>
<stop offset="1" stop-color="#1976E3"/>
</linearGradient>
<linearGradient id="paint6_linear" x1="4.69518" y1="6.40821" x2="7.11892" y2="6.25617" gradientUnits="userSpaceOnUse">
<stop stop-color="#9242AE"/>
<stop offset="1" stop-color="#1976E3"/>
</linearGradient>
<linearGradient id="paint7_linear" x1="4.69518" y1="6.40821" x2="7.11892" y2="6.25617" gradientUnits="userSpaceOnUse">
<stop stop-color="#9242AE"/>
<stop offset="1" stop-color="#1976E3"/>
</linearGradient>
<linearGradient id="paint8_linear" x1="6.68515" y1="7.51556" x2="12.4793" y2="7.14216" gradientUnits="userSpaceOnUse">
<stop stop-color="#9242AE"/>
<stop offset="1" stop-color="#1976E3"/>
</linearGradient>
<linearGradient id="paint9_linear" x1="6.68515" y1="7.51556" x2="12.4793" y2="7.14216" gradientUnits="userSpaceOnUse">
<stop stop-color="#9242AE"/>
<stop offset="1" stop-color="#1976E3"/>
</linearGradient>
<linearGradient id="paint10_linear" x1="10.9338" y1="11.8164" x2="11.2706" y2="11.8152" gradientUnits="userSpaceOnUse">
<stop stop-color="#9242AE"/>
<stop offset="1" stop-color="#1976E3"/>
</linearGradient>
<linearGradient id="paint11_linear" x1="10.9338" y1="11.8164" x2="11.2706" y2="11.8152" gradientUnits="userSpaceOnUse">
<stop stop-color="#9242AE"/>
<stop offset="1" stop-color="#1976E3"/>
</linearGradient>
<linearGradient id="paint12_linear" x1="6.68515" y1="6.40821" x2="9.10889" y2="6.25617" gradientUnits="userSpaceOnUse">
<stop stop-color="#9242AE"/>
<stop offset="1" stop-color="#1976E3"/>
</linearGradient>
<linearGradient id="paint13_linear" x1="6.68515" y1="6.40821" x2="9.10889" y2="6.25617" gradientUnits="userSpaceOnUse">
<stop stop-color="#9242AE"/>
<stop offset="1" stop-color="#1976E3"/>
</linearGradient>
<linearGradient id="paint14_linear" x1="1" y1="13.2286" x2="10.9094" y2="8.19919" gradientUnits="userSpaceOnUse">
<stop stop-color="#9242AE"/>
<stop offset="1" stop-color="#1976E3"/>
</linearGradient>
<linearGradient id="paint15_linear" x1="1" y1="13.2286" x2="10.9094" y2="8.19919" gradientUnits="userSpaceOnUse">
<stop stop-color="#9242AE"/>
<stop offset="1" stop-color="#1976E3"/>
</linearGradient>
<linearGradient id="paint16_linear" x1="1" y1="14.8817" x2="10.9094" y2="9.8522" gradientUnits="userSpaceOnUse">
<stop stop-color="#9242AE"/>
<stop offset="1" stop-color="#1976E3"/>
</linearGradient>
<linearGradient id="paint17_linear" x1="1" y1="14.8817" x2="10.9094" y2="9.8522" gradientUnits="userSpaceOnUse">
<stop stop-color="#9242AE"/>
<stop offset="1" stop-color="#1976E3"/>
</linearGradient>
<linearGradient id="paint18_linear" x1="13.0572" y1="1.80241" x2="16.5859" y2="1.03784" gradientUnits="userSpaceOnUse">
<stop stop-color="#9242AE"/>
<stop offset="1" stop-color="#1976E3"/>
</linearGradient>
<linearGradient id="paint19_linear" x1="13.0572" y1="1.80241" x2="16.5859" y2="1.03784" gradientUnits="userSpaceOnUse">
<stop stop-color="#9242AE"/>
<stop offset="1" stop-color="#1976E3"/>
</linearGradient>
<linearGradient id="paint20_linear" x1="14.004" y1="2.68505" x2="15.6704" y2="2.42435" gradientUnits="userSpaceOnUse">
<stop stop-color="#9242AE"/>
<stop offset="1" stop-color="#1976E3"/>
</linearGradient>
<linearGradient id="paint21_linear" x1="14.004" y1="2.68505" x2="15.6704" y2="2.42435" gradientUnits="userSpaceOnUse">
<stop stop-color="#9242AE"/>
<stop offset="1" stop-color="#1976E3"/>
</linearGradient>
<linearGradient id="paint22_linear" x1="14.5928" y1="3.51954" x2="15.0632" y2="3.49631" gradientUnits="userSpaceOnUse">
<stop stop-color="#9242AE"/>
<stop offset="1" stop-color="#1976E3"/>
</linearGradient>
<linearGradient id="paint23_linear" x1="14.5928" y1="3.51954" x2="15.0632" y2="3.49631" gradientUnits="userSpaceOnUse">
<stop stop-color="#9242AE"/>
<stop offset="1" stop-color="#1976E3"/>
</linearGradient>
<linearGradient id="paint24_linear" x1="12.4263" y1="13.2287" x2="15.1023" y2="13.162" gradientUnits="userSpaceOnUse">
<stop stop-color="#9242AE"/>
<stop offset="1" stop-color="#1976E3"/>
</linearGradient>
<linearGradient id="paint25_linear" x1="12.4263" y1="13.2287" x2="15.1023" y2="13.162" gradientUnits="userSpaceOnUse">
<stop stop-color="#9242AE"/>
<stop offset="1" stop-color="#1976E3"/>
</linearGradient>
<linearGradient id="paint26_linear" x1="12.6349" y1="8.47843" x2="17.2045" y2="8.2536" gradientUnits="userSpaceOnUse">
<stop stop-color="#9242AE"/>
<stop offset="1" stop-color="#1976E3"/>
</linearGradient>
<linearGradient id="paint27_linear" x1="12.6349" y1="8.47843" x2="17.2045" y2="8.2536" gradientUnits="userSpaceOnUse">
<stop stop-color="#9242AE"/>
<stop offset="1" stop-color="#1976E3"/>
</linearGradient>
<linearGradient id="paint28_linear" x1="13.7743" y1="6.44031" x2="15.9477" y2="6.25427" gradientUnits="userSpaceOnUse">
<stop stop-color="#9242AE"/>
<stop offset="1" stop-color="#1976E3"/>
</linearGradient>
<linearGradient id="paint29_linear" x1="13.7743" y1="6.44031" x2="15.9477" y2="6.25427" gradientUnits="userSpaceOnUse">
<stop stop-color="#9242AE"/>
<stop offset="1" stop-color="#1976E3"/>
</linearGradient>
</defs>
</svg>
