<svg width="12" height="16" viewBox="0 0 12 16" fill="none" xmlns="http://www.w3.org/2000/svg">
<path d="M3.24999 3C3.39999 3 3.49999 2.9 3.49999 2.75C3.49999 2.6 3.39999 2.5 3.24999 2.5L2.99999 2.5C2.84999 2.5 2.74999 2.6 2.74999 2.75C2.74999 2.9 2.84999 3 2.99999 3L3.24999 3Z" fill="url(#paint0_linear)"/>
<path d="M4.25 3C4.4 3 4.5 2.9 4.5 2.75C4.5 2.6 4.4 2.5 4.25 2.5L4 2.5C3.85 2.5 3.75 2.6 3.75 2.75C3.75 2.9 3.85 3 4 3L4.25 3Z" fill="url(#paint1_linear)"/>
<path d="M2.49999 2.75C2.49999 2.6 2.39999 2.5 2.24999 2.5L1.99999 2.5C1.84999 2.5 1.74999 2.6 1.74999 2.75C1.74999 2.9 1.84999 3 1.99999 3L2.24999 3C2.39999 3 2.49999 2.9 2.49999 2.75Z" fill="url(#paint2_linear)"/>
<path d="M8 10.75C8.15 10.75 8.25 10.65 8.25 10.5C8.25 10.35 8.15 10.25 8 10.25L7.75 10.25C7.6 10.25 7.5 10.35 7.5 10.5C7.5 10.65 7.6 10.75 7.75 10.75L8 10.75Z" fill="url(#paint3_linear)"/>
<path d="M9 10.75C9.15 10.75 9.25 10.65 9.25 10.5C9.25 10.35 9.15 10.25 9 10.25L8.75 10.25C8.6 10.25 8.5 10.35 8.5 10.5C8.5 10.65 8.6 10.75 8.75 10.75L9 10.75Z" fill="url(#paint4_linear)"/>
<path d="M7 10.75C7.15 10.75 7.25 10.65 7.25 10.5C7.25 10.35 7.15 10.25 7 10.25L6.75 10.25C6.6 10.25 6.5 10.35 6.5 10.5C6.5 10.65 6.6 10.75 6.75 10.75L7 10.75Z" fill="url(#paint5_linear)"/>
<path d="M12 15.75L12 12.75C12 12.6 11.9 12.5 11.75 12.5C11.6 12.5 11.5 12.625 11.5 12.75L11.5 15.5L0.499999 15.5L0.5 0.499999L9 0.5L9 2.75C9 2.9 9.1 3 9.25 3L11.5 3L11.5 11C11.5 11.15 11.6 11.25 11.75 11.25C11.9 11.25 12 11.125 12 11L12 2.75C12 2.675 11.975 2.625 11.925 2.575L9.425 0.0749999C9.375 0.0249999 9.325 -1.16928e-07 9.25 -1.20206e-07L0.25 -5.13609e-07C0.1 -5.20166e-07 -5.46392e-09 0.124999 -1.09278e-08 0.249999L-6.88454e-07 15.75C-6.95011e-07 15.9 0.0999997 16 0.249999 16L11.75 16C11.9 16 12 15.9 12 15.75ZM9.5 0.875L11.125 2.5L9.5 2.5L9.5 0.875Z" fill="url(#paint6_linear)"/>
<path d="M11.5 12C11.5 12.15 11.6 12.25 11.75 12.25C11.9 12.25 12 12.15 12 12L12 11.75C12 11.6 11.9 11.5 11.75 11.5C11.6 11.5 11.5 11.6 11.5 11.75L11.5 12Z" fill="url(#paint7_linear)"/>
<path d="M2 14.5L6.75 14.5C6.9 14.5 7 14.4 7 14.25C7 14.1 6.9 14 6.75 14L2 14C1.85 14 1.75 14.1 1.75 14.25C1.75 14.4 1.85 14.5 2 14.5Z" fill="url(#paint8_linear)"/>
<path d="M5.25 1.5L2 1.5C1.85 1.5 1.75 1.6 1.75 1.75C1.75 1.9 1.85 2 2 2L5.25 2C5.4 2 5.5 1.9 5.5 1.75C5.5 1.6 5.4 1.5 5.25 1.5Z" fill="url(#paint9_linear)"/>
<path d="M10 4.25L2 4.25C1.85 4.25 1.75 4.35 1.75 4.5C1.75 4.65 1.85 4.75 2 4.75L10 4.75C10.15 4.75 10.25 4.65 10.25 4.5C10.25 4.35 10.15 4.25 10 4.25Z" fill="url(#paint10_linear)"/>
<path d="M10 5.25L2 5.25C1.85 5.25 1.75 5.35 1.75 5.5C1.75 5.65 1.85 5.75 2 5.75L10 5.75C10.15 5.75 10.25 5.65 10.25 5.5C10.25 5.35 10.15 5.25 10 5.25Z" fill="url(#paint11_linear)"/>
<path d="M10 6.25L2 6.25C1.85 6.25 1.75 6.35 1.75 6.5C1.75 6.65 1.85 6.75 2 6.75L10 6.75C10.15 6.75 10.25 6.65 10.25 6.5C10.25 6.35 10.15 6.25 10 6.25Z" fill="url(#paint12_linear)"/>
<path d="M10 7.25L2 7.25C1.85 7.25 1.75 7.35 1.75 7.5C1.75 7.65 1.85 7.75 2 7.75L10 7.75C10.15 7.75 10.25 7.65 10.25 7.5C10.25 7.35 10.15 7.25 10 7.25Z" fill="url(#paint13_linear)"/>
<path d="M10 8.25L2 8.25C1.85 8.25 1.75 8.35 1.75 8.5C1.75 8.65 1.85 8.75 2 8.75L10 8.75C10.15 8.75 10.25 8.65 10.25 8.5C10.25 8.35 10.15 8.25 10 8.25Z" fill="url(#paint14_linear)"/>
<path d="M10 9.25L2 9.25C1.85 9.25 1.75 9.35 1.75 9.5C1.75 9.65 1.85 9.75 2 9.75L10 9.75C10.15 9.75 10.25 9.65 10.25 9.5C10.25 9.35 10.15 9.25 10 9.25Z" fill="url(#paint15_linear)"/>
<path d="M6.25 10.5C6.25 10.35 6.15 10.25 6 10.25L2 10.25C1.85 10.25 1.75 10.35 1.75 10.5C1.75 10.65 1.85 10.75 2 10.75L6 10.75C6.15 10.75 6.25 10.65 6.25 10.5Z" fill="url(#paint16_linear)"/>
<path d="M10 11.25L2 11.25C1.85 11.25 1.75 11.35 1.75 11.5C1.75 11.65 1.85 11.75 2 11.75L10 11.75C10.15 11.75 10.25 11.65 10.25 11.5C10.25 11.35 10.15 11.25 10 11.25Z" fill="url(#paint17_linear)"/>
<path d="M1.75 12.5C1.75 12.65 1.85 12.75 2 12.75L10 12.75C10.15 12.75 10.25 12.65 10.25 12.5C10.25 12.35 10.15 12.25 10 12.25L2 12.25C1.85 12.25 1.75 12.35 1.75 12.5Z" fill="url(#paint18_linear)"/>
<defs>
<linearGradient id="paint0_linear" x1="2.74999" y1="2.5" x2="2.76725" y2="3.02412" gradientUnits="userSpaceOnUse">
<stop stop-color="#9242AE"/>
<stop offset="1" stop-color="#1976E3"/>
</linearGradient>
<linearGradient id="paint1_linear" x1="3.75" y1="2.5" x2="3.76725" y2="3.02412" gradientUnits="userSpaceOnUse">
<stop stop-color="#9242AE"/>
<stop offset="1" stop-color="#1976E3"/>
</linearGradient>
<linearGradient id="paint2_linear" x1="1.74999" y1="2.5" x2="1.76725" y2="3.02412" gradientUnits="userSpaceOnUse">
<stop stop-color="#9242AE"/>
<stop offset="1" stop-color="#1976E3"/>
</linearGradient>
<linearGradient id="paint3_linear" x1="7.5" y1="10.25" x2="7.51725" y2="10.7741" gradientUnits="userSpaceOnUse">
<stop stop-color="#9242AE"/>
<stop offset="1" stop-color="#1976E3"/>
</linearGradient>
<linearGradient id="paint4_linear" x1="8.5" y1="10.25" x2="8.51725" y2="10.7741" gradientUnits="userSpaceOnUse">
<stop stop-color="#9242AE"/>
<stop offset="1" stop-color="#1976E3"/>
</linearGradient>
<linearGradient id="paint5_linear" x1="6.5" y1="10.25" x2="6.51725" y2="10.7741" gradientUnits="userSpaceOnUse">
<stop stop-color="#9242AE"/>
<stop offset="1" stop-color="#1976E3"/>
</linearGradient>
<linearGradient id="paint6_linear" x1="9.05246e-07" y1="-5.84141e-07" x2="1.10075" y2="16.7176" gradientUnits="userSpaceOnUse">
<stop stop-color="#9242AE"/>
<stop offset="1" stop-color="#1976E3"/>
</linearGradient>
<linearGradient id="paint7_linear" x1="11.5" y1="11.5" x2="11.558" y2="12.2827" gradientUnits="userSpaceOnUse">
<stop stop-color="#9242AE"/>
<stop offset="1" stop-color="#1976E3"/>
</linearGradient>
<linearGradient id="paint8_linear" x1="1.75" y1="14" x2="1.75246" y2="14.5247" gradientUnits="userSpaceOnUse">
<stop stop-color="#9242AE"/>
<stop offset="1" stop-color="#1976E3"/>
</linearGradient>
<linearGradient id="paint9_linear" x1="1.75" y1="1.5" x2="1.75345" y2="2.02467" gradientUnits="userSpaceOnUse">
<stop stop-color="#9242AE"/>
<stop offset="1" stop-color="#1976E3"/>
</linearGradient>
<linearGradient id="paint10_linear" x1="1.75" y1="4.25" x2="1.75152" y2="4.77469" gradientUnits="userSpaceOnUse">
<stop stop-color="#9242AE"/>
<stop offset="1" stop-color="#1976E3"/>
</linearGradient>
<linearGradient id="paint11_linear" x1="1.75" y1="5.25" x2="1.75152" y2="5.77469" gradientUnits="userSpaceOnUse">
<stop stop-color="#9242AE"/>
<stop offset="1" stop-color="#1976E3"/>
</linearGradient>
<linearGradient id="paint12_linear" x1="1.75" y1="6.25" x2="1.75152" y2="6.77469" gradientUnits="userSpaceOnUse">
<stop stop-color="#9242AE"/>
<stop offset="1" stop-color="#1976E3"/>
</linearGradient>
<linearGradient id="paint13_linear" x1="1.75" y1="7.25" x2="1.75152" y2="7.77469" gradientUnits="userSpaceOnUse">
<stop stop-color="#9242AE"/>
<stop offset="1" stop-color="#1976E3"/>
</linearGradient>
<linearGradient id="paint14_linear" x1="1.75" y1="8.25" x2="1.75152" y2="8.77469" gradientUnits="userSpaceOnUse">
<stop stop-color="#9242AE"/>
<stop offset="1" stop-color="#1976E3"/>
</linearGradient>
<linearGradient id="paint15_linear" x1="1.75" y1="9.25" x2="1.75152" y2="9.77469" gradientUnits="userSpaceOnUse">
<stop stop-color="#9242AE"/>
<stop offset="1" stop-color="#1976E3"/>
</linearGradient>
<linearGradient id="paint16_linear" x1="1.75" y1="10.25" x2="1.75287" y2="10.7747" gradientUnits="userSpaceOnUse">
<stop stop-color="#9242AE"/>
<stop offset="1" stop-color="#1976E3"/>
</linearGradient>
<linearGradient id="paint17_linear" x1="1.75" y1="11.25" x2="1.75152" y2="11.7747" gradientUnits="userSpaceOnUse">
<stop stop-color="#9242AE"/>
<stop offset="1" stop-color="#1976E3"/>
</linearGradient>
<linearGradient id="paint18_linear" x1="1.75" y1="12.25" x2="1.75152" y2="12.7747" gradientUnits="userSpaceOnUse">
<stop stop-color="#9242AE"/>
<stop offset="1" stop-color="#1976E3"/>
</linearGradient>
</defs>
</svg>
