<svg width="10" height="12" viewBox="0 0 10 12" fill="none" xmlns="http://www.w3.org/2000/svg">
<path fill-rule="evenodd" clip-rule="evenodd" d="M4.89434 1.17073C3.88855 1.17073 3.0732 1.98608 3.0732 2.99187C3.0732 3.99766 3.88855 4.81301 4.89434 4.81301C5.90013 4.81301 6.71548 3.99766 6.71548 2.99187C6.71548 1.98608 5.90013 1.17073 4.89434 1.17073ZM1.90247 2.99187C1.90247 1.33951 3.24197 0 4.89434 0C6.5467 0 7.88621 1.33951 7.88621 2.99187C7.88621 4.64424 6.5467 5.98374 4.89434 5.98374C3.24197 5.98374 1.90247 4.64424 1.90247 2.99187Z"/>
<path fill-rule="evenodd" clip-rule="evenodd" d="M3.69103 8.39025C3.20803 8.39025 2.74482 8.58212 2.40329 8.92365C2.06176 9.26518 1.86989 9.72839 1.86989 10.2114V11.4146C1.86989 11.7379 1.60781 12 1.28452 12C0.961235 12 0.699158 11.7379 0.699158 11.4146V10.2114C0.699158 9.41789 1.01437 8.6569 1.57546 8.09581C2.13654 7.53473 2.89754 7.21951 3.69103 7.21951H6.09754C6.89103 7.21951 7.65202 7.53473 8.21311 8.09581C8.77419 8.6569 9.08941 9.41789 9.08941 10.2114V11.4146C9.08941 11.7379 8.82733 12 8.50404 12C8.18075 12 7.91867 11.7379 7.91867 11.4146V10.2114C7.91867 9.72839 7.72681 9.26518 7.38528 8.92365C7.04375 8.58212 6.58053 8.39025 6.09754 8.39025H3.69103Z"/>
</svg>
