<svg width="19" height="14" viewBox="0 0 19 14" fill="none" xmlns="http://www.w3.org/2000/svg">
<path d="M17.8248 2.41081H17.2106L16.2007 1.15719C16.1209 1.01824 15.9562 0.909655 15.8013 0.89295C15.4664 0.857263 15.13 0.832205 14.7944 0.814741C14.6372 0.807907 14.4839 0.883838 14.3981 0.957492C14.3829 0.9704 14.3692 0.983308 14.3548 0.996217L13.5932 0.106304C13.5362 0.038725 13.4512 0 13.3624 0H8.82623C8.73512 0 8.64856 0.0410029 8.59009 0.111619L6.71915 2.41081H5.10865C4.94084 2.41081 4.80492 2.54673 4.80492 2.71454V3.80415H2.65911C2.53686 3.80415 2.426 3.8778 2.37892 3.99094L1.04026 7.20055C0.457105 7.25978 0 7.75257 0 8.34635V12.0229C0 12.1907 0.136676 12.3267 0.303725 12.3267H1.7654C1.89904 13.272 2.71302 14.0009 3.69405 14.0009C4.67508 14.0009 5.48906 13.272 5.6227 12.3267H12.2287C12.3623 13.272 13.1763 14.0009 14.1574 14.0009C15.1384 14.0009 15.9524 13.272 16.086 12.3267H17.8241C17.9919 12.3267 18.1278 12.1907 18.1278 12.0229V8.90293V8.63337V2.71454C18.1293 2.54749 17.9926 2.41081 17.8248 2.41081ZM8.97126 0.608208H13.2234L13.966 1.47155L14.0685 1.63328C14.1186 1.71301 14.2037 1.76464 14.2971 1.77451C14.392 1.7821 14.4831 1.74793 14.5476 1.6796L14.6342 1.58468C14.6874 1.52546 14.7375 1.46851 14.7625 1.42219C15.0883 1.43889 15.4133 1.46319 15.701 1.49964L16.433 2.41157H7.50276L8.97126 0.608208ZM5.41237 3.01826H17.5203V8.32889H15.2386L15.2196 7.65766C15.2151 7.48985 15.0883 7.37443 14.9076 7.36228C14.7398 7.36684 14.6076 7.50655 14.6129 7.67436L14.6312 8.32813H14.1323L14.1247 7.66221C14.1224 7.4944 13.9675 7.35545 13.8172 7.36228C13.6494 7.3638 13.5157 7.502 13.5165 7.6698L13.5241 8.32889H13.0245L13.0351 7.67132C13.0374 7.50352 12.9037 7.36532 12.7359 7.36228C12.7337 7.36228 12.7321 7.36228 12.7306 7.36228C12.5651 7.36228 12.4299 7.49516 12.4269 7.66069L12.4155 8.32813H11.9273L11.9212 7.66297C11.9189 7.49592 11.783 7.36228 11.6175 7.36228C11.6167 7.36228 11.6152 7.36228 11.6144 7.36228C11.4466 7.3638 11.3122 7.50124 11.3137 7.66904L11.3198 8.32889H7.83002V5.66446C7.83002 4.99627 8.47847 4.92413 8.75714 4.92413H14.2925C14.4603 4.92413 14.5962 4.78822 14.5962 4.62041C14.5962 4.4526 14.4596 4.31669 14.2925 4.31669H8.75714C7.83913 4.31669 7.22257 4.85807 7.22257 5.66446V8.32889H6.62955V4.10787C6.62955 3.94007 6.49287 3.80415 6.32582 3.80415H5.41237V3.01826ZM2.86184 4.4116H6.02134V7.19523H1.70086L2.86184 4.4116ZM3.69481 13.3935C2.95524 13.3935 2.35462 12.7921 2.35462 12.0525C2.35462 11.3137 2.95524 10.7124 3.69481 10.7124C4.43438 10.7124 5.03499 11.3137 5.03499 12.0525C5.03423 12.7921 4.43362 13.3935 3.69481 13.3935ZM14.1581 13.3935C13.4186 13.3935 12.8179 12.7921 12.8179 12.0525C12.8179 11.3137 13.4186 10.7124 14.1581 10.7124C14.8977 10.7124 15.4983 11.3137 15.4983 12.0525C15.4983 12.7921 14.8977 13.3935 14.1581 13.3935ZM17.5211 11.7192H16.0777C15.919 10.8035 15.1186 10.1057 14.1589 10.1057C13.1991 10.1057 12.3988 10.8042 12.2401 11.7192H5.61359C5.45489 10.8035 4.65458 10.1057 3.69481 10.1057C2.73504 10.1057 1.93473 10.8042 1.77603 11.7192H0.608208V9.4223H0.866374C1.03418 9.4223 1.1701 9.28638 1.1701 9.11857C1.1701 8.95076 1.03342 8.81485 0.866374 8.81485H0.608208V8.34635C0.608208 8.04794 0.852707 7.8042 1.15263 7.80192H1.24527H6.02134V8.63261C6.02134 8.80042 6.15802 8.93634 6.32506 8.93634H17.5203V11.7192H17.5211Z" fill="url(#paint0_linear)"/>
<path d="M3.69025 12.5901C3.98674 12.5901 4.22709 12.3498 4.22709 12.0533C4.22709 11.7568 3.98674 11.5165 3.69025 11.5165C3.39377 11.5165 3.15342 11.7568 3.15342 12.0533C3.15342 12.3498 3.39377 12.5901 3.69025 12.5901Z" fill="url(#paint1_linear)"/>
<path d="M14.1308 12.5901C14.4273 12.5901 14.6676 12.3498 14.6676 12.0533C14.6676 11.7568 14.4273 11.5165 14.1308 11.5165C13.8343 11.5165 13.594 11.7568 13.594 12.0533C13.594 12.3498 13.8343 12.5901 14.1308 12.5901Z" fill="url(#paint2_linear)"/>
<defs>
<linearGradient id="paint0_linear" x1="-6.75314e-08" y1="14.0009" x2="18.9456" y2="12.7896" gradientUnits="userSpaceOnUse">
<stop stop-color="#9242AE"/>
<stop offset="1" stop-color="#1976E3"/>
</linearGradient>
<linearGradient id="paint1_linear" x1="3.15342" y1="12.5901" x2="4.27737" y2="12.5346" gradientUnits="userSpaceOnUse">
<stop stop-color="#9242AE"/>
<stop offset="1" stop-color="#1976E3"/>
</linearGradient>
<linearGradient id="paint2_linear" x1="13.594" y1="12.5901" x2="14.7179" y2="12.5346" gradientUnits="userSpaceOnUse">
<stop stop-color="#9242AE"/>
<stop offset="1" stop-color="#1976E3"/>
</linearGradient>
</defs>
</svg>
