<svg width="16" height="16" viewBox="0 0 16 16" fill="none" xmlns="http://www.w3.org/2000/svg">
<path fill-rule="evenodd" clip-rule="evenodd" d="M11.552 0C12.072 0 12.576 0.208797 12.944 0.57836L15.424 3.05887C15.792 3.42843 16 3.92921 16 4.45155C16 4.9739 15.792 5.47467 15.424 5.84424L6.36797 14.8977C5.80797 15.5417 5.016 15.9384 4.104 16H0V15.2001V11.8284C0.072 10.9853 0.463965 10.2006 1.06396 9.67344L10.16 0.579922C10.528 0.208759 11.024 0 11.552 0ZM4.04805 14.4026C4.48005 14.3722 4.87999 14.173 5.19199 13.8082L11.248 7.75923L8.24004 4.75553L2.15996 10.8389C1.83196 11.1253 1.632 11.526 1.6 11.8932V14.4009L4.04805 14.4026ZM9.37598 3.62444L12.376 6.62814L14.288 4.71315C14.36 4.64356 14.4 4.54994 14.4 4.45155C14.4 4.35396 14.36 4.25958 14.288 4.19079L11.808 1.70784C11.744 1.63904 11.648 1.59984 11.552 1.59984C11.456 1.59984 11.36 1.63904 11.288 1.70784L9.37598 3.62444Z" fill="url(#paint0_linear)"/>
<defs>
<linearGradient id="paint0_linear" x1="-5.96046e-08" y1="16" x2="16.7493" y2="15.1729" gradientUnits="userSpaceOnUse">
<stop stop-color="#9242AE"/>
<stop offset="1" stop-color="#1976E3"/>
</linearGradient>
</defs>
</svg>
